<?xml version="1.0" encoding="UTF-8" standalone="no"?>
<!-- Created with Inkscape (http://www.inkscape.org/) -->

<svg
   version="1.1"
   id="svg1"
   width="416.59866"
   height="255.64932"
   viewBox="0 0 416.59866 255.64932"
   sodipodi:docname="Tikz 3.pdf"
   xmlns:inkscape="http://www.inkscape.org/namespaces/inkscape"
   xmlns:sodipodi="http://sodipodi.sourceforge.net/DTD/sodipodi-0.dtd"
   xmlns="http://www.w3.org/2000/svg"
   xmlns:svg="http://www.w3.org/2000/svg">
  <defs
     id="defs1" />
  <sodipodi:namedview
     id="namedview1"
     pagecolor="#ffffff"
     bordercolor="#000000"
     borderopacity="0.25"
     inkscape:showpageshadow="2"
     inkscape:pageopacity="0.0"
     inkscape:pagecheckerboard="0"
     inkscape:deskcolor="#d1d1d1">
    <inkscape:page
       x="0"
       y="0"
       inkscape:label="1"
       id="page1"
       width="416.59866"
       height="255.64932"
       margin="0"
       bleed="0" />
  </sodipodi:namedview>
  <g
     id="g1"
     inkscape:groupmode="layer"
     inkscape:label="1">
    <path
       id="path1"
       d="M -99.21382,-59.52846 V 35.43349 H 99.21382 v -94.96195 z"
       style="fill:none;stroke:#000000;stroke-width:0.3985;stroke-linecap:butt;stroke-linejoin:miter;stroke-miterlimit:10;stroke-dasharray:none;stroke-opacity:1"
       transform="matrix(1.3333333,0,0,-1.3333333,221.09467,47.509333)" />
    <path
       id="path2"
       d="m 44.34479,-14.17339 c 3.71386,0 6.7245,6.34555 6.7245,14.17339 0,7.82784 -3.01064,14.17339 -6.7245,14.17339 h -99.93825 c -3.71387,0 -6.7245,-6.34555 -6.7245,-14.17339 0,-7.82784 3.01063,-14.17339 6.7245,-14.17339 z m -99.93825,0 c 3.71386,0 6.7245,6.34555 6.7245,14.17339 0,7.82784 -3.01064,14.17339 -6.7245,14.17339"
       style="fill:none;stroke:#000000;stroke-width:0.3985;stroke-linecap:butt;stroke-linejoin:miter;stroke-miterlimit:10;stroke-dasharray:none;stroke-opacity:1"
       transform="matrix(1.3333333,0,0,-1.3333333,221.09467,47.509333)" />
    <path
       id="path3"
       d="m 5.9285859,-1.6414688 c 0.046875,0.6210938 0.1640625,1.07812505 0.2109375,1.2773438 0.1171875,0.4453125 0.1640625,0.66796875 0.5976563,0.66796875 0.4453125,0 1.2070312,-0.45703125 1.2070312,-0.65625 0,-0.046875 -0.035156,-0.0703125 -0.082031,-0.0703125 -0.1289063,0 -0.3398438,0.1171875 -0.375,0.12890625 -0.070312,0.046875 -0.082031,0.046875 -0.1054688,0.046875 -0.28125,0 -0.3398437,-0.26953125 -0.4570312,-0.8671875 -0.070313,-0.328125 -0.1640627,-0.7265625 -0.246094,-2.0976563 -0.070312,-1.0078125 -0.1054687,-2.0273437 -0.1054687,-3.046875 0,-0.234375 0.011719,-0.4921875 0.011719,-0.7382812 0,-0.1523438 0,-0.1992188 -0.1054687,-0.1992188 -0.140625,0 -0.5507813,0.1757813 -0.7382813,0.4453125 l -0.058594,0.1054688 c -0.796875,1.6875 -1.5351563,2.8945312 -2.0507813,3.6914062 -0.5859375,0.9140625 -1.6171875,2.53125005 -2.15625,2.53125005 -0.375,0 -0.67968746,-0.234375 -0.77343746,-0.59765625 0,-0.011719 -0.0234375,-0.082031 -0.0703125,-0.082031 -0.140625,0 -0.36328125,0.4804688 -0.36328125,0.7617188 0,0.3984375 0.43359375,0.84375 0.89062501,0.84375 0.6914062,0 1.8398437,-1.8046875 2.0625,-2.1445313 z M 5.7293672,-5.9656875 v 0.5742187 c 0,0.5742188 0.011719,1.1601563 0.046875,1.734375 0.011719,0.1992188 0.046875,0.9492188 0.1054687,1.4648438 h -1.828125 c -0.1640625,0 -0.3046875,0 -0.5625,0.1640625 0.6914063,-1.078125 1.265625,-2.1210938 1.3242188,-2.2265625 0.5039062,-0.890625 0.7734375,-1.4648438 0.9023437,-1.7109375 z m 13.3037108,3.6679687 c -0.550781,0.421875 -0.820312,0.8320313 -0.902344,0.9609375 -0.445312,0.6914063 -0.527343,1.31250005 -0.527343,1.3242188 0,0.1171875 0.128906,0.1171875 0.199218,0.1171875 0.175782,0 0.1875,-0.01171875 0.222657,-0.19921875 0.234375,-0.97265625 0.820312,-1.80468755 1.945312,-2.26171875 0.117188,-0.046875 0.152344,-0.070312 0.152344,-0.140625 0,-0.058594 -0.07031,-0.09375 -0.08203,-0.1054688 -0.445313,-0.1640625 -1.640625,-0.6679687 -2.027344,-2.34375 -0.02344,-0.1171875 -0.03516,-0.140625 -0.210938,-0.140625 -0.07031,0 -0.199218,0 -0.199218,0.1171875 0,0.023437 0.09375,0.6445313 0.515625,1.3125 0.199218,0.3046875 0.480468,0.6445313 0.914062,0.9609375 h -7.40625 c -0.175781,0 -0.351562,0 -0.351562,0.1992188 0,0.1992187 0.175781,0.1992187 0.351562,0.1992187 z m 7.212891,-4.4648437 c 0.02344,-0.1171875 0.02344,-0.1289063 0.02344,-0.1640625 0,-0.070312 -0.02344,-0.09375 -0.117187,-0.09375 -0.105469,0 -0.398438,0.140625 -0.597657,0.2460937 -0.46875,0.234375 -0.84375,0.421875 -0.84375,0.5976563 0,0.058594 0.07031,0.058594 0.105469,0.058594 0.128906,0 0.386719,-0.140625 0.574219,-0.2226562 -0.117188,0.9726562 -0.363281,2.25 -0.539063,3.1054687 -0.363281,1.6875 -0.5625,2.29687505 -1.042968,3.2695313 -0.04687,0.08203125 -0.04687,0.10546875 -0.04687,0.1171875 0,0.0703125 0.07031,0.0703125 0.09375,0.0703125 0.164062,0 0.574218,-0.1875 0.738281,-0.45703125 0.128906,-0.234375 0.503906,-0.96093755 0.808594,-2.12109375 0.210937,-0.8554688 0.597656,-2.15625 1.300781,-3.1875 0.457031,-0.6445313 0.878906,-0.9375 1.5,-0.9375 0.539062,0 1.03125,0.3398437 1.03125,0.8671875 0,0.8789062 -0.949219,1.1953125 -1.980469,1.546875 -0.117187,0.046875 -0.808594,0.28125 -0.808594,0.5273437 0,0.058594 0.07031,0.070312 0.105469,0.070312 0.03516,0 0.257813,-0.035156 0.46875,-0.035156 1.007813,0 1.828125,0.5976562 1.828125,1.546875 0,1.23046875 -1.054687,1.62890625 -1.96875,1.62890625 -0.761719,0 -1.125,-0.421875 -1.265625,-0.5625 -0.03516,-0.046875 -0.04687,-0.0703125 -0.128906,-0.0703125 -0.210938,0 -0.726563,0.31640625 -0.726563,0.4921875 0,0.0351563 0.398438,0.69140625 1.464844,0.69140625 1.40625,0 3.46875,-0.99609375 3.46875,-2.6015625 0,-0.84375 -0.550781,-1.4648438 -1.570312,-1.6523438 0.796875,-0.3398437 1.957031,-1.0546875 1.957031,-1.9921875 0,-0.5859375 -0.480469,-1.0078125 -1.207031,-1.0078125 -0.339844,0 -1.617188,0.09375 -2.824219,1.5820313 z m 0,0"
       style="fill:#000000;fill-opacity:1;fill-rule:nonzero;stroke:none"
       aria-label="A→B"
       transform="matrix(1.3333333,0,0,1.3333333,200.896,52.048)" />
    <path
       id="path4"
       d="M -56.69362,-155.90749 H 0 v 28.34679 h -56.69362 z"
       style="fill:none;stroke:#000000;stroke-width:0.3985;stroke-linecap:butt;stroke-linejoin:miter;stroke-miterlimit:10;stroke-dasharray:none;stroke-opacity:1"
       transform="matrix(1.3333333,0,0,-1.3333333,221.09467,47.509333)" />
    <path
       id="path5"
       d="m 2.2265703,-3.5141797 v -2.578125 c 0,-0.234375 0,-0.3515625 0.2226563,-0.3867187 0.1054687,-0.011719 0.3867187,-0.011719 0.5859375,-0.011719 0.9023437,0 2.015625,0.035156 2.015625,1.4765625 0,0.6914063 -0.234375,1.5 -1.7109375,1.5 z m 2.109375,0.1289063 c 0.9609375,-0.234375 1.7460938,-0.84375 1.7460938,-1.6289063 0,-0.9492187 -1.1367188,-1.7929687 -2.6015625,-1.7929687 H 0.35157031 v 0.3164062 h 0.234375 c 0.77343749,0 0.78515629,0.1054688 0.78515629,0.46875 v 5.25000001 c 0,0.3515625 -0.011719,0.46875 -0.78515629,0.46875 h -0.234375 v 0.3046875 c 0.3515625,-0.03515625 1.06640629,-0.03515625 1.45312499,-0.03515625 0.3867188,0 1.0898438,0 1.453125,0.03515625 v -0.3046875 h -0.234375 c -0.7734375,0 -0.796875,-0.1171875 -0.796875,-0.46875 V -3.2915234 h 1.1484375 c 0.1640625,0 0.5742188,0 0.9257813,0.3398437 0.3867187,0.3515625 0.3867187,0.65625 0.3867187,1.3242188 0,0.65624996 0,1.05468746 0.3984375,1.42968746 0.4101563,0.36328125 0.9609375,0.421875 1.2539063,0.421875 0.7851562,0 0.9492187,-0.8203125 0.9492187,-1.1015625 0,-0.0585938 0,-0.16406246 -0.1289062,-0.16406246 -0.1054688,0 -0.1054688,0.0820312 -0.1171875,0.15234371 -0.058594,0.71484375 -0.4101563,0.890625 -0.65625,0.890625 -0.4921875,0 -0.5742188,-0.50390625 -0.703125,-1.42968751 l -0.140625,-0.796875 C 5.3671953,-2.8696484 4.8867266,-3.1977734 4.3359453,-3.3852734 Z m 4.1103516,0.8789062 c 0.058594,-1.4882812 0.9023437,-1.734375 1.2421875,-1.734375 1.0195316,0 1.1249996,1.3476563 1.1249996,1.734375 z m -0.011719,0.2109375 h 2.7890631 c 0.210937,0 0.246093,0 0.246093,-0.2109375 0,-0.984375 -0.539062,-1.9570312 -1.7812498,-1.9570312 -1.1601563,0 -2.0742188,1.03125 -2.0742188,2.2734375 0,1.33593746 1.0429688,2.29687496 2.1914063,2.29687496 1.2187503,0 1.6640623,-1.1015625 1.6640623,-1.28906246 0,-0.1054688 -0.08203,-0.1171875 -0.128906,-0.1171875 -0.09375,0 -0.117187,0.058594 -0.128906,0.140625 -0.351563,1.01953121 -1.2539066,1.01953121 -1.3476566,1.01953121 -0.5039062,0 -0.9023437,-0.29296875 -1.125,-0.66796875 C 8.4345781,-1.2876172 8.4345781,-1.9438672 8.4345779,-2.2954297 Z m 5.5400391,0.5859375 c -0.867187,0 -0.867187,-0.9960937 -0.867187,-1.2304687 0,-0.2695313 0.01172,-0.5859375 0.152343,-0.8320313 0.08203,-0.1171875 0.316407,-0.3984375 0.714844,-0.3984375 0.867188,0 0.867188,0.9960938 0.867188,1.21875 0,0.2695313 -0.01172,0.5976563 -0.164063,0.84375 -0.08203,0.1171875 -0.304687,0.3984375 -0.703125,0.3984375 z m -1.160156,0.3867188 c 0,-0.035156 0,-0.2695313 0.175781,-0.46875 0.386719,0.28125 0.796875,0.3046875 0.984375,0.3046875 0.925781,0 1.605469,-0.6796875 1.605469,-1.453125 0,-0.3632813 -0.152344,-0.7382813 -0.398438,-0.9609375 0.351563,-0.3398438 0.714844,-0.3867188 0.890625,-0.3867188 0.02344,0 0.07031,0 0.105469,0 -0.117187,0.046875 -0.164062,0.1523438 -0.164062,0.2695313 0,0.1757812 0.128906,0.2929687 0.292968,0.2929687 0.09375,0 0.28125,-0.070312 0.28125,-0.2929687 0,-0.1757813 -0.117187,-0.4921875 -0.503906,-0.4921875 -0.199219,0 -0.632812,0.058594 -1.054687,0.46875 -0.421875,-0.328125 -0.84375,-0.3632813 -1.054688,-0.3632813 -0.925781,0 -1.617187,0.6914063 -1.617187,1.453125 0,0.4453125 0.222656,0.8203125 0.46875,1.03125 -0.128907,0.1523438 -0.304688,0.4804688 -0.304688,0.8203125 0,0.31640626 0.128906,0.69140626 0.433594,0.89062501 -0.597656,0.17578125 -0.914063,0.59765625 -0.914063,0.99609375 0,0.71484374 0.984375,1.26562504 2.203125,1.26562504 1.171875,0 2.203125,-0.5039063 2.203125,-1.28906254 0,-0.33984375 -0.140625,-0.85546875 -0.644531,-1.125 -0.527344,-0.28125 -1.101562,-0.28125 -1.710937,-0.28125 -0.246094,0 -0.679688,0 -0.75,-0.0117188 -0.316407,-0.046875 -0.527344,-0.35156246 -0.527344,-0.66796866 z m 1.441406,3.1523437 c -1.007812,0 -1.699219,-0.515625 -1.699219,-1.04296874 0,-0.45703125 0.375,-0.8203125 0.820313,-0.85546875 h 0.585937 c 0.855469,0 1.96875,0 1.96875,0.85546875 0,0.53906254 -0.703125,1.04296874 -1.675781,1.04296874 z m 6.37793,-2.61328124 v 0.890625 l 1.441406,-0.10546875 v -0.3046875 c -0.703125,0 -0.785156,-0.0703125 -0.785156,-0.5625 V -4.4048047 l -1.453125,0.1171875 v 0.3046875 c 0.691406,0 0.773437,0.070312 0.773437,0.5625 v 1.7695313 c 0,0.86718746 -0.480468,1.54687496 -1.207031,1.54687496 -0.832031,0 -0.878906,-0.46875 -0.878906,-0.99609376 v -3.3046875 l -1.464844,0.1171875 v 0.3046875 c 0.785156,0 0.785156,0.035156 0.785156,0.9140625 v 1.5 c 0,0.77343751 0,1.67578126 1.511719,1.67578126 0.550781,0 0.996094,-0.26953125 1.277344,-0.890625 z m 3.401367,-6.12890626 -1.429687,0.1054688 v 0.3164062 c 0.703125,0 0.773437,0.070312 0.773437,0.5507813 v 5.17968746 c 0,0.45703125 -0.105469,0.45703125 -0.773437,0.45703125 v 0.3046875 c 0.328125,-0.01171875 0.855468,-0.03515625 1.101562,-0.03515625 0.257813,0 0.738281,0.0234375 1.113281,0.03515625 v -0.3046875 c -0.667968,0 -0.785156,0 -0.785156,-0.45703125 z m 4.327149,6.15234376 c 0.03516,0.3984375 0.304687,0.8203125 0.773437,0.8203125 0.210938,0 0.820313,-0.140625 0.820313,-0.94921875 V -1.4399609 h -0.246094 v 0.55078121 c 0,0.5859375 -0.246094,0.64453125 -0.363281,0.64453125 -0.328125,0 -0.363282,-0.45703125 -0.363282,-0.50390625 V -2.7407422 c 0,-0.4101562 0,-0.8085937 -0.363281,-1.171875 -0.386719,-0.3867187 -0.878906,-0.5507812 -1.359375,-0.5507812 -0.820312,0 -1.511719,0.46875 -1.511719,1.125 0,0.3046875 0.199219,0.46875 0.457032,0.46875 0.28125,0 0.46875,-0.1992188 0.46875,-0.4570313 0,-0.1171875 -0.05859,-0.4453125 -0.515625,-0.4570312 0.269531,-0.3515625 0.761718,-0.4570313 1.078125,-0.4570313 0.492187,0 1.054687,0.3867188 1.054687,1.2773438 v 0.3632812 c -0.503906,0.035156 -1.207031,0.058594 -1.828125,0.3632813 -0.75,0.3398437 -0.996094,0.8554687 -0.996094,1.28906246 0,0.80859375 0.960938,1.0546875 1.59375,1.0546875 0.65625,0 1.113282,-0.3984375 1.300782,-0.8671875 z M 28.292,-2.3891797 v 0.9960938 c 0,0.94921871 -0.714844,1.28906246 -1.160156,1.28906246 -0.492188,0 -0.902344,-0.3515625 -0.902344,-0.85546875 0,-0.53906251 0.421875,-1.37109371 2.0625,-1.42968751 z m 3.457031,-1.59375 h 1.429688 v -0.3046875 h -1.429688 v -1.8398437 h -0.246093 c -0.01172,0.8203125 -0.316407,1.8867187 -1.289063,1.921875 v 0.2226562 h 0.84375 v 2.7539063 c 0,1.21874996 0.925781,1.33593746 1.289063,1.33593746 0.703125,0 0.984375,-0.703125 0.984375,-1.33593746 v -0.5742188 h -0.246094 v 0.5507813 c 0,0.73828121 -0.304688,1.11328121 -0.667969,1.11328121 -0.667969,0 -0.667969,-0.90234371 -0.667969,-1.07812501 z m 6.837891,1.8515625 c 0,-1.2773437 -0.996094,-2.3320312 -2.191406,-2.3320312 -1.253907,0 -2.214844,1.0898437 -2.214844,2.3320312 0,1.28906251 1.03125,2.23828126 2.203125,2.23828126 1.207031,0 2.203125,-0.97265625 2.203125,-2.23828126 z m -2.191406,1.99218751 c -0.433594,0 -0.867188,-0.2109375 -1.136719,-0.66796875 -0.257813,-0.43359376 -0.257813,-1.04296876 -0.257813,-1.40624996 0,-0.3867188 0,-0.9257813 0.246094,-1.359375 0.269531,-0.4570313 0.738281,-0.6679688 1.136719,-0.6679688 0.433594,0 0.867187,0.2226563 1.125,0.6445313 0.257812,0.4335937 0.257812,1.0078125 0.257812,1.3828125 0,0.3632812 0,0.9023437 -0.222656,1.33593746 -0.222656,0.4453125 -0.65625,0.73828125 -1.148437,0.73828125 z m 4.151367,-3.16406251 v -1.1015625 l -1.382813,0.1171875 v 0.3046875 c 0.691407,0 0.773438,0.070312 0.773438,0.5625 v 2.66015626 c 0,0.45703125 -0.105469,0.45703125 -0.773438,0.45703125 v 0.3046875 c 0.386719,-0.01171875 0.855469,-0.03515625 1.136719,-0.03515625 0.398438,0 0.867188,0 1.265625,0.03515625 v -0.3046875 h -0.210937 c -0.738282,0 -0.761719,-0.1171875 -0.761719,-0.46875 V -2.3071484 c 0,-0.984375 0.421875,-1.875 1.183594,-1.875 0.05859,0 0.08203,0 0.105468,0.011719 -0.03516,0.011719 -0.234375,0.1289063 -0.234375,0.3867188 0,0.28125 0.210938,0.4335937 0.433594,0.4335937 0.175781,0 0.421875,-0.1289062 0.421875,-0.4453125 0,-0.3164062 -0.304687,-0.609375 -0.726562,-0.609375 -0.738282,0 -1.089844,0.6679688 -1.230469,1.1015622 z m 0,0"
       style="fill:#000000;fill-opacity:1;fill-rule:nonzero;stroke:none"
       aria-label="Regulator"
       transform="matrix(1.3333333,0,0,1.3333333,154.77733,239.80667)" />
    <path
       id="path6"
       d="m 0,-113.38725 h 56.69362 v 28.34679 H 0 Z"
       style="fill:none;stroke:#000000;stroke-width:0.3985;stroke-linecap:butt;stroke-linejoin:miter;stroke-miterlimit:10;stroke-dasharray:none;stroke-opacity:1"
       transform="matrix(1.3333333,0,0,-1.3333333,221.09467,47.509333)" />
    <path
       id="path7"
       d="m 7.1838047,-3.3743125 c 0,-2.0390625 -1.5,-3.6445312 -3.3164063,-3.6445312 -1.78125,0 -3.30468746,1.59375 -3.30468746,3.6445312 0,2.0390625 1.53515626,3.59765625 3.30468746,3.59765625 1.8164063,0 3.3164063,-1.58203125 3.3164063,-3.59765625 z m -3.3046875,3.33984375 c -0.9609375,0 -2.296875,-0.87890625 -2.296875,-3.48046875 0,-2.578125 1.453125,-3.2578125 2.2851562,-3.2578125 0.8671875,0 2.2851563,0.703125 2.2851563,3.2578125 0,2.63671875 -1.359375,3.48046875 -2.2734375,3.48046875 z M 9.4601719,-3.7493125 V -6.913375 L 8.0304844,-6.8079062 V -6.4915 c 0.6914062,0 0.7734375,0.070312 0.7734375,0.5507813 V 6.875e-4 h 0.2460937 c 0.011719,-0.01171875 0.09375,-0.15234375 0.3632813,-0.62109375 0.1523437,0.234375 0.5625,0.7265625 1.3007811,0.7265625 1.183594,0 2.226563,-0.97265625 2.226563,-2.26171875 0,-1.265625 -0.972657,-2.25 -2.109375,-2.25 -0.785157,0 -1.2070316,0.46875 -1.3710941,0.65625 z m 0.035156,2.6132813 v -2.0507813 c 0,-0.1875 0,-0.1992187 0.1054688,-0.3632812 0.3867187,-0.5507813 0.9375003,-0.6328125 1.1718753,-0.6328125 0.457031,0 0.808594,0.2578125 1.054687,0.6328125 0.257813,0.4101562 0.28125,0.984375 0.28125,1.3945312 0,0.3632813 -0.01172,0.9609375 -0.304687,1.40625 -0.210938,0.31640625 -0.585938,0.64453125 -1.125,0.64453125 -0.445313,0 -0.8085941,-0.24609375 -1.0429691,-0.609375 C 9.4953281,-0.92509375 9.4953281,-0.96025 9.4953279,-1.1360312 Z m 5.8623051,-0.796875 c 0.222656,0.035156 1.03125,0.1992187 1.03125,0.9140625 0,0.51562495 -0.351563,0.91406245 -1.125,0.91406245 -0.832031,0 -1.195313,-0.57421875 -1.382813,-1.41796875 -0.03516,-0.1289062 -0.03516,-0.1757812 -0.140625,-0.1757812 -0.128906,0 -0.128906,0.070312 -0.128906,0.2578125 v 1.31249995 c 0,0.1640625 0,0.234375 0.105469,0.234375 0.05859,0 0.07031,0 0.257812,-0.19921875 0.01172,-0.01171875 0.01172,-0.03515625 0.199219,-0.22265625 0.433594,0.421875 0.878906,0.421875 1.089844,0.421875 1.148437,0 1.605469,-0.66796875 1.605469,-1.38281245 0,-0.5273438 -0.292969,-0.8203125 -0.421875,-0.9492188 -0.328125,-0.3164062 -0.714844,-0.3984375 -1.136719,-0.46875 -0.550781,-0.1171875 -1.21875,-0.2460937 -1.21875,-0.8203125 0,-0.3515625 0.257812,-0.7617187 1.113281,-0.7617187 1.101563,0 1.148438,0.9023437 1.171875,1.2070312 0,0.09375 0.09375,0.09375 0.117188,0.09375 0.128906,0 0.128906,-0.046875 0.128906,-0.2460937 v -0.9960938 c 0,-0.1757812 0,-0.2460937 -0.117188,-0.2460937 -0.04687,0 -0.07031,0 -0.199218,0.1171875 -0.02344,0.046875 -0.128907,0.1289062 -0.164063,0.1640625 -0.375,-0.28125 -0.785156,-0.28125 -0.9375,-0.28125 -1.21875,0 -1.59375,0.6679687 -1.59375,1.2304687 0,0.3398438 0.164063,0.6210938 0.433594,0.84375 0.316406,0.2578125 0.597656,0.3164063 1.3125,0.4570313 z M 18.325406,-2.507125 C 18.384,-3.9954062 19.22775,-4.2415 19.567594,-4.2415 c 1.019531,0 1.125,1.3476563 1.125,1.734375 z m -0.01172,0.2109375 h 2.789063 c 0.210937,0 0.246094,0 0.246094,-0.2109375 0,-0.984375 -0.539063,-1.9570312 -1.78125,-1.9570312 -1.160157,0 -2.074219,1.03125 -2.074219,2.2734375 0,1.33593745 1.042969,2.29687495 2.191406,2.29687495 1.21875,0 1.664063,-1.1015625 1.664063,-1.28906245 0,-0.1054688 -0.08203,-0.1171875 -0.128907,-0.1171875 -0.09375,0 -0.117187,0.058594 -0.128906,0.140625 -0.351562,1.0195312 -1.253906,1.0195312 -1.347656,1.0195312 -0.503906,0 -0.902344,-0.29296875 -1.125,-0.66796875 C 18.313687,-1.288375 18.313687,-1.944625 18.313687,-2.2961875 Z M 23.305875,-3.304 v -1.1015625 l -1.382813,0.1171875 v 0.3046875 c 0.691407,0 0.773438,0.070312 0.773438,0.5625 v 2.66015625 C 22.6965,-0.304 22.591031,-0.304 21.923062,-0.304 V 6.875e-4 c 0.386719,-0.01171875 0.855469,-0.03515625 1.136719,-0.03515625 0.398438,0 0.867188,0 1.265625,0.03515625 V -0.304 h -0.210937 c -0.738282,0 -0.761719,-0.1171875 -0.761719,-0.46875 v -1.5351562 c 0,-0.984375 0.421875,-1.875 1.183594,-1.875 0.05859,0 0.08203,0 0.105468,0.011719 -0.03516,0.011719 -0.234375,0.1289063 -0.234375,0.3867188 0,0.28125 0.210938,0.4335937 0.433594,0.4335937 0.175781,0 0.421875,-0.1289062 0.421875,-0.4453125 0,-0.3164062 -0.304687,-0.609375 -0.726562,-0.609375 -0.738282,0 -1.089844,0.6679688 -1.230469,1.1015622 z m 6.386719,-0.011719 c 0.08203,-0.234375 0.257812,-0.65625 0.914062,-0.6679688 V -4.288375 c -0.234375,0.011719 -0.515625,0.023437 -0.75,0.023437 -0.234375,0 -0.691406,-0.023437 -0.867187,-0.023437 v 0.3046875 c 0.375,0.011719 0.480468,0.234375 0.480468,0.4335938 0,0.082031 -0.02344,0.1289062 -0.05859,0.234375 L 28.391812,-0.77275 27.278531,-3.5500937 c -0.05859,-0.140625 -0.05859,-0.1523438 -0.05859,-0.1757813 0,-0.2578125 0.386719,-0.2578125 0.5625,-0.2578125 V -4.288375 c -0.292968,0 -0.855468,0.023437 -1.078125,0.023437 -0.269531,0 -0.667968,-0.011719 -0.972656,-0.023437 v 0.3046875 c 0.632813,0 0.667969,0.058594 0.796875,0.3632813 l 1.441406,3.53906245 c 0.05859,0.140625 0.07031,0.1875 0.199219,0.1875 0.128906,0 0.175781,-0.08203125 0.210938,-0.1875 z m 1.942383,0.8085937 c 0.05859,-1.4882812 0.902343,-1.734375 1.242187,-1.734375 1.019531,0 1.125,1.3476563 1.125,1.734375 z m -0.01172,0.2109375 h 2.789062 c 0.210938,0 0.246094,0 0.246094,-0.2109375 0,-0.984375 -0.539062,-1.9570312 -1.78125,-1.9570312 -1.160156,0 -2.074219,1.03125 -2.074219,2.2734375 0,1.33593745 1.042969,2.29687495 2.191407,2.29687495 1.21875,0 1.664062,-1.1015625 1.664062,-1.28906245 0,-0.1054688 -0.08203,-0.1171875 -0.128906,-0.1171875 -0.09375,0 -0.117188,0.058594 -0.128906,0.140625 -0.351563,1.0195312 -1.253907,1.0195312 -1.347657,1.0195312 -0.503906,0 -0.902343,-0.29296875 -1.125,-0.66796875 C 31.623258,-1.288375 31.623258,-1.944625 31.623258,-2.2961875 Z M 36.612516,-3.304 v -1.1015625 l -1.382813,0.1171875 v 0.3046875 c 0.691406,0 0.773438,0.070312 0.773438,0.5625 v 2.66015625 C 36.003141,-0.304 35.897672,-0.304 35.229703,-0.304 V 6.875e-4 c 0.386719,-0.01171875 0.855469,-0.03515625 1.136719,-0.03515625 0.398437,0 0.867187,0 1.265625,0.03515625 V -0.304 h -0.210938 c -0.738281,0 -0.761718,-0.1171875 -0.761718,-0.46875 v -1.5351562 c 0,-0.984375 0.421875,-1.875 1.183593,-1.875 0.05859,0 0.08203,0 0.105469,0.011719 -0.03516,0.011719 -0.234375,0.1289063 -0.234375,0.3867188 0,0.28125 0.210938,0.4335937 0.433594,0.4335937 0.175781,0 0.421875,-0.1289062 0.421875,-0.4453125 0,-0.3164062 -0.304688,-0.609375 -0.726563,-0.609375 -0.738281,0 -1.089843,0.6679688 -1.230468,1.1015622 z m 0,0"
       style="fill:#000000;fill-opacity:1;fill-rule:nonzero;stroke:none"
       aria-label="Observer"
       transform="matrix(1.3333333,0,0,1.3333333,232.988,184.40533)" />
    <path
       id="path8"
       d="m 146.4304,0 c 0,2.59372 -2.10258,4.6963 -4.69631,4.6963 -2.59374,0 -4.69632,-2.10258 -4.69632,-4.6963 0,-2.59372 2.10258,-4.6963 4.69632,-4.6963 2.59373,0 4.69631,2.10258 4.69631,4.6963 z"
       style="fill:none;stroke:#000000;stroke-width:0.3985;stroke-linecap:butt;stroke-linejoin:miter;stroke-miterlimit:10;stroke-dasharray:none;stroke-opacity:1"
       transform="matrix(1.3333333,0,0,-1.3333333,221.09467,47.509333)" />
    <path
       id="path9"
       d="m -137.03777,0 c 0,2.59372 -2.10258,4.6963 -4.69632,4.6963 -2.59373,0 -4.69631,-2.10258 -4.69631,-4.6963 0,-2.59372 2.10258,-4.6963 4.69631,-4.6963 2.59374,0 4.69632,2.10258 4.69632,4.6963 z"
       style="fill:none;stroke:#000000;stroke-width:0.3985;stroke-linecap:butt;stroke-linejoin:miter;stroke-miterlimit:10;stroke-dasharray:none;stroke-opacity:1"
       transform="matrix(1.3333333,0,0,-1.3333333,221.09467,47.509333)" />
    <path
       id="path10"
       d="m -94.51752,-141.73409 c 0,2.59374 -2.10258,4.69632 -4.69632,4.69632 -2.59373,0 -4.69632,-2.10258 -4.69632,-4.69632 0,-2.59373 2.10259,-4.69631 4.69632,-4.69631 2.59374,0 4.69632,2.10258 4.69632,4.69631 z"
       style="fill:none;stroke:#000000;stroke-width:0.3985;stroke-linecap:butt;stroke-linejoin:miter;stroke-miterlimit:10;stroke-dasharray:none;stroke-opacity:1"
       transform="matrix(1.3333333,0,0,-1.3333333,221.09467,47.509333)" />
    <path
       id="path11"
       d="m -54.92194,0 c 0,0.97847 -0.79319,1.77167 -1.77168,1.77167 -0.97847,0 -1.77167,-0.7932 -1.77167,-1.77167 0,-0.97847 0.7932,-1.77167 1.77167,-1.77167 0.97849,0 1.77168,0.7932 1.77168,1.77167 z"
       style="fill:#000000;fill-opacity:1;fill-rule:nonzero;stroke:#000000;stroke-width:0.3985;stroke-linecap:butt;stroke-linejoin:miter;stroke-miterlimit:10;stroke-dasharray:none;stroke-opacity:1"
       transform="matrix(1.3333333,0,0,-1.3333333,221.09467,47.509333)" />
    <path
       id="path12"
       d="m 45.95352,0 c 0,0.97847 -0.7932,1.77167 -1.77167,1.77167 -0.97848,0 -1.77166,-0.7932 -1.77166,-1.77167 0,-0.97847 0.79318,-1.77167 1.77166,-1.77167 0.97847,0 1.77167,0.7932 1.77167,1.77167 z"
       style="fill:#000000;fill-opacity:1;fill-rule:nonzero;stroke:#000000;stroke-width:0.3985;stroke-linecap:butt;stroke-linejoin:miter;stroke-miterlimit:10;stroke-dasharray:none;stroke-opacity:1"
       transform="matrix(1.3333333,0,0,-1.3333333,221.09467,47.509333)" />
    <path
       id="path13"
       d="m 74.30032,0 c 0,0.97847 -0.79318,1.77167 -1.77166,1.77167 -0.97847,0 -1.77167,-0.7932 -1.77167,-1.77167 0,-0.97847 0.7932,-1.77167 1.77167,-1.77167 0.97848,0 1.77166,0.7932 1.77166,1.77167 z"
       style="fill:#000000;fill-opacity:1;fill-rule:nonzero;stroke:#000000;stroke-width:0.3985;stroke-linecap:butt;stroke-linejoin:miter;stroke-miterlimit:10;stroke-dasharray:none;stroke-opacity:1"
       transform="matrix(1.3333333,0,0,-1.3333333,221.09467,47.509333)" />
    <path
       id="path14"
       d="m -83.26875,0 c 0,0.97847 -0.7932,1.77167 -1.77167,1.77167 -0.97847,0 -1.77167,-0.7932 -1.77167,-1.77167 0,-0.97847 0.7932,-1.77167 1.77167,-1.77167 0.97847,0 1.77167,0.7932 1.77167,1.77167 z"
       style="fill:#000000;fill-opacity:1;fill-rule:nonzero;stroke:#000000;stroke-width:0.3985;stroke-linecap:butt;stroke-linejoin:miter;stroke-miterlimit:10;stroke-dasharray:none;stroke-opacity:1"
       transform="matrix(1.3333333,0,0,-1.3333333,221.09467,47.509333)" />
    <path
       id="path15"
       d="M -56.69362,14.17339 V -18.42525"
       style="fill:none;stroke:#000000;stroke-width:0.79701;stroke-linecap:butt;stroke-linejoin:miter;stroke-miterlimit:10;stroke-dasharray:0.79701, 1.99255;stroke-dashoffset:0;stroke-opacity:1"
       transform="matrix(1.3333333,0,0,-1.3333333,221.09467,47.509333)" />
    <g
       id="g15"
       aria-label="ζ=0"
       transform="matrix(1.3333333,0,0,1.3333333,129.932,82.48)">
      <path
         id="path16"
         d="m 3.2238516,-5.7652734 c 0.1875,0.1757812 0.4101562,0.1757812 0.609375,0.1757812 0.2578125,0 0.890625,0 0.890625,-0.3046875 0,-0.2460937 -0.3984375,-0.2695312 -0.796875,-0.2695312 -0.1054688,0 -0.375,0 -0.6328125,0.09375 -0.058594,-0.1171875 -0.070312,-0.1640625 -0.070312,-0.375 0,-0.140625 0.046875,-0.3515625 0.046875,-0.3632813 0,-0.082031 -0.046875,-0.1289062 -0.1171875,-0.1289062 -0.1875,0 -0.1875,0.4570312 -0.1875,0.4804687 0,0.1757813 0.035156,0.3515625 0.1171875,0.5039063 -1.0546875,0.5273437 -2.62500004,2.3554687 -2.62500004,4.2890625 0,1.40624996 0.90234374,1.69921871 1.62890624,1.94531246 0.2929688,0.10546875 0.3164063,0.10546875 0.609375,0.2109375 0.1992188,0.0703125 0.609375,0.2109375 0.609375,0.66796874 0,0.2695313 -0.1875,0.6679688 -0.5507812,0.6679688 -0.2578125,0 -0.5273438,-0.1289063 -0.7382813,-0.3046875 -0.070312,-0.058594 -0.082031,-0.070312 -0.1171875,-0.070312 -0.058594,0 -0.1054687,0.046875 -0.1054687,0.1054687 0,0.1054688 0.4335937,0.4804688 0.9609375,0.4804688 0.609375,0 1.078125,-0.6328125 1.078125,-1.20703129 0,-0.375 -0.1875,-0.5859375 -0.2695313,-0.66796875 -0.1640625,-0.1875 -0.3515625,-0.24609375 -0.9375,-0.4453125 -0.7968755,-0.26953175 -0.960938,-0.31640675 -1.195313,-0.52734425 -0.421875,-0.37500001 -0.421875,-0.94921871 -0.421875,-1.13671871 0,-1.546875 1.21875,-3.28125 2.2148438,-3.8203125 z m 0.234375,-0.1171875 c 0.1523437,-0.058594 0.328125,-0.058594 0.4570312,-0.058594 0.328125,0 0.375,0 0.5507813,0.058594 -0.082031,0.023437 -0.1757813,0.070312 -0.6210938,0.070312 -0.2109375,0 -0.28125,0 -0.3867187,-0.070312 z m 0,0"
         style="fill:#000000;fill-opacity:1;fill-rule:nonzero;stroke:none" />
      <path
         id="path17"
         d="m 14.705297,-3.2574609 c 0.152344,0 0.339844,0 0.339844,-0.1992188 0,-0.1992187 -0.1875,-0.1992187 -0.328125,-0.1992187 H 8.7521719 c -0.140625,0 -0.328125,0 -0.328125,0.1992187 0,0.1992188 0.1875,0.1992188 0.3398437,0.1992188 z m 0.01172,1.9335937 c 0.140625,0 0.328125,0 0.328125,-0.1992187 0,-0.1992188 -0.1875,-0.1992188 -0.339844,-0.1992188 H 8.7638906 c -0.1523437,0 -0.3398437,0 -0.3398437,0.1992188 0,0.1992187 0.1875,0.1992187 0.328125,0.1992187 z m 8.24414,-1.8632812 c 0,-0.796875 -0.04687,-1.59375 -0.398437,-2.3320313 -0.457032,-0.9609375 -1.277344,-1.1132812 -1.6875,-1.1132812 -0.597657,0 -1.335938,0.2578125 -1.734375,1.1835937 -0.328125,0.6914063 -0.375,1.4648438 -0.375,2.2617188 0,0.75 0.04687,1.640625 0.445312,2.40234371 0.433594,0.80859375 1.160156,1.0078125 1.652344,1.0078125 0.539062,0 1.289062,-0.2109375 1.734375,-1.16015625 0.316406,-0.69140626 0.363281,-1.46484376 0.363281,-2.24999996 z M 20.8635,3.515625e-4 c -0.386719,0 -0.984375,-0.2460937525 -1.160156,-1.2070312625 -0.105469,-0.5976562 -0.105469,-1.5117187 -0.105469,-2.0976562 0,-0.6445313 0,-1.3007813 0.08203,-1.8398438 0.1875,-1.1835937 0.925781,-1.265625 1.183594,-1.265625 0.328125,0 0.984375,0.1757813 1.171875,1.1601563 0.09375,0.5625 0.09375,1.3125 0.09375,1.9453125 0,0.75 0,1.4179687 -0.105469,2.0625 C 21.871312,-0.30433594 21.308812,3.515625e-4 20.8635,3.515625e-4 Z m 0,0"
         style="fill:#000000;fill-opacity:1;fill-rule:nonzero;stroke:none" />
    </g>
    <path
       id="path18"
       d="M 44.18185,14.17339 V -18.42525"
       style="fill:none;stroke:#000000;stroke-width:0.79701;stroke-linecap:butt;stroke-linejoin:miter;stroke-miterlimit:10;stroke-dasharray:0.79701, 1.99255;stroke-dashoffset:0;stroke-opacity:1"
       transform="matrix(1.3333333,0,0,-1.3333333,221.09467,47.509333)" />
    <g
       id="g18"
       aria-label="ζ=1"
       transform="matrix(1.3333333,0,0,1.3333333,264.43067,82.48)">
      <path
         id="path19"
         d="m 3.2219219,-5.7652734 c 0.1875,0.1757812 0.4101562,0.1757812 0.609375,0.1757812 0.2578125,0 0.890625,0 0.890625,-0.3046875 0,-0.2460937 -0.3984375,-0.2695312 -0.796875,-0.2695312 -0.1054688,0 -0.375,0 -0.6328125,0.09375 -0.058594,-0.1171875 -0.070312,-0.1640625 -0.070312,-0.375 0,-0.140625 0.046875,-0.3515625 0.046875,-0.3632813 0,-0.082031 -0.046875,-0.1289062 -0.1171875,-0.1289062 -0.1875,0 -0.1875,0.4570312 -0.1875,0.4804687 0,0.1757813 0.035156,0.3515625 0.1171875,0.5039063 -1.0546875,0.5273437 -2.62500003,2.3554687 -2.62500003,4.2890625 0,1.40624996 0.90234373,1.69921871 1.62890623,1.94531246 0.2929688,0.10546875 0.3164063,0.10546875 0.609375,0.2109375 0.1992188,0.0703125 0.609375,0.2109375 0.609375,0.66796874 0,0.2695313 -0.1875,0.6679688 -0.5507812,0.6679688 -0.2578125,0 -0.5273438,-0.1289063 -0.7382813,-0.3046875 -0.070313,-0.058594 -0.082031,-0.070312 -0.1171875,-0.070312 -0.058594,0 -0.1054687,0.046875 -0.1054687,0.1054687 0,0.1054688 0.4335937,0.4804688 0.9609375,0.4804688 0.609375,0 1.078125,-0.6328125 1.078125,-1.20703129 0,-0.375 -0.1875,-0.5859375 -0.2695313,-0.66796875 -0.1640625,-0.1875 -0.3515625,-0.24609375 -0.9375,-0.4453125 -0.7968755,-0.26953175 -0.960938,-0.31640675 -1.195313,-0.52734425 -0.421875,-0.37500001 -0.421875,-0.94921871 -0.421875,-1.13671871 0,-1.546875 1.21875,-3.28125 2.2148438,-3.8203125 z m 0.234375,-0.1171875 c 0.1523437,-0.058594 0.328125,-0.058594 0.4570312,-0.058594 0.328125,0 0.375,0 0.5507813,0.058594 -0.082031,0.023437 -0.1757813,0.070312 -0.6210938,0.070312 -0.2109375,0 -0.28125,0 -0.3867187,-0.070312 z m 0,0"
         style="fill:#000000;fill-opacity:1;fill-rule:nonzero;stroke:none" />
      <path
         id="path20"
         d="m 14.703367,-3.2574609 c 0.152344,0 0.339844,0 0.339844,-0.1992188 0,-0.1992187 -0.1875,-0.1992187 -0.328125,-0.1992187 H 8.7502422 c -0.140625,0 -0.328125,0 -0.328125,0.1992187 0,0.1992188 0.1875,0.1992188 0.3398437,0.1992188 z m 0.01172,1.9335937 c 0.140625,0 0.328125,0 0.328125,-0.1992187 0,-0.1992188 -0.1875,-0.1992188 -0.339844,-0.1992188 H 8.7619609 c -0.1523437,0 -0.3398437,0 -0.3398437,0.1992188 0,0.1992187 0.1875,0.1992187 0.328125,0.1992187 z m 6.594726,-5.0507812 c 0,-0.234375 0,-0.2578125 -0.234375,-0.2578125 -0.609375,0.6328125 -1.488281,0.6328125 -1.804687,0.6328125 v 0.3164062 c 0.199219,0 0.785156,0 1.300781,-0.2578125 v 5.15625001 c 0,0.3515625 -0.03516,0.48046875 -0.925781,0.48046875 H 19.329344 V 3.515625e-4 C 19.680906,-0.03480469 20.536375,-0.03480469 20.934812,-0.03480469 c 0.398438,0 1.265625,0 1.617188,0.0351562525 V -0.30433594 h -0.316406 c -0.902344,0 -0.925782,-0.1171875 -0.925782,-0.48046875 z m 0,0"
         style="fill:#000000;fill-opacity:1;fill-rule:nonzero;stroke:none" />
    </g>
    <g
       id="g20"
       aria-label="Rx(1,t−τ)"
       transform="matrix(1.3333333,0,0,1.3333333,104.844,111.29867)">
      <path
         id="path21"
         d="m 3.7380937,-6.1185312 c 0.058594,-0.234375 0.082031,-0.3398438 0.28125,-0.3632813 0.082031,-0.011719 0.3984375,-0.011719 0.5976563,-0.011719 0.7148437,0 1.8164062,0 1.8164062,0.984375 0,0.3398437 -0.1523437,1.0195312 -0.5507812,1.4179687 C 5.6248125,-3.8333753 5.0974687,-3.516969 4.2068437,-3.516969 H 3.0935625 Z m 1.4296875,2.7304687 c 1.0078125,-0.2226562 2.1914063,-0.9140625 2.1914063,-1.921875 0,-0.8554687 -0.890625,-1.5 -2.203125,-1.5 H 2.320125 c -0.1992188,0 -0.2929688,0 -0.2929688,0.1992188 0,0.1171875 0.09375,0.1171875 0.28125,0.1171875 0.023437,0 0.2109375,0 0.3867188,0.011719 0.1757812,0.023437 0.2578125,0.035156 0.2578125,0.1640625 0,0.035156 0,0.070312 -0.035156,0.1875 L 1.581844,-0.77478095 c -0.09375,0.38671875 -0.1171875,0.46875 -0.9023437,0.46875 -0.17578125,0 -0.26953125,0 -0.26953125,0.19921875 0,0.10546875 0.1171875,0.10546875 0.140625,0.10546875 0.28125,0 0.97265625,-0.03515625 1.25390625,-0.03515625 0.28125,0 0.984375,0.03515625 1.265625,0.03515625 0.082031,0 0.1992187,0 0.1992187,-0.19921875 0,-0.10546875 -0.09375,-0.10546875 -0.28125,-0.10546875 -0.3632812,0 -0.6445312,0 -0.6445312,-0.1875 0,-0.0585938 0.011719,-0.10546875 0.023437,-0.1640625 L 3.02325,-3.2943125 h 1.1953125 c 0.9023437,0 1.078125,0.5507813 1.078125,0.9023438 0,0.1523437 -0.082031,0.4570312 -0.140625,0.6914062 -0.070312,0.2695313 -0.1523438,0.6445313 -0.1523438,0.84375 0,1.078125 1.1953125,1.078125 1.3242188,1.078125 0.84375,0 1.1953125,-1.0078125 1.1953125,-1.1484375 0,-0.1171875 -0.1171875,-0.1171875 -0.1171875,-0.1171875 -0.09375,0 -0.1171875,0.0703125 -0.1289063,0.140625 -0.2578125,0.73828125 -0.6796875,0.90234375 -0.9140625,0.90234375 -0.328125,0 -0.3984375,-0.22265625 -0.3984375,-0.609375 0,-0.3046875 0.058594,-0.82031245 0.1054688,-1.13671875 0.011719,-0.140625 0.035156,-0.328125 0.035156,-0.46875 0,-0.7617187 -0.6679687,-1.078125 -0.9374998,-1.171875 z m 7.4589848,0.375 c 0.05859,-0.2578125 0.292968,-1.171875 0.984375,-1.171875 0.04687,0 0.292968,0 0.503906,0.1289063 -0.28125,0.046875 -0.480469,0.3046875 -0.480469,0.5390625 0,0.1640625 0.105469,0.3515625 0.375,0.3515625 0.222656,0 0.539063,-0.1875 0.539063,-0.5859375 0,-0.515625 -0.585938,-0.65625 -0.925782,-0.65625 -0.574218,0 -0.925781,0.5273437 -1.042968,0.7617187 -0.257813,-0.65625 -0.785157,-0.7617187 -1.078125,-0.7617187 -1.042969,0 -1.6054691,1.2890625 -1.6054691,1.5351562 0,0.1054688 0.1054691,0.1054688 0.1171871,0.1054688 0.08203,0 0.117188,-0.023437 0.128907,-0.1171875 0.339843,-1.0546875 0.996093,-1.3007813 1.335937,-1.3007813 0.1875,0 0.539063,0.09375 0.539063,0.6679688 0,0.3046875 -0.164063,0.9726562 -0.539063,2.3671875 -0.152344,0.6210937 -0.503906,1.0429687 -0.949219,1.0429687 -0.05859,0 -0.28125,0 -0.492187,-0.12890625 0.246094,-0.0585937 0.46875,-0.26953125 0.46875,-0.5390625 0,-0.26953125 -0.222656,-0.35156245 -0.375,-0.35156245 -0.2929689,0 -0.5390626,0.25781245 -0.5390626,0.5742187 0,0.45703125 0.4921876,0.65625 0.9374996,0.65625 0.65625,0 1.007813,-0.69140625 1.042969,-0.75 0.117188,0.36328125 0.480469,0.75 1.078125,0.75 1.019531,0 1.59375,-1.2773437 1.59375,-1.5351562 0,-0.09375 -0.09375,-0.09375 -0.128906,-0.09375 -0.08203,0 -0.105469,0.035156 -0.128906,0.1054687 -0.328125,1.06640625 -0.996094,1.3125 -1.324219,1.3125 -0.386719,0 -0.539063,-0.328125 -0.539063,-0.65625 0,-0.22265625 0.05859,-0.4453125 0.164063,-0.8789062 z m 0,0"
         style="fill:#000000;fill-opacity:1;fill-rule:nonzero;stroke:none" />
      <path
         id="path22"
         d="m 18.286922,2.3892813 c 0,-0.035156 0,-0.046875 -0.164063,-0.2226563 -1.242187,-1.25390625 -1.570312,-3.12890625 -1.570312,-4.6640625 0,-1.7226562 0.386719,-3.4570312 1.605469,-4.7109375 0.128906,-0.1171875 0.128906,-0.1289062 0.128906,-0.1640625 0,-0.070312 -0.03516,-0.1054687 -0.09375,-0.1054687 -0.105469,0 -0.996094,0.6796875 -1.582031,1.9453125 -0.515625,1.1015625 -0.632813,2.203125 -0.632813,3.0351562 0,0.7851563 0.117188,1.9921875 0.65625,3.1171875 0.597656,1.21875 1.453125,1.875 1.558594,1.875 0.05859,0 0.09375,-0.035156 0.09375,-0.1054687 z m 3.512695,-8.765625 c 0,-0.234375 0,-0.2578125 -0.234375,-0.2578125 -0.609375,0.6328125 -1.488281,0.6328125 -1.804687,0.6328125 v 0.3164062 c 0.199218,0 0.785156,0 1.300781,-0.2578125 v 5.15625 c 0,0.3515625 -0.03516,0.48046875 -0.925781,0.48046875 h -0.316407 v 0.3046875 C 20.170711,-0.0365 21.02618,-0.0365 21.424617,-0.0365 c 0.398438,0 1.265625,0 1.617188,0.03515625 v -0.3046875 h -0.316407 c -0.902343,0 -0.925781,-0.1171875 -0.925781,-0.48046875 z m 0,0"
         style="fill:#000000;fill-opacity:1;fill-rule:nonzero;stroke:none" />
      <path
         id="path23"
         d="m 25.877742,-0.0130625 c 0,-0.65625 -0.257812,-1.0429687 -0.644531,-1.0429687 -0.328125,0 -0.527344,0.2460937 -0.527344,0.5273437 0,0.26953125 0.199219,0.52734375 0.527344,0.52734375 0.117187,0 0.246094,-0.03515625 0.351562,-0.12890625 0.02344,-0.0234375 0.03516,-0.0351563 0.04687,-0.0351563 0.01172,0 0.02344,0.0117188 0.02344,0.15234375 0,0.73828125 -0.351563,1.33593745 -0.679688,1.66406245 -0.105468,0.1054688 -0.105468,0.1289063 -0.105468,0.1640625 0,0.070312 0.04687,0.1054688 0.09375,0.1054688 0.117187,0 0.914062,-0.7617188 0.914062,-1.93359375 z m 4.456055,-3.9726562 h 0.9375 c 0.199219,0 0.304687,0 0.304687,-0.1992188 0,-0.1054687 -0.105468,-0.1054687 -0.28125,-0.1054687 h -0.878906 c 0.363281,-1.4179688 0.410156,-1.6171875 0.410156,-1.6757813 0,-0.1757812 -0.117187,-0.2695312 -0.292968,-0.2695312 -0.02344,0 -0.304688,0.011719 -0.398438,0.3515625 l -0.386719,1.59375 h -0.9375 c -0.199218,0 -0.292968,0 -0.292968,0.1875 0,0.1171875 0.07031,0.1171875 0.269531,0.1171875 h 0.878906 c -0.714844,2.8242187 -0.75,2.99999995 -0.75,3.1757812 0,0.5390625 0.375,0.9140625 0.914063,0.9140625 1.007812,0 1.582031,-1.453125 1.582031,-1.5351562 0,-0.09375 -0.08203,-0.09375 -0.117188,-0.09375 -0.09375,0 -0.105468,0.023437 -0.152343,0.140625 -0.433594,1.03124995 -0.960938,1.2773437 -1.300782,1.2773437 -0.199218,0 -0.304687,-0.12890625 -0.304687,-0.45703125 0,-0.24609375 0.02344,-0.31640625 0.05859,-0.48046875 z m 0,0"
         style="fill:#000000;fill-opacity:1;fill-rule:nonzero;stroke:none" />
      <path
         id="path24"
         d="m 40.652156,-2.2982187 c 0.175781,0 0.351563,0 0.351563,-0.1992188 0,-0.1992187 -0.175782,-0.1992187 -0.351563,-0.1992187 h -5.390625 c -0.164062,0 -0.339844,0 -0.339844,0.1992187 0,0.1992188 0.175782,0.1992188 0.339844,0.1992188 z m 0,0"
         style="fill:#000000;fill-opacity:1;fill-rule:nonzero;stroke:none" />
      <path
         id="path25"
         d="m 46.983211,-3.7161875 h 1.675781 c 0.128906,0 0.480469,0 0.480469,-0.3398437 0,-0.234375 -0.199219,-0.234375 -0.398438,-0.234375 h -2.789062 c -0.199219,0 -0.585938,0 -1.019531,0.46875 -0.328125,0.3515625 -0.609375,0.8320312 -0.609375,0.890625 0,0.011719 0,0.1054687 0.117187,0.1054687 0.08203,0 0.105469,-0.046875 0.164063,-0.1289062 0.480468,-0.7617188 1.054687,-0.7617188 1.265625,-0.7617188 h 0.820312 l -0.972656,3.19921875 c -0.03516,0.1171875 -0.105469,0.328125 -0.105469,0.36328125 0,0.1171875 0.07031,0.26953125 0.292969,0.26953125 0.328125,0 0.375,-0.28125 0.410156,-0.421875 z m 0,0"
         style="fill:#000000;fill-opacity:1;fill-rule:nonzero;stroke:none" />
      <path
         id="path26"
         d="m 52.417781,-2.4974375 c 0,-0.7734375 -0.117187,-1.9804687 -0.65625,-3.1054687 -0.597656,-1.21875 -1.464844,-1.875 -1.558594,-1.875 -0.05859,0 -0.105468,0.046875 -0.105468,0.1054687 0,0.035156 0,0.046875 0.199218,0.234375 0.972657,0.984375 1.535157,2.5664063 1.535157,4.640625 0,1.7109375 -0.363282,3.45703125 -1.59375,4.7226563 -0.140625,0.1171875 -0.140625,0.1289062 -0.140625,0.1640625 0,0.058594 0.04687,0.1054687 0.105468,0.1054687 0.09375,0 0.996094,-0.6796875 1.582032,-1.9453125 0.503906,-1.1015625 0.632812,-2.203125 0.632812,-3.046875 z m 0,0"
         style="fill:#000000;fill-opacity:1;fill-rule:nonzero;stroke:none" />
    </g>
    <g
       id="g26"
       aria-label="x(0,t)"
       transform="matrix(1.3333333,0,0,1.3333333,127.872,22.484)">
      <path
         id="path27"
         d="m 3.3274453,-3.0114375 c 0.058594,-0.2578125 0.2929688,-1.171875 0.984375,-1.171875 0.046875,0 0.2929688,0 0.5039063,0.1289062 -0.28125,0.046875 -0.4804688,0.3046875 -0.4804688,0.5390625 0,0.1640625 0.1054688,0.3515625 0.375,0.3515625 0.2226563,0 0.5390625,-0.1875 0.5390625,-0.5859375 0,-0.515625 -0.5859375,-0.65625 -0.9257812,-0.65625 -0.5742188,0 -0.9257813,0.5273438 -1.0429688,0.7617188 -0.2578125,-0.65625 -0.7851562,-0.7617188 -1.078125,-0.7617188 -1.0429687,0 -1.60546874,1.2890625 -1.60546874,1.5351563 0,0.1054687 0.10546875,0.1054687 0.1171875,0.1054687 0.0820313,0 0.1171875,-0.023437 0.12890625,-0.1171875 0.33984379,-1.0546875 0.99609379,-1.3007812 1.33593749,-1.3007812 0.1875,0 0.5390625,0.09375 0.5390625,0.6679687 0,0.3046875 -0.1640625,0.9726563 -0.5390625,2.3671875 -0.1523437,0.6210938 -0.5039062,1.0429688 -0.9492187,1.0429688 -0.058594,0 -0.28125004,0 -0.49218754,-0.12890625 0.24609375,-0.0585938 0.46875004,-0.26953125 0.46875004,-0.5390625 0,-0.26953125 -0.22265629,-0.35156255 -0.37500004,-0.35156255 -0.29296875,0 -0.5390625,0.25781255 -0.5390625,0.5742188 0,0.45703125 0.4921875,0.65625 0.93750004,0.65625 0.65625,0 1.0078125,-0.69140625 1.0429687,-0.75 0.1171875,0.36328125 0.4804688,0.75 1.078125,0.75 1.0195313,0 1.59375,-1.2773438 1.59375,-1.5351563 0,-0.09375 -0.09375,-0.09375 -0.1289062,-0.09375 -0.082031,0 -0.1054688,0.035156 -0.1289063,0.1054688 -0.328125,1.06640625 -0.9960937,1.3125 -1.3242187,1.3125 -0.3867188,0 -0.5390625,-0.328125 -0.5390625,-0.65625 0,-0.22265625 0.058594,-0.4453125 0.1640625,-0.8789063 z m 0,0"
         style="fill:#000000;fill-opacity:1;fill-rule:nonzero;stroke:none" />
      <path
         id="path28"
         d="m 8.9876016,2.3909062 c 0,-0.035156 0,-0.046875 -0.1640625,-0.2226562 -1.2421875,-1.25390625 -1.5703125,-3.12890625 -1.5703125,-4.6640625 0,-1.7226563 0.3867187,-3.4570313 1.6054687,-4.7109375 0.1289063,-0.1171875 0.1289063,-0.1289063 0.1289063,-0.1640625 0,-0.070312 -0.035156,-0.1054688 -0.09375,-0.1054688 -0.1054688,0 -0.9960938,0.6796875 -1.5820313,1.9453125 -0.515625,1.1015625 -0.6328125,2.203125 -0.6328125,3.0351563 0,0.7851562 0.1171875,1.9921875 0.65625,3.1171875 0.5976563,1.21875 1.453125,1.875 1.5585938,1.875 0.058594,0 0.09375,-0.035156 0.09375,-0.1054688 z m 5.1621094,-5.578125 c 0,-0.796875 -0.04687,-1.59375 -0.398438,-2.3320312 -0.457031,-0.9609375 -1.277343,-1.1132813 -1.6875,-1.1132813 -0.597656,0 -1.335937,0.2578125 -1.734375,1.1835938 -0.328125,0.6914062 -0.3749996,1.4648437 -0.3749996,2.2617187 0,0.75 0.046875,1.640625 0.4453126,2.4023438 0.433594,0.80859375 1.160156,1.0078125 1.652344,1.0078125 0.539062,0 1.289062,-0.2109375 1.734375,-1.16015625 0.316406,-0.69140625 0.363281,-1.46484375 0.363281,-2.25000005 z M 12.052055,2.8125e-4 c -0.386719,0 -0.984375,-0.24609375 -1.160157,-1.20703125 -0.105468,-0.5976563 -0.105468,-1.5117188 -0.105468,-2.0976563 0,-0.6445312 0,-1.3007812 0.08203,-1.8398437 0.1875,-1.1835938 0.925781,-1.265625 1.183594,-1.265625 0.328125,0 0.984375,0.1757812 1.171875,1.1601562 0.09375,0.5625 0.09375,1.3125 0.09375,1.9453125 0,0.75 0,1.4179688 -0.105469,2.0625 -0.152344,0.93750005 -0.714844,1.24218755 -1.160156,1.24218755 z m 0,0"
         style="fill:#000000;fill-opacity:1;fill-rule:nonzero;stroke:none" />
      <path
         id="path29"
         d="m 16.575492,-0.0114375 c 0,-0.65625 -0.257812,-1.0429688 -0.644531,-1.0429688 -0.328125,0 -0.527344,0.2460938 -0.527344,0.5273438 0,0.26953125 0.199219,0.52734375 0.527344,0.52734375 0.117187,0 0.246094,-0.03515625 0.351562,-0.12890625 0.02344,-0.0234375 0.03516,-0.0351563 0.04687,-0.0351563 0.01172,0 0.02344,0.0117188 0.02344,0.15234375 0,0.73828125 -0.351563,1.33593755 -0.679688,1.66406255 -0.105468,0.1054687 -0.105468,0.1289062 -0.105468,0.1640625 0,0.070312 0.04687,0.1054687 0.09375,0.1054687 0.117187,0 0.914062,-0.7617187 0.914062,-1.93359375 z m 4.456055,-3.9726563 h 0.9375 c 0.199219,0 0.304687,0 0.304687,-0.1992187 0,-0.1054688 -0.105468,-0.1054688 -0.28125,-0.1054688 h -0.878906 c 0.363281,-1.4179687 0.410156,-1.6171875 0.410156,-1.6757812 0,-0.1757813 -0.117187,-0.2695313 -0.292968,-0.2695313 -0.02344,0 -0.304688,0.011719 -0.398438,0.3515625 l -0.386719,1.59375 h -0.9375 c -0.199218,0 -0.292968,0 -0.292968,0.1875 0,0.1171875 0.07031,0.1171875 0.269531,0.1171875 h 0.878906 c -0.714844,2.8242188 -0.75,3.00000005 -0.75,3.1757813 0,0.5390625 0.375,0.9140625 0.914063,0.9140625 1.007812,0 1.582031,-1.453125 1.582031,-1.5351563 0,-0.09375 -0.08203,-0.09375 -0.117188,-0.09375 -0.09375,0 -0.105468,0.023437 -0.152343,0.140625 -0.433594,1.03125005 -0.960938,1.2773438 -1.300782,1.2773438 -0.199218,0 -0.304687,-0.12890625 -0.304687,-0.45703125 0,-0.24609375 0.02344,-0.31640625 0.05859,-0.48046875 z m 0,0"
         style="fill:#000000;fill-opacity:1;fill-rule:nonzero;stroke:none" />
      <path
         id="path30"
         d="m 25.458305,-2.4958125 c 0,-0.7734375 -0.117188,-1.9804688 -0.65625,-3.1054688 -0.597657,-1.21875 -1.464844,-1.875 -1.558594,-1.875 -0.05859,0 -0.105469,0.046875 -0.105469,0.1054688 0,0.035156 0,0.046875 0.199219,0.234375 0.972656,0.984375 1.535156,2.5664062 1.535156,4.640625 0,1.7109375 -0.363281,3.45703125 -1.59375,4.7226562 -0.140625,0.1171875 -0.140625,0.1289063 -0.140625,0.1640625 0,0.058594 0.04687,0.1054688 0.105469,0.1054688 0.09375,0 0.996094,-0.6796875 1.582031,-1.9453125 0.503906,-1.1015625 0.632813,-2.203125 0.632813,-3.046875 z m 0,0"
         style="fill:#000000;fill-opacity:1;fill-rule:nonzero;stroke:none" />
    </g>
    <g
       id="g30"
       aria-label="x(1,t)"
       transform="matrix(1.3333333,0,0,1.3333333,262.37067,22.484)">
      <path
         id="path31"
         d="m 3.3284453,-3.0114375 c 0.058594,-0.2578125 0.2929688,-1.171875 0.984375,-1.171875 0.046875,0 0.2929688,0 0.5039063,0.1289062 -0.28125,0.046875 -0.4804688,0.3046875 -0.4804688,0.5390625 0,0.1640625 0.1054688,0.3515625 0.375,0.3515625 0.2226563,0 0.5390625,-0.1875 0.5390625,-0.5859375 0,-0.515625 -0.5859375,-0.65625 -0.9257812,-0.65625 -0.5742188,0 -0.9257813,0.5273438 -1.0429688,0.7617188 -0.2578125,-0.65625 -0.7851562,-0.7617188 -1.078125,-0.7617188 -1.0429687,0 -1.60546874,1.2890625 -1.60546874,1.5351563 0,0.1054687 0.10546875,0.1054687 0.1171875,0.1054687 0.0820313,0 0.1171875,-0.023437 0.12890625,-0.1171875 0.33984379,-1.0546875 0.99609379,-1.3007812 1.33593749,-1.3007812 0.1875,0 0.5390625,0.09375 0.5390625,0.6679687 0,0.3046875 -0.1640625,0.9726563 -0.5390625,2.3671875 -0.1523437,0.6210938 -0.5039062,1.0429688 -0.9492187,1.0429688 -0.058594,0 -0.28125004,0 -0.49218754,-0.12890625 0.24609375,-0.0585938 0.46875004,-0.26953125 0.46875004,-0.5390625 0,-0.26953125 -0.22265629,-0.35156255 -0.37500004,-0.35156255 -0.29296875,0 -0.5390625,0.25781255 -0.5390625,0.5742188 0,0.45703125 0.4921875,0.65625 0.93750004,0.65625 0.65625,0 1.0078125,-0.69140625 1.0429687,-0.75 0.1171875,0.36328125 0.4804688,0.75 1.078125,0.75 1.0195313,0 1.59375,-1.2773438 1.59375,-1.5351563 0,-0.09375 -0.09375,-0.09375 -0.1289062,-0.09375 -0.082031,0 -0.1054688,0.035156 -0.1289063,0.1054688 -0.328125,1.06640625 -0.9960937,1.3125 -1.3242187,1.3125 -0.3867188,0 -0.5390625,-0.328125 -0.5390625,-0.65625 0,-0.22265625 0.058594,-0.4453125 0.1640625,-0.8789063 z m 0,0"
         style="fill:#000000;fill-opacity:1;fill-rule:nonzero;stroke:none" />
      <path
         id="path32"
         d="m 8.9856719,2.3909062 c 0,-0.035156 0,-0.046875 -0.1640625,-0.2226562 -1.2421875,-1.25390625 -1.5703125,-3.12890625 -1.5703125,-4.6640625 0,-1.7226563 0.3867187,-3.4570313 1.6054687,-4.7109375 0.1289063,-0.1171875 0.1289063,-0.1289063 0.1289063,-0.1640625 0,-0.070312 -0.035156,-0.1054688 -0.09375,-0.1054688 -0.1054688,0 -0.9960938,0.6796875 -1.5820313,1.9453125 -0.515625,1.1015625 -0.6328125,2.203125 -0.6328125,3.0351563 0,0.7851562 0.1171875,1.9921875 0.65625,3.1171875 0.5976563,1.21875 1.453125,1.875 1.5585938,1.875 0.058594,0 0.09375,-0.035156 0.09375,-0.1054688 z m 3.5126951,-8.765625 c 0,-0.234375 0,-0.2578125 -0.234375,-0.2578125 -0.609375,0.6328125 -1.488281,0.6328125 -1.804687,0.6328125 v 0.3164063 c 0.199218,0 0.785156,0 1.300781,-0.2578125 v 5.15625 c 0,0.3515625 -0.03516,0.48046875 -0.925781,0.48046875 H 10.517898 V 2.8125e-4 C 10.869461,-0.034875 11.72493,-0.034875 12.123367,-0.034875 c 0.398438,0 1.265625,0 1.617188,0.03515625 v -0.3046875 h -0.316407 c -0.902343,0 -0.925781,-0.1171875 -0.925781,-0.48046875 z m 0,0"
         style="fill:#000000;fill-opacity:1;fill-rule:nonzero;stroke:none" />
      <path
         id="path33"
         d="m 16.576492,-0.0114375 c 0,-0.65625 -0.257812,-1.0429688 -0.644531,-1.0429688 -0.328125,0 -0.527344,0.2460938 -0.527344,0.5273438 0,0.26953125 0.199219,0.52734375 0.527344,0.52734375 0.117187,0 0.246094,-0.03515625 0.351562,-0.12890625 0.02344,-0.0234375 0.03516,-0.0351563 0.04687,-0.0351563 0.01172,0 0.02344,0.0117188 0.02344,0.15234375 0,0.73828125 -0.351563,1.33593755 -0.679688,1.66406255 -0.105468,0.1054687 -0.105468,0.1289062 -0.105468,0.1640625 0,0.070312 0.04687,0.1054687 0.09375,0.1054687 0.117187,0 0.914062,-0.7617187 0.914062,-1.93359375 z m 4.456055,-3.9726563 h 0.9375 c 0.199219,0 0.304687,0 0.304687,-0.1992187 0,-0.1054688 -0.105468,-0.1054688 -0.28125,-0.1054688 h -0.878906 c 0.363281,-1.4179687 0.410156,-1.6171875 0.410156,-1.6757812 0,-0.1757813 -0.117187,-0.2695313 -0.292968,-0.2695313 -0.02344,0 -0.304688,0.011719 -0.398438,0.3515625 l -0.386719,1.59375 h -0.9375 c -0.199218,0 -0.292968,0 -0.292968,0.1875 0,0.1171875 0.07031,0.1171875 0.269531,0.1171875 h 0.878906 c -0.714844,2.8242188 -0.75,3.00000005 -0.75,3.1757813 0,0.5390625 0.375,0.9140625 0.914063,0.9140625 1.007812,0 1.582031,-1.453125 1.582031,-1.5351563 0,-0.09375 -0.08203,-0.09375 -0.117188,-0.09375 -0.09375,0 -0.105468,0.023437 -0.152343,0.140625 -0.433594,1.03125005 -0.960938,1.2773438 -1.300782,1.2773438 -0.199218,0 -0.304687,-0.12890625 -0.304687,-0.45703125 0,-0.24609375 0.02344,-0.31640625 0.05859,-0.48046875 z m 0,0"
         style="fill:#000000;fill-opacity:1;fill-rule:nonzero;stroke:none" />
      <path
         id="path34"
         d="m 25.456375,-2.4958125 c 0,-0.7734375 -0.117188,-1.9804688 -0.65625,-3.1054688 -0.597656,-1.21875 -1.464844,-1.875 -1.558594,-1.875 -0.05859,0 -0.105469,0.046875 -0.105469,0.1054688 0,0.035156 0,0.046875 0.199219,0.234375 0.972656,0.984375 1.535156,2.5664062 1.535156,4.640625 0,1.7109375 -0.363281,3.45703125 -1.59375,4.7226562 -0.140625,0.1171875 -0.140625,0.1289063 -0.140625,0.1640625 0,0.058594 0.04687,0.1054688 0.105469,0.1054688 0.09375,0 0.996094,-0.6796875 1.582031,-1.9453125 0.503907,-1.1015625 0.632813,-2.203125 0.632813,-3.046875 z m 0,0"
         style="fill:#000000;fill-opacity:1;fill-rule:nonzero;stroke:none" />
    </g>
    <path
       id="path35"
       d="m 46.05315,0 h 87.59729"
       style="fill:none;stroke:#000000;stroke-width:1.19553;stroke-linecap:butt;stroke-linejoin:miter;stroke-miterlimit:10;stroke-dasharray:none;stroke-opacity:1"
       transform="matrix(1.3333333,0,0,-1.3333333,221.09467,47.509333)" />
    <path
       id="path36"
       d="M 3.18808,0 -1.91284,2.55046 0,0 -1.91284,-2.55046"
       style="fill:#000000;fill-opacity:1;fill-rule:nonzero;stroke:none"
       transform="matrix(1.3333333,0,0,-1.3333333,399.29525,47.509333)" />
    <g
       id="g36"
       aria-label="y(t)"
       transform="matrix(1.3333333,0,0,1.3333333,381.12133,38.964)">
      <path
         id="path37"
         d="m 4.8396641,-3.7962422 c 0.046875,-0.140625 0.046875,-0.1523437 0.046875,-0.2226562 0,-0.1875 -0.140625,-0.2695313 -0.2929688,-0.2695313 -0.1054687,0 -0.2578125,0.058594 -0.3515625,0.1992188 -0.023437,0.058594 -0.09375,0.3632812 -0.140625,0.5390625 -0.070312,0.2578125 -0.140625,0.5273437 -0.1992187,0.796875 l -0.4453125,1.79296871 c -0.035156,0.15234375 -0.46875,0.85546875 -1.125,0.85546875 -0.5039063,0 -0.6210938,-0.4453125 -0.6210938,-0.80859375 0,-0.45703121 0.1757813,-1.07812501 0.515625,-1.95703121 0.1523438,-0.4101563 0.1992188,-0.515625 0.1992188,-0.7148438 0,-0.4453125 -0.328125,-0.8203125 -0.8203125,-0.8203125 -0.94921879,0 -1.31250004,1.453125 -1.31250004,1.5351563 0,0.1054687 0.09375,0.1054687 0.1171875,0.1054687 0.09375,0 0.10546875,-0.023437 0.15234375,-0.1875 0.26953125,-0.9375 0.66796879,-1.2304687 1.00781249,-1.2304687 0.082031,0 0.2578125,0 0.2578125,0.3164062 0,0.2460938 -0.1054687,0.515625 -0.1757812,0.703125 -0.3984375,1.0546875 -0.5742188,1.6171875 -0.5742188,2.0859375 0,0.89062501 0.6210938,1.18359376 1.21875,1.18359376 0.3867188,0 0.7265625,-0.1640625 0.9960938,-0.4453125 -0.1289063,0.515625 -0.2460938,1.0078125 -0.6445313,1.53515624 -0.2578125,0.3398438 -0.6328125,0.6328125 -1.0898437,0.6328125 -0.140625,0 -0.59765629,-0.035156 -0.76171879,-0.421875 0.1640625,0 0.29296879,0 0.43359379,-0.1171875 0.09375,-0.09375 0.1992187,-0.2226562 0.1992187,-0.41015624 0,-0.31640625 -0.2695312,-0.3515625 -0.375,-0.3515625 -0.22265624,0 -0.55078124,0.1640625 -0.55078124,0.64453124 0,0.5039063 0.43359375,0.8671875 1.05468754,0.8671875 1.0195312,0 2.0507812,-0.9023437 2.3320312,-2.02734374 z m 0,0"
         style="fill:#000000;fill-opacity:1;fill-rule:nonzero;stroke:none" />
      <path
         id="path38"
         d="m 8.534,2.3912578 c 0,-0.035156 0,-0.046875 -0.1640625,-0.2226562 C 7.12775,0.91469531 6.799625,-0.96030469 6.799625,-2.4954609 c 0,-1.7226563 0.3867187,-3.4570313 1.6054687,-4.7109375 C 8.534,-7.3235859 8.534,-7.3353047 8.534,-7.3704609 c 0,-0.070312 -0.035156,-0.1054688 -0.09375,-0.1054688 -0.1054688,0 -0.9960938,0.6796875 -1.5820313,1.9453125 -0.515625,1.1015625 -0.6328125,2.203125 -0.6328125,3.0351563 0,0.7851562 0.1171875,1.99218746 0.65625,3.11718746 0.5976563,1.21875004 1.453125,1.87500004 1.5585938,1.87500004 0.058594,0 0.09375,-0.035156 0.09375,-0.1054688 z m 0,0"
         style="fill:#000000;fill-opacity:1;fill-rule:nonzero;stroke:none" />
      <path
         id="path39"
         d="m 11.167789,-3.9837422 h 0.9375 c 0.199219,0 0.304688,0 0.304688,-0.1992187 0,-0.1054688 -0.105469,-0.1054688 -0.28125,-0.1054688 H 11.24982 c 0.363282,-1.4179687 0.410157,-1.6171875 0.410157,-1.6757812 0,-0.1757813 -0.117188,-0.2695313 -0.292969,-0.2695313 -0.02344,0 -0.304688,0.011719 -0.398438,0.3515625 l -0.386718,1.59375 H 9.6443516 c -0.1992188,0 -0.2929688,0 -0.2929688,0.1875 0,0.1171875 0.070312,0.1171875 0.2695313,0.1171875 H 10.49982 c -0.7148434,2.8242188 -0.7499997,3.00000001 -0.7499997,3.17578126 0,0.5390625 0.3749997,0.9140625 0.9140627,0.9140625 1.007812,0 1.582031,-1.45312496 1.582031,-1.53515626 0,-0.09375 -0.08203,-0.09375 -0.117187,-0.09375 -0.09375,0 -0.105469,0.023437 -0.152344,0.140625 -0.433594,1.03125001 -0.960938,1.27734376 -1.300781,1.27734376 -0.199219,0 -0.304688,-0.12890625 -0.304688,-0.45703125 0,-0.24609375 0.02344,-0.31640625 0.05859,-0.48046871 z m 0,0"
         style="fill:#000000;fill-opacity:1;fill-rule:nonzero;stroke:none" />
      <path
         id="path40"
         d="m 15.597477,-2.4954609 c 0,-0.7734375 -0.117188,-1.9804688 -0.65625,-3.1054688 -0.597657,-1.21875 -1.464844,-1.875 -1.558594,-1.875 -0.05859,0 -0.105469,0.046875 -0.105469,0.1054688 0,0.035156 0,0.046875 0.199219,0.234375 0.972656,0.984375 1.535156,2.5664062 1.535156,4.640625 0,1.71093746 -0.363281,3.45703121 -1.59375,4.7226562 -0.140625,0.1171875 -0.140625,0.1289063 -0.140625,0.1640625 0,0.058594 0.04687,0.1054688 0.105469,0.1054688 0.09375,0 0.996094,-0.6796875 1.582031,-1.94531254 0.503906,-1.1015625 0.632813,-2.20312496 0.632813,-3.04687496 z m 0,0"
         style="fill:#000000;fill-opacity:1;fill-rule:nonzero;stroke:none" />
    </g>
    <path
       id="path41"
       d="m -136.83852,0 h 75.08554"
       style="fill:none;stroke:#000000;stroke-width:1.19553;stroke-linecap:butt;stroke-linejoin:miter;stroke-miterlimit:10;stroke-dasharray:none;stroke-opacity:1"
       transform="matrix(1.3333333,0,0,-1.3333333,221.09467,47.509333)" />
    <path
       id="path42"
       d="M 3.18808,0 -1.91284,2.55046 0,0 -1.91284,-2.55046"
       style="fill:#000000;fill-opacity:1;fill-rule:nonzero;stroke:none"
       transform="matrix(1.3333333,0,0,-1.3333333,138.75736,47.509333)" />
    <path
       id="path43"
       d="M 72.52866,-1.87128 V -35.43349 H -85.04042 v 30.37413"
       style="fill:none;stroke:#000000;stroke-width:1.19553;stroke-linecap:butt;stroke-linejoin:miter;stroke-miterlimit:10;stroke-dasharray:none;stroke-opacity:1"
       transform="matrix(1.3333333,0,0,-1.3333333,221.09467,47.509333)" />
    <path
       id="path44"
       d="M 3.18808,0 -1.91284,2.55046 0,0 -1.91284,-2.55046"
       style="fill:#000000;fill-opacity:1;fill-rule:nonzero;stroke:none"
       transform="matrix(0,-1.3333333,-1.3333333,0,107.70744,54.255147)" />
    <path
       id="path45"
       d="M 141.73409,-4.89557 V -99.21385 H 59.48312"
       style="fill:none;stroke:#000000;stroke-width:0.79701;stroke-linecap:butt;stroke-linejoin:miter;stroke-miterlimit:10;stroke-dasharray:2.98883, 2.98883;stroke-dashoffset:0;stroke-opacity:1"
       transform="matrix(1.3333333,0,0,-1.3333333,221.09467,47.509333)" />
    <path
       id="path46"
       d="M 2.59026,0 -1.55415,2.0722 0,0 -1.55415,-2.0722"
       style="fill:#000000;fill-opacity:1;fill-rule:nonzero;stroke:none"
       transform="matrix(-1.3333333,0,0,1.3333333,300.40549,179.79447)" />
    <path
       id="path47"
       d="m 28.3468,-113.5865 v -28.3468 l -25.5575,0.18087"
       style="fill:none;stroke:#000000;stroke-width:0.79701;stroke-linecap:butt;stroke-linejoin:miter;stroke-miterlimit:10;stroke-dasharray:2.98883, 2.98883;stroke-dashoffset:0;stroke-opacity:1"
       transform="matrix(1.3333333,0,0,-1.3333333,221.09467,47.509333)" />
    <path
       id="path48"
       d="M 2.59026,0 -1.55415,2.0722 0,0 -1.55415,-2.0722"
       style="fill:#000000;fill-opacity:1;fill-rule:nonzero;stroke:none"
       transform="matrix(-1.3332267,-0.00944,-0.00944,1.3332267,224.81373,236.51259)" />
    <g
       id="g48"
       aria-label="ˆx(ζ,t)"
       transform="matrix(1.3333333,0,0,1.3333333,264.69333,221.17467)">
      <path
         id="path49"
         d="m 2.4946484,-6.9132266 -1.3359375,1.359375 0.1757813,0.1757813 1.1601562,-1.0195313 1.1367188,1.0195313 0.1875,-0.1757813 z m 0,0"
         style="fill:#000000;fill-opacity:1;fill-rule:nonzero;stroke:none" />
      <path
         id="path50"
         d="m 2.6938672,-3.0108828 c 0.058594,-0.2578125 0.2929687,-1.171875 0.984375,-1.171875 0.046875,0 0.2929687,0 0.5039062,0.1289062 -0.28125,0.046875 -0.4804687,0.3046875 -0.4804687,0.5390625 0,0.1640625 0.1054687,0.3515625 0.375,0.3515625 0.2226562,0 0.5390625,-0.1875 0.5390625,-0.5859375 0,-0.515625 -0.5859375,-0.65625 -0.9257813,-0.65625 -0.5742187,0 -0.9257812,0.5273438 -1.0429687,0.7617188 -0.2578125,-0.65625 -0.7851563,-0.7617188 -1.078125,-0.7617188 -1.04296876,0 -1.60546876,1.2890625 -1.60546876,1.5351563 0,0.1054687 0.10546875,0.1054687 0.1171875,0.1054687 0.08203125,0 0.1171875,-0.023437 0.12890625,-0.1171875 0.33984375,-1.0546875 0.99609371,-1.3007812 1.33593751,-1.3007812 0.1875,0 0.5390625,0.09375 0.5390625,0.6679687 0,0.3046875 -0.1640625,0.9726563 -0.5390625,2.3671875 -0.1523438,0.62109379 -0.5039063,1.04296879 -0.94921876,1.04296879 -0.0585938,0 -0.28125,0 -0.4921875,-0.12890625 0.24609375,-0.0585938 0.46875,-0.26953125 0.46875,-0.5390625 0,-0.26953124 -0.22265625,-0.35156254 -0.375,-0.35156254 -0.29296875,0 -0.5390625,0.25781254 -0.5390625,0.57421879 0,0.45703125 0.4921875,0.65625 0.9375,0.65625 0.65624996,0 1.00781246,-0.69140625 1.04296876,-0.75 0.1171875,0.36328125 0.4804687,0.75 1.078125,0.75 1.0195312,0 1.59375,-1.27734379 1.59375,-1.53515629 0,-0.09375 -0.09375,-0.09375 -0.1289063,-0.09375 -0.082031,0 -0.1054687,0.035156 -0.1289062,0.1054688 -0.328125,1.06640624 -0.9960938,1.31249999 -1.3242188,1.31249999 -0.3867187,0 -0.5390625,-0.328125 -0.5390625,-0.65625 0,-0.22265625 0.058594,-0.44531249 0.1640625,-0.87890629 z m 0,0"
         style="fill:#000000;fill-opacity:1;fill-rule:nonzero;stroke:none" />
      <path
         id="path51"
         d="m 8.3540234,2.3914609 c 0,-0.035156 0,-0.046875 -0.1640625,-0.2226562 -1.2421875,-1.25390626 -1.5703125,-3.12890626 -1.5703125,-4.6640625 0,-1.7226563 0.3867188,-3.4570313 1.6054688,-4.7109375 0.1289062,-0.1171875 0.1289062,-0.1289063 0.1289062,-0.1640625 0,-0.070312 -0.035156,-0.1054688 -0.09375,-0.1054688 -0.1054687,0 -0.9960937,0.6796875 -1.5820312,1.9453125 -0.515625,1.1015625 -0.6328125,2.203125 -0.6328125,3.0351563 0,0.7851562 0.1171875,1.99218749 0.65625,3.11718749 0.5976562,1.21875001 1.453125,1.87500001 1.5585937,1.87500001 0.058594,0 0.09375,-0.035156 0.09375,-0.1054688 z m 0,0"
         style="fill:#000000;fill-opacity:1;fill-rule:nonzero;stroke:none" />
      <path
         id="path52"
         d="m 12.156758,-5.7647891 c 0.1875,0.1757813 0.410156,0.1757813 0.609375,0.1757813 0.257812,0 0.890625,0 0.890625,-0.3046875 0,-0.2460938 -0.398438,-0.2695313 -0.796875,-0.2695313 -0.105469,0 -0.375,0 -0.632813,0.09375 -0.05859,-0.1171875 -0.07031,-0.1640625 -0.07031,-0.375 0,-0.140625 0.04687,-0.3515625 0.04687,-0.3632812 0,-0.082031 -0.04687,-0.1289063 -0.117188,-0.1289063 -0.1875,0 -0.1875,0.4570313 -0.1875,0.4804688 0,0.1757812 0.03516,0.3515625 0.117188,0.5039062 -1.054688,0.5273438 -2.6250002,2.3554688 -2.6250002,4.2890625 0,1.40625004 0.9023442,1.69921879 1.6289062,1.94531254 0.292969,0.10546875 0.316406,0.10546875 0.609375,0.2109375 0.199219,0.0703125 0.609375,0.2109375 0.609375,0.66796876 0,0.2695312 -0.1875,0.6679687 -0.550781,0.6679687 -0.257813,0 -0.527344,-0.1289062 -0.738281,-0.3046875 -0.07031,-0.058594 -0.08203,-0.070312 -0.117188,-0.070312 -0.05859,0 -0.105469,0.046875 -0.105469,0.1054688 0,0.1054687 0.433594,0.4804687 0.960938,0.4804687 0.609375,0 1.078125,-0.6328125 1.078125,-1.20703121 0,-0.375 -0.1875,-0.5859375 -0.269531,-0.66796875 -0.164063,-0.1875 -0.351563,-0.24609375 -0.9375,-0.4453125 -0.796872,-0.26953175 -0.960935,-0.31640675 -1.19531,-0.52734425 C 9.9419141,-1.1827578 9.9419141,-1.7569766 9.9419141,-1.9444766 c 0,-1.546875 1.2187499,-3.28125 2.2148439,-3.8203125 z m 0.234375,-0.1171875 c 0.152344,-0.058594 0.328125,-0.058594 0.457031,-0.058594 0.328125,0 0.375,0 0.550781,0.058594 -0.08203,0.023437 -0.175781,0.070312 -0.621093,0.070312 -0.210938,0 -0.28125,0 -0.386719,-0.070312 z m 3.667969,5.87109379 c 0,-0.65625 -0.257813,-1.04296879 -0.644532,-1.04296879 -0.328125,0 -0.527343,0.24609379 -0.527343,0.52734379 0,0.26953125 0.199218,0.5273437475 0.527343,0.5273437475 0.117188,0 0.246094,-0.0351562475 0.351563,-0.1289062475 0.02344,-0.0234375 0.03516,-0.0351563 0.04687,-0.0351563 0.01172,0 0.02344,0.0117188 0.02344,0.15234375 0,0.73828125 -0.351562,1.33593746 -0.679687,1.66406246 -0.105469,0.1054688 -0.105469,0.1289063 -0.105469,0.1640625 0,0.070312 0.04687,0.1054688 0.09375,0.1054688 0.117188,0 0.914063,-0.7617187 0.914063,-1.93359376 z m 4.444336,-3.97265629 h 0.9375 c 0.199218,0 0.304687,0 0.304687,-0.1992187 0,-0.1054688 -0.105469,-0.1054688 -0.28125,-0.1054688 h -0.878906 c 0.363281,-1.4179687 0.410156,-1.6171875 0.410156,-1.6757812 0,-0.1757813 -0.117187,-0.2695313 -0.292969,-0.2695313 -0.02344,0 -0.304687,0.011719 -0.398437,0.3515625 l -0.386719,1.59375 H 18.98 c -0.199219,0 -0.292969,0 -0.292969,0.1875 0,0.1171875 0.07031,0.1171875 0.269532,0.1171875 h 0.878906 c -0.714844,2.8242188 -0.75,3.00000004 -0.75,3.17578129 0,0.5390625 0.375,0.9140625 0.914062,0.9140625 1.007813,0 1.582032,-1.45312499 1.582032,-1.53515629 0,-0.09375 -0.08203,-0.09375 -0.117188,-0.09375 -0.09375,0 -0.105469,0.023437 -0.152344,0.140625 -0.433593,1.03125004 -0.960937,1.27734379 -1.300781,1.27734379 -0.199219,0 -0.304687,-0.12890625 -0.304687,-0.45703125 0,-0.24609375 0.02344,-0.31640625 0.05859,-0.48046874 z m 0,0"
         style="fill:#000000;fill-opacity:1;fill-rule:nonzero;stroke:none" />
      <path
         id="path53"
         d="m 24.936055,-2.4952578 c 0,-0.7734375 -0.117188,-1.9804688 -0.65625,-3.1054688 -0.597657,-1.21875 -1.464844,-1.875 -1.558594,-1.875 -0.05859,0 -0.105469,0.046875 -0.105469,0.1054688 0,0.035156 0,0.046875 0.199219,0.234375 0.972656,0.984375 1.535156,2.5664062 1.535156,4.640625 0,1.71093749 -0.363281,3.45703124 -1.59375,4.7226562 -0.140625,0.1171875 -0.140625,0.1289063 -0.140625,0.1640625 0,0.058594 0.04687,0.1054688 0.105469,0.1054688 0.09375,0 0.996094,-0.6796875 1.582031,-1.94531251 0.503906,-1.1015625 0.632813,-2.20312499 0.632813,-3.04687499 z m 0,0"
         style="fill:#000000;fill-opacity:1;fill-rule:nonzero;stroke:none" />
    </g>
    <path
       id="path54"
       d="M -56.89287,-141.73409 H -91.728"
       style="fill:none;stroke:#000000;stroke-width:0.79701;stroke-linecap:butt;stroke-linejoin:miter;stroke-miterlimit:10;stroke-dasharray:2.98883, 2.98883;stroke-dashoffset:0;stroke-opacity:1"
       transform="matrix(1.3333333,0,0,-1.3333333,221.09467,47.509333)" />
    <path
       id="path55"
       d="M 2.59026,0 -1.55415,2.0722 0,0 -1.55415,-2.0722"
       style="fill:#000000;fill-opacity:1;fill-rule:nonzero;stroke:none"
       transform="matrix(-1.3333333,0,0,1.3333333,98.790667,236.48812)" />
    <g
       id="g55"
       aria-label="u(t)"
       transform="matrix(1.3333333,0,0,1.3333333,108.92267,228.20667)">
      <path
         id="path56"
         d="M 3.4915937,-0.56222656 C 3.5970625,-0.15207031 3.948625,0.10574219 4.3705,0.10574219 c 0.3515625,0 0.5742187,-0.22265625 0.7382812,-0.5390625 0.1757813,-0.36328125 0.3046875,-0.97265629 0.3046875,-0.99609379 0,-0.09375 -0.09375,-0.09375 -0.1289062,-0.09375 -0.09375,0 -0.1054688,0.035156 -0.140625,0.1757813 -0.1289063,0.56249999 -0.328125,1.24218749 -0.7382813,1.24218749 -0.2109375,0 -0.3164062,-0.12890625 -0.3164062,-0.45703125 0,-0.22265625 0.1289062,-0.69140624 0.1992187,-1.04296874 l 0.28125,-1.078125 C 4.604875,-2.8239453 4.698625,-3.2106641 4.7455,-3.3512891 c 0.046875,-0.234375 0.140625,-0.609375 0.140625,-0.6679687 0,-0.1875 -0.140625,-0.2695313 -0.28125,-0.2695313 -0.058594,0 -0.3164063,0 -0.3867188,0.3398438 -0.1992187,0.7265625 -0.6328125,2.4726562 -0.75,2.99999999 -0.011719,0.046875 -0.4101562,0.84375 -1.1367187,0.84375 -0.515625,0 -0.6210938,-0.45703125 -0.6210938,-0.8203125 0,-0.56249999 0.28125,-1.34765629 0.5390625,-2.02734379 0.1171875,-0.3046875 0.1757813,-0.4453125 0.1757813,-0.6328125 0,-0.4453125 -0.328125,-0.8203125 -0.8203125,-0.8203125 -0.94921875,0 -1.3125,1.453125 -1.3125,1.5351563 0,0.1054687 0.09375,0.1054687 0.1171875,0.1054687 0.09375,0 0.10546875,-0.023437 0.15234375,-0.1875 0.2578125,-0.8671875 0.63281245,-1.2304687 1.00781245,-1.2304687 0.09375,0 0.2578125,0.011719 0.2578125,0.328125 0,0.234375 -0.1171875,0.5273437 -0.1757812,0.6796875 -0.3632813,0.984375 -0.5742188,1.6054687 -0.5742188,2.0859375 0,0.94921874 0.6796875,1.19531249 1.21875,1.19531249 0.65625,0 1.0195313,-0.4453125 1.1953125,-0.66796875 z m 0,0"
         style="fill:#000000;fill-opacity:1;fill-rule:nonzero;stroke:none" />
      <path
         id="path57"
         d="m 8.9964766,2.3908984 c 0,-0.035156 0,-0.046875 -0.1640625,-0.2226562 -1.2421875,-1.25390626 -1.5703125,-3.12890626 -1.5703125,-4.6640625 0,-1.7226563 0.3867187,-3.4570313 1.6054687,-4.7109375 0.1289063,-0.1171875 0.1289063,-0.1289063 0.1289063,-0.1640625 0,-0.070312 -0.035156,-0.1054688 -0.09375,-0.1054688 -0.1054688,0 -0.9960938,0.6796875 -1.5820313,1.9453125 -0.515625,1.1015625 -0.6328125,2.203125 -0.6328125,3.0351563 0,0.7851562 0.1171875,1.99218749 0.65625,3.11718749 0.5976563,1.21875001 1.453125,1.87500001 1.5585938,1.87500001 0.058594,0 0.09375,-0.035156 0.09375,-0.1054688 z m 0,0"
         style="fill:#000000;fill-opacity:1;fill-rule:nonzero;stroke:none" />
      <path
         id="path58"
         d="m 11.627336,-3.9841016 h 0.9375 c 0.199219,0 0.304687,0 0.304687,-0.1992187 0,-0.1054688 -0.105468,-0.1054688 -0.28125,-0.1054688 h -0.878906 c 0.363281,-1.4179687 0.410156,-1.6171875 0.410156,-1.6757812 0,-0.1757813 -0.117187,-0.2695313 -0.292968,-0.2695313 -0.02344,0 -0.304688,0.011719 -0.398438,0.3515625 l -0.386719,1.59375 h -0.9375 c -0.1992183,0 -0.2929683,0 -0.2929683,0.1875 0,0.1171875 0.070312,0.1171875 0.2695313,0.1171875 h 0.878906 c -0.714844,2.8242188 -0.75,3.00000004 -0.75,3.17578129 0,0.5390625 0.375,0.9140625 0.914063,0.9140625 1.007812,0 1.582031,-1.45312499 1.582031,-1.53515629 0,-0.09375 -0.08203,-0.09375 -0.117188,-0.09375 -0.09375,0 -0.105468,0.023437 -0.152343,0.140625 -0.433594,1.03125004 -0.960938,1.27734379 -1.300782,1.27734379 -0.199218,0 -0.304687,-0.12890625 -0.304687,-0.45703125 0,-0.24609375 0.02344,-0.31640625 0.05859,-0.48046874 z m 0,0"
         style="fill:#000000;fill-opacity:1;fill-rule:nonzero;stroke:none" />
      <path
         id="path59"
         d="m 16.057023,-2.4958203 c 0,-0.7734375 -0.117187,-1.9804688 -0.65625,-3.1054688 -0.597656,-1.21875 -1.464843,-1.875 -1.558593,-1.875 -0.05859,0 -0.105469,0.046875 -0.105469,0.1054688 0,0.035156 0,0.046875 0.199219,0.234375 0.972656,0.984375 1.535156,2.5664062 1.535156,4.640625 0,1.71093749 -0.363281,3.45703124 -1.59375,4.7226562 -0.140625,0.1171875 -0.140625,0.1289063 -0.140625,0.1640625 0,0.058594 0.04687,0.1054688 0.105469,0.1054688 0.09375,0 0.996093,-0.6796875 1.582031,-1.94531251 0.503906,-1.1015625 0.632812,-2.20312499 0.632812,-3.04687499 z m 0,0"
         style="fill:#000000;fill-opacity:1;fill-rule:nonzero;stroke:none" />
    </g>
    <path
       id="path60"
       d="m -104.1094,-141.73409 h -37.62469 V -7.48582"
       style="fill:none;stroke:#000000;stroke-width:0.79701;stroke-linecap:butt;stroke-linejoin:miter;stroke-miterlimit:10;stroke-dasharray:2.98883, 2.98883;stroke-dashoffset:0;stroke-opacity:1"
       transform="matrix(1.3333333,0,0,-1.3333333,221.09467,47.509333)" />
    <path
       id="path61"
       d="M 2.59026,0 -1.55415,2.0722 0,0 -1.55415,-2.0722"
       style="fill:#000000;fill-opacity:1;fill-rule:nonzero;stroke:none"
       transform="matrix(0,-1.3333333,-1.3333333,0,32.11588,57.490427)" />
    <g
       id="g61"
       aria-label="u(t)"
       transform="matrix(1.3333333,0,0,1.3333333,4.4266667,68.958667)">
      <path
         id="path62"
         d="m 3.4915234,-0.56372656 c 0.1054688,0.41015625 0.4570313,0.66796875 0.8789063,0.66796875 0.3515625,0 0.5742187,-0.22265625 0.7382812,-0.5390625 0.1757813,-0.36328125 0.3046875,-0.97265629 0.3046875,-0.99609379 0,-0.09375 -0.09375,-0.09375 -0.1289062,-0.09375 -0.09375,0 -0.1054688,0.035156 -0.140625,0.1757813 -0.1289063,0.56249999 -0.328125,1.24218749 -0.7382813,1.24218749 -0.2109375,0 -0.3164062,-0.12890625 -0.3164062,-0.45703125 0,-0.22265625 0.1289062,-0.69140624 0.1992187,-1.04296874 l 0.28125,-1.078125 c 0.035156,-0.140625 0.1289063,-0.5273438 0.1757813,-0.6679688 0.046875,-0.234375 0.140625,-0.609375 0.140625,-0.6679687 0,-0.1875 -0.140625,-0.2695313 -0.28125,-0.2695313 -0.058594,0 -0.3164063,0 -0.3867188,0.3398438 -0.1992187,0.7265625 -0.6328125,2.4726562 -0.75,2.99999999 -0.011719,0.046875 -0.4101562,0.84375 -1.1367187,0.84375 -0.515625,0 -0.6210938,-0.45703125 -0.6210938,-0.8203125 0,-0.56249999 0.28125,-1.34765629 0.5390625,-2.02734379 0.1171875,-0.3046875 0.1757813,-0.4453125 0.1757813,-0.6328125 0,-0.4453125 -0.328125,-0.8203125 -0.8203125,-0.8203125 -0.94921876,0 -1.31250001,1.453125 -1.31250001,1.5351563 0,0.1054687 0.09375,0.1054687 0.1171875,0.1054687 0.09375,0 0.10546875,-0.023437 0.15234375,-0.1875 0.2578125,-0.8671875 0.63281246,-1.2304687 1.00781246,-1.2304687 0.09375,0 0.2578125,0.011719 0.2578125,0.328125 0,0.234375 -0.1171875,0.5273437 -0.1757812,0.6796875 -0.3632813,0.984375 -0.5742188,1.6054687 -0.5742188,2.0859375 0,0.94921874 0.6796875,1.19531249 1.21875,1.19531249 0.65625,0 1.0195313,-0.4453125 1.1953125,-0.66796875 z m 0,0"
         style="fill:#000000;fill-opacity:1;fill-rule:nonzero;stroke:none" />
      <path
         id="path63"
         d="m 8.9964062,2.3893984 c 0,-0.035156 0,-0.046875 -0.1640625,-0.2226562 -1.2421875,-1.25390626 -1.5703125,-3.12890626 -1.5703125,-4.6640625 0,-1.7226563 0.3867188,-3.4570313 1.6054688,-4.7109375 0.1289062,-0.1171875 0.1289062,-0.1289063 0.1289062,-0.1640625 0,-0.070312 -0.035156,-0.1054688 -0.09375,-0.1054688 -0.1054687,0 -0.9960937,0.6796875 -1.5820312,1.9453125 -0.515625,1.1015625 -0.6328125,2.203125 -0.6328125,3.0351563 0,0.7851562 0.1171875,1.99218749 0.65625,3.11718749 0.5976562,1.21875001 1.453125,1.87500001 1.5585937,1.87500001 0.058594,0 0.09375,-0.035156 0.09375,-0.1054688 z m 0,0"
         style="fill:#000000;fill-opacity:1;fill-rule:nonzero;stroke:none" />
      <path
         id="path64"
         d="m 11.630195,-3.9856016 h 0.9375 c 0.199219,0 0.304688,0 0.304688,-0.1992187 0,-0.1054688 -0.105469,-0.1054688 -0.28125,-0.1054688 h -0.878906 c 0.363281,-1.4179687 0.410156,-1.6171875 0.410156,-1.6757812 0,-0.1757813 -0.117188,-0.2695313 -0.292969,-0.2695313 -0.02344,0 -0.304687,0.011719 -0.398437,0.3515625 l -0.386719,1.59375 h -0.9375 c -0.1992189,0 -0.2929689,0 -0.2929689,0.1875 0,0.1171875 0.070312,0.1171875 0.2695309,0.1171875 h 0.878907 c -0.714844,2.8242188 -0.75,3.00000004 -0.75,3.17578129 0,0.5390625 0.375,0.9140625 0.914062,0.9140625 1.007813,0 1.582031,-1.45312499 1.582031,-1.53515629 0,-0.09375 -0.08203,-0.09375 -0.117187,-0.09375 -0.09375,0 -0.105469,0.023437 -0.152344,0.140625 -0.433594,1.03125004 -0.960937,1.27734379 -1.300781,1.27734379 -0.199219,0 -0.304688,-0.12890625 -0.304688,-0.45703125 0,-0.24609375 0.02344,-0.31640625 0.05859,-0.48046874 z m 0,0"
         style="fill:#000000;fill-opacity:1;fill-rule:nonzero;stroke:none" />
      <path
         id="path65"
         d="m 16.059883,-2.4973203 c 0,-0.7734375 -0.117188,-1.9804688 -0.65625,-3.1054688 -0.597656,-1.21875 -1.464844,-1.875 -1.558594,-1.875 -0.05859,0 -0.105469,0.046875 -0.105469,0.1054688 0,0.035156 0,0.046875 0.199219,0.234375 0.972656,0.984375 1.535156,2.5664062 1.535156,4.640625 0,1.71093749 -0.363281,3.45703124 -1.59375,4.7226562 -0.140625,0.1171875 -0.140625,0.1289063 -0.140625,0.1640625 0,0.058594 0.04687,0.1054688 0.105469,0.1054688 0.09375,0 0.996094,-0.6796875 1.582031,-1.94531251 0.503907,-1.1015625 0.632813,-2.20312499 0.632813,-3.04687499 z m 0,0"
         style="fill:#000000;fill-opacity:1;fill-rule:nonzero;stroke:none" />
    </g>
    <path
       id="path66"
       d="m -99.21384,-136.83852 v 37.62467 H -2.7895"
       style="fill:none;stroke:#000000;stroke-width:0.79701;stroke-linecap:butt;stroke-linejoin:miter;stroke-miterlimit:10;stroke-dasharray:2.98883, 2.98883;stroke-dashoffset:0;stroke-opacity:1"
       transform="matrix(1.3333333,0,0,-1.3333333,221.09467,47.509333)" />
    <path
       id="path67"
       d="M 2.59026,0 -1.55415,2.0722 0,0 -1.55415,-2.0722"
       style="fill:#000000;fill-opacity:1;fill-rule:nonzero;stroke:none"
       transform="matrix(1.3333333,0,0,-1.3333333,217.37533,179.79447)" />
  </g>
</svg>
