<?xml version="1.0" encoding="UTF-8" standalone="no"?>
<!-- Created with Inkscape (http://www.inkscape.org/) -->

<svg
   version="1.1"
   id="svg1"
   width="449.73734"
   height="328.10132"
   viewBox="0 0 449.73734 328.10132"
   sodipodi:docname="tikz.pdf"
   xmlns:inkscape="http://www.inkscape.org/namespaces/inkscape"
   xmlns:sodipodi="http://sodipodi.sourceforge.net/DTD/sodipodi-0.dtd"
   xmlns="http://www.w3.org/2000/svg"
   xmlns:svg="http://www.w3.org/2000/svg">
  <defs
     id="defs1" />
  <sodipodi:namedview
     id="namedview1"
     pagecolor="#ffffff"
     bordercolor="#000000"
     borderopacity="0.25"
     inkscape:showpageshadow="2"
     inkscape:pageopacity="0.0"
     inkscape:pagecheckerboard="0"
     inkscape:deskcolor="#d1d1d1">
    <inkscape:page
       x="0"
       y="0"
       inkscape:label="1"
       id="page1"
       width="449.73734"
       height="328.10132"
       margin="0"
       bleed="0" />
  </sodipodi:namedview>
  <g
     id="g1"
     inkscape:groupmode="layer"
     inkscape:label="1">
    <path
       id="path1"
       d="M -104.88309,-59.52846 V 35.43349 H 104.88309 V -59.52846 Z"
       style="fill:none;stroke:#000000;stroke-width:1.19553;stroke-linecap:butt;stroke-linejoin:miter;stroke-miterlimit:10;stroke-dasharray:none;stroke-opacity:1"
       transform="matrix(1.3333333,0,0,-1.3333333,239.85467,61.324)" />
    <path
       id="path2"
       d="M -104.88309,-189.92352 V -73.70186 H 104.88309 V -189.92352 Z"
       style="fill:none;stroke:#000000;stroke-width:0.3985;stroke-linecap:butt;stroke-linejoin:miter;stroke-miterlimit:10;stroke-dasharray:none;stroke-opacity:1"
       transform="matrix(1.3333333,0,0,-1.3333333,239.85467,61.324)" />
    <path
       id="path3"
       d="m 41.86316,-14.17339 c 4.41077,0 7.98634,6.34555 7.98634,14.17339 0,7.82784 -3.57557,14.17339 -7.98634,14.17339 h -97.41458 c -4.41078,0 -7.98635,-6.34555 -7.98635,-14.17339 0,-7.82784 3.57557,-14.17339 7.98635,-14.17339 z m -97.41458,0 c 4.41076,0 7.98634,6.34555 7.98634,14.17339 0,7.82784 -3.57558,14.17339 -7.98634,14.17339"
       style="fill:none;stroke:#000000;stroke-width:0.3985;stroke-linecap:butt;stroke-linejoin:miter;stroke-miterlimit:10;stroke-dasharray:none;stroke-opacity:1"
       transform="matrix(1.3333333,0,0,-1.3333333,239.85467,61.324)" />
    <path
       id="path4"
       d="m 7.1122422,-1.9696016 c 0.058594,0.75 0.1992187,1.30078129 0.2578125,1.52343754 0.140625,0.5390625 0.1992187,0.80859375 0.7148437,0.80859375 0.5273438,0 1.453125,-0.5390625 1.453125,-0.78515625 0,-0.0585938 -0.046875,-0.0820313 -0.1054687,-0.0820313 -0.1523438,0 -0.4101563,0.12890625 -0.4453125,0.15234375 -0.082031,0.046875 -0.1054688,0.046875 -0.1289063,0.046875 -0.3398437,0 -0.4101562,-0.31640625 -0.5507812,-1.03124999 -0.082031,-0.3984375 -0.1875,-0.8789062 -0.2929688,-2.5078126 -0.082031,-1.2187499 -0.1289062,-2.4492186 -0.1289062,-3.6679686 0,-0.28125 0.011719,-0.5976564 0.011719,-0.8789064 0,-0.1875 0,-0.234375 -0.1289062,-0.234375 -0.1640625,0 -0.65625,0.1992189 -0.8671875,0.515625 l -0.09375,0.1406251 c -0.9375,2.015625 -1.828125,3.4570313 -2.4492188,4.4296875 -0.703125,1.0898438 -1.9453125,3.03515624 -2.5898437,3.03515624 -0.4453125,0 -0.80859376,-0.28125 -0.92578126,-0.71484374 -0.0117188,-0.023437 -0.0351563,-0.09375 -0.0820313,-0.09375 -0.17578125,0 -0.43359375,0.57421874 -0.43359375,0.90234374 0,0.48046875 0.50390625,1.0078125 1.06640631,1.0078125 0.8320312,0 2.203125,-2.15624994 2.4609375,-2.56640624 z m -0.234375,-5.1914062 v 0.6914062 c 0,0.6914063 0.023437,1.3828125 0.058594,2.0859375 0.011719,0.234375 0.058594,1.1367188 0.1171875,1.7578125 H 4.8622422 c -0.1875,0 -0.3632813,0 -0.6796875,0.1875 0.8320312,-1.2890625 1.5351562,-2.53125 1.6054687,-2.671875 0.5976563,-1.0546875 0.9140625,-1.7460937 1.0664063,-2.0507812 z m 15.9638668,4.40625 c -0.65625,0.5039062 -0.984375,0.9960937 -1.078125,1.1484375 -0.539062,0.83203124 -0.632812,1.58203124 -0.632812,1.59374999 0,0.140625 0.140625,0.140625 0.234375,0.140625 0.210937,0 0.222656,-0.0234375 0.269531,-0.234375 0.269531,-1.17187499 0.972656,-2.17968749 2.332031,-2.73046879 0.140625,-0.046875 0.175782,-0.070312 0.175782,-0.1523437 0,-0.082031 -0.07031,-0.1171875 -0.09375,-0.1289063 -0.527344,-0.2109375 -1.980469,-0.8085937 -2.425782,-2.8125 -0.03516,-0.140625 -0.04687,-0.1757812 -0.257812,-0.1757812 -0.09375,0 -0.234375,0 -0.234375,0.140625 0,0.023437 0.105469,0.7734375 0.609375,1.5820312 0.234375,0.3515625 0.585937,0.7734375 1.101562,1.1601563 h -8.882812 c -0.222656,0 -0.433594,0 -0.433594,0.234375 0,0.234375 0.210938,0.234375 0.433594,0.234375 z m 8.657227,-5.3671875 c 0.02344,-0.1289063 0.02344,-0.1523438 0.02344,-0.1875 0,-0.082031 -0.02344,-0.1171875 -0.140625,-0.1171875 -0.128906,0 -0.480468,0.1757812 -0.726562,0.2929687 -0.550781,0.28125 -0.996094,0.5039063 -0.996094,0.7265625 0,0.070312 0.08203,0.070312 0.128906,0.070312 0.140625,0 0.457032,-0.1757812 0.679688,-0.28125 -0.140625,1.171875 -0.433594,2.7070313 -0.644531,3.7265625 -0.445313,2.0390625 -0.667969,2.765625 -1.253907,3.92578129 -0.05859,0.10546875 -0.05859,0.12890625 -0.05859,0.140625 0,0.0820313 0.09375,0.0820313 0.117187,0.0820313 0.1875,0 0.691406,-0.2109375 0.878906,-0.5390625 0.164063,-0.28125 0.609375,-1.14843759 0.972657,-2.54296879 0.257812,-1.0195312 0.714843,-2.5898438 1.570312,-3.8203124 0.539063,-0.7734375 1.042969,-1.1367188 1.804688,-1.1367188 0.644531,0 1.230468,0.421875 1.230468,1.0546875 0,1.0429688 -1.136718,1.4296875 -2.378906,1.8515625 -0.152344,0.046875 -0.972656,0.328125 -0.972656,0.6328125 0,0.070312 0.08203,0.082031 0.117187,0.082031 0.04687,0 0.328125,-0.046875 0.574219,-0.046875 1.207031,0 2.191406,0.7148436 2.191406,1.8515624 0,1.48828129 -1.265625,1.95703129 -2.355468,1.95703129 -0.925782,0 -1.359375,-0.50390625 -1.523438,-0.66796869 -0.04687,-0.058594 -0.05859,-0.082031 -0.152344,-0.082031 -0.257812,0 -0.867187,0.37499999 -0.867187,0.58593749 0,0.0351563 0.457031,0.8203125 1.757812,0.8203125 1.675782,0 4.160157,-1.1953125 4.160157,-3.11718759 0,-0.9960937 -0.679688,-1.7578125 -1.898438,-1.9804686 0.960938,-0.4101563 2.355469,-1.265625 2.355469,-2.390625 0,-0.6914063 -0.574219,-1.2070314 -1.453125,-1.2070314 -0.410156,0 -1.933594,0.1054688 -3.386719,1.8984375 z m 0,0"
       style="fill:#000000;fill-opacity:1;fill-rule:nonzero;stroke:none"
       aria-label="A→B"
       transform="matrix(1.3333333,0,0,1.3333333,215.61467,66.770667)" />
    <path
       id="path5"
       d="m -42.5202,-155.90749 h 56.69362 v 28.34679 H -42.5202 Z"
       style="fill:none;stroke:#000000;stroke-width:0.3985;stroke-linecap:butt;stroke-linejoin:miter;stroke-miterlimit:10;stroke-dasharray:none;stroke-opacity:1"
       transform="matrix(1.3333333,0,0,-1.3333333,239.85467,61.324)" />
    <path
       id="path6"
       d="m 7.7825156,-2.3676172 c 0,-0.46875 0.046875,-0.5273437 0.8085938,-0.5273437 v -0.3398438 c -0.3046875,0.023437 -1.1367188,0.023437 -1.4882813,0.023437 -0.3867187,0 -1.4179687,0 -1.7460937,-0.023437 v 0.3398438 h 0.375 c 1.0429687,0 1.078125,0.140625 1.078125,0.5742187 v 0.7617188 c 0,1.37109371 -1.5585938,1.46484371 -1.875,1.46484371 -0.9375,0 -3.1757813,-0.57421875 -3.1757813,-3.99609371 0,-3.4570313 2.2617188,-3.984375 3.09375,-3.984375 1.0429688,0 2.2851563,0.7617187 2.5898438,2.8710937 0.035156,0.140625 0.035156,0.1757813 0.1757812,0.1757813 0.1640625,0 0.1640625,-0.035156 0.1640625,-0.28125 v -2.8359375 c 0,-0.2109375 0,-0.2695313 -0.1171875,-0.2695313 -0.070312,0 -0.082031,0.023437 -0.1523437,0.140625 l -0.5859375,0.9492188 c -0.3515625,-0.4335938 -1.078125,-1.0898438 -2.2148438,-1.0898438 -2.1679687,0 -4.06640622,1.875 -4.06640622,4.3242188 0,2.4726562 1.89843752,4.33593746 4.07812502,4.33593746 0.84375,0 1.8164062,-0.26953125 2.2617187,-1.03125 0.2109375,0.375 0.609375,0.7734375 0.703125,0.7734375 0.09375,0 0.09375,-0.0703125 0.09375,-0.2578125 z m 6.0205074,-0.8203125 c 0,-0.6445312 0,-1.125 -0.527343,-1.59375 -0.421875,-0.3867187 -0.960938,-0.5507812 -1.488282,-0.5507812 -0.972656,0 -1.734375,0.6445312 -1.734375,1.4179687 0,0.3515625 0.234375,0.515625 0.503907,0.515625 0.292968,0 0.492187,-0.1992187 0.492187,-0.4921875 0,-0.4804687 -0.433594,-0.4804687 -0.609375,-0.4804687 0.28125,-0.5039063 0.855469,-0.7265625 1.324219,-0.7265625 0.550781,0 1.253906,0.4570312 1.253906,1.5351562 v 0.4804688 c -2.402344,0.035156 -3.3046873,1.0429687 -3.3046873,1.9570312 0,0.94921876 1.1015623,1.24218751 1.8281253,1.24218751 0.785156,0 1.324218,-0.48046875 1.558593,-1.0546875 0.04687,0.5625 0.410157,0.99609375 0.925782,0.99609375 0.257812,0 0.949218,-0.1640625 0.949218,-1.12499996 v -0.6679688 h -0.269531 v 0.6679688 c 0,0.67968746 -0.28125,0.78515621 -0.457031,0.78515621 -0.445313,0 -0.445313,-0.64453125 -0.445313,-0.82031251 z m -0.785156,1.5 c 0,1.17187501 -0.867187,1.57031251 -1.382812,1.57031251 -0.585938,0 -1.078125,-0.43359375 -1.078125,-1.00781251 0,-1.5820312 2.039062,-1.7226562 2.460937,-1.7460937 z m 4.095703,-5.671875 c 0,-0.3164062 -0.246093,-0.5859375 -0.574218,-0.5859375 -0.316407,0 -0.574219,0.2460938 -0.574219,0.5742188 0,0.3515625 0.28125,0.5859375 0.574219,0.5859375 0.363281,0 0.574218,-0.3164063 0.574218,-0.5742188 z m -1.640625,2.2148438 v 0.3515625 c 0.761719,0 0.867188,0.070312 0.867188,0.65625 v 3.25781246 c 0,0.52734375 -0.128906,0.52734375 -0.902344,0.52734375 V -4.296875e-4 C 15.765914,-0.02386719 16.340133,-0.02386719 16.691695,-0.02386719 c 0.128907,0 0.820313,0 1.230469,0.0234375025 V -0.35199219 c -0.773437,0 -0.832031,-0.0585938 -0.832031,-0.515625 V -5.2738672 Z m 8.138672,2.2382812 c 0,-1.1132812 0,-1.4414062 -0.28125,-1.828125 -0.339844,-0.46875 -0.902344,-0.5390625 -1.3125,-0.5390625 -1.160156,0 -1.605469,0.9960938 -1.710937,1.2304688 h -0.01172 v -1.2304688 l -1.617188,0.1289063 v 0.3515625 c 0.808594,0 0.902344,0.082031 0.902344,0.6679687 v 3.24609376 c 0,0.52734375 -0.128906,0.52734375 -0.902344,0.52734375 v 0.3515625025 c 0.304689,-0.0234375025 0.94922,-0.0234375025 1.289064,-0.0234375025 0.339844,0 0.984375,0 1.300781,0.0234375025 V -0.35199219 c -0.761719,0 -0.914062,0 -0.914062,-0.52734375 V -3.1058984 c 0,-1.2539063 0.832031,-1.921875 1.570312,-1.921875 0.738281,0 0.914063,0.609375 0.914063,1.3359375 v 2.81249996 c 0,0.52734375 -0.140625,0.52734375 -0.914063,0.52734375 V -4.296875e-4 C 22.240523,-0.02386719 22.885055,-0.02386719 23.21318,-0.02386719 c 0.351562,0 0.996093,0 1.300781,0.0234375025 V -0.35199219 c -0.597656,0 -0.890625,0 -0.902344,-0.3515625 z m 0,0"
       style="fill:#000000;fill-opacity:1;fill-rule:nonzero;stroke:none"
       aria-label="Gain"
       transform="matrix(1.3333333,0,0,1.3333333,204.428,255.74667)" />
    <path
       id="path7"
       d="m 14.1734,-113.38725 h 56.69362 v 28.34679 H 14.1734 Z"
       style="fill:none;stroke:#000000;stroke-width:0.3985;stroke-linecap:butt;stroke-linejoin:miter;stroke-miterlimit:10;stroke-dasharray:none;stroke-opacity:1"
       transform="matrix(1.3333333,0,0,-1.3333333,239.85467,61.324)" />
    <path
       id="path8"
       d="m 8.4504062,-4.0532891 c 0,-2.4726562 -1.8164062,-4.359375 -3.890625,-4.359375 -2.1328125,0 -3.91406245,1.9101563 -3.91406245,4.359375 0,2.4257813 1.80468745,4.30078129 3.90234375,4.30078129 2.1328125,0 3.9023437,-1.89843749 3.9023437,-4.30078129 z m -3.890625,4.03125004 c -1.21875,0 -2.8007812,-1.14843754 -2.8007812,-4.20703124 0,-2.9296875 1.6640625,-3.9257813 2.7890625,-3.9257813 1.1835937,0 2.7890625,1.03125 2.7890625,3.9257813 0,3.1054687 -1.6171875,4.20703124 -2.7773438,4.20703124 z M 11.095914,-8.2954766 9.4435703,-8.1665703 v 0.3515625 c 0.8085937,0 0.9023437,0.082031 0.9023437,0.6679687 v 7.14843754 h 0.269531 c 0.04687,-0.09375 0.375,-0.69140625 0.421875,-0.7734375 0.28125,0.43359375 0.796875,0.890625 1.558594,0.890625 1.371094,0 2.578125,-1.16015624 2.578125,-2.69531254 0,-1.5234375 -1.125,-2.6953125 -2.449219,-2.6953125 -0.65625,0 -1.21875,0.3046875 -1.628906,0.8085938 z m 0.02344,4.4765625 c 0,-0.2226562 0,-0.2460937 0.140625,-0.4335937 0.28125,-0.4335938 0.808593,-0.7734375 1.394531,-0.7734375 0.363281,0 1.617187,0.140625 1.617187,2.4375 0,0.796875 -0.128906,1.3007812 -0.410156,1.73437499 -0.234375,0.36328125 -0.714844,0.73828125 -1.3125,0.73828125 -0.644531,0 -1.066406,-0.421875 -1.265625,-0.73828125 C 11.119352,-1.1118828 11.119352,-1.1587578 11.119352,-1.3579766 Z m 8.414062,-1.2304687 c 0,-0.2226563 0,-0.28125 -0.128906,-0.28125 -0.09375,0 -0.316406,0.2695312 -0.398438,0.375 -0.375,-0.3046875 -0.75,-0.375 -1.125,-0.375 -1.453125,0 -1.875,0.7851562 -1.875,1.4414062 0,0.140625 0,0.5507813 0.445313,0.9726563 0.386719,0.3398437 0.796875,0.421875 1.347656,0.5273437 0.65625,0.1289063 0.808594,0.1640625 1.113281,0.4101563 0.210938,0.1757812 0.363282,0.4335937 0.363282,0.7734375 0,0.51562499 -0.292969,1.08984374 -1.347657,1.08984374 -0.785156,0 -1.359375,-0.45703125 -1.628906,-1.65234374 -0.04687,-0.2109375 -0.04687,-0.2226563 -0.05859,-0.234375 -0.02344,-0.046875 -0.07031,-0.046875 -0.105468,-0.046875 -0.128907,0 -0.128907,0.058594 -0.128907,0.2695312 v 1.62890629 c 0,0.2109375 0,0.26953125 0.117188,0.26953125 0.05859,0 0.07031,-0.0117188 0.269531,-0.2578125 0.05859,-0.0820313 0.05859,-0.10546875 0.246094,-0.3046875 0.445312,0.5625 1.101562,0.5625 1.300781,0.5625 1.253906,0 1.875,-0.69140625 1.875,-1.64062504 0,-0.6445312 -0.398437,-1.0195312 -0.503906,-1.125 -0.433594,-0.375 -0.75,-0.4453125 -1.535156,-0.5859375 -0.363282,-0.082031 -1.230469,-0.2460937 -1.230469,-0.9609375 0,-0.375 0.246094,-0.9257812 1.324219,-0.9257812 1.300781,0 1.371093,1.1132812 1.394531,1.4882812 0.01172,0.09375 0.09375,0.09375 0.128906,0.09375 0.140625,0 0.140625,-0.058594 0.140625,-0.2695312 z m 5.273438,2.2734375 c 0.257812,0 0.28125,0 0.28125,-0.2226563 0,-1.2070312 -0.644532,-2.3320312 -2.085938,-2.3320312 -1.371094,0 -2.414062,1.2304687 -2.414062,2.71875 0,1.5703125 1.21875,2.73046874 2.542968,2.73046874 1.417969,0 1.957032,-1.28906254 1.957032,-1.53515624 0,-0.082031 -0.05859,-0.1289063 -0.128907,-0.1289063 -0.09375,0 -0.117187,0.070312 -0.140625,0.1289063 -0.316406,0.99609374 -1.113281,1.27734374 -1.617187,1.27734374 -0.503906,0 -1.710938,-0.33984375 -1.710938,-2.40234374 v -0.234375 z m -3.304688,-0.2226563 c 0.09375,-1.875 1.148438,-2.0976562 1.488281,-2.0976562 1.277344,0 1.347657,1.6875 1.359375,2.0976562 z m 5.917969,0.2109375 c 0,-1.1601562 0.480469,-2.2382812 1.40625,-2.2382812 0.09375,0 0.117187,0 0.164062,0.011719 -0.09375,0.046875 -0.292968,0.1171875 -0.292968,0.4335938 0,0.3515625 0.28125,0.4804687 0.46875,0.4804687 0.246093,0 0.480468,-0.1523437 0.480468,-0.4804687 0,-0.3515625 -0.316406,-0.6914063 -0.832031,-0.6914063 -1.019531,0 -1.371094,1.1015625 -1.441406,1.3242188 h -0.01172 v -1.3242188 l -1.59375,0.1289063 V -4.79157 c 0.808594,0 0.902344,0.082031 0.902344,0.6679687 v 3.24609379 c 0,0.52734375 -0.128906,0.52734375 -0.902344,0.52734375 v 0.3515625 c 0.328125,-0.0234375 0.984375,-0.0234375 1.347656,-0.0234375 0.316407,0 1.171875,0 1.441407,0.0234375 v -0.3515625 h -0.234375 c -0.878907,0 -0.902344,-0.12890625 -0.902344,-0.5625 z m 7.435547,-1.2304687 c 0.105468,-0.2578125 0.316406,-0.7734375 1.078125,-0.7851563 v -0.3515625 c -0.351563,0.023437 -0.515625,0.023437 -0.890625,0.023437 -0.246094,0 -0.421875,0 -0.972657,-0.023437 v 0.3515625 c 0.503907,0.023437 0.5625,0.3867188 0.5625,0.515625 0,0.1054688 -0.02344,0.1640625 -0.08203,0.3046875 l -1.21875,3.08203129 -1.347656,-3.36328129 c -0.05859,-0.1640625 -0.07031,-0.1640625 -0.07031,-0.234375 0,-0.3046875 0.457032,-0.3046875 0.667969,-0.3046875 v -0.3515625 c -0.292969,0.023437 -0.914062,0.023437 -1.242187,0.023437 -0.386719,0 -0.410157,0 -1.148438,-0.023437 v 0.3515625 c 0.667969,0 0.796875,0.046875 0.9375,0.421875 l 1.710938,4.27734379 c 0.05859,0.1640625 0.08203,0.22265625 0.222656,0.22265625 0.08203,0 0.152344,-0.0234375 0.246094,-0.22265625 z m 5.563476,1.2421875 c 0.257813,0 0.28125,0 0.28125,-0.2226563 0,-1.2070312 -0.644531,-2.3320312 -2.085937,-2.3320312 -1.371094,0 -2.414063,1.2304687 -2.414063,2.71875 0,1.5703125 1.21875,2.73046874 2.542969,2.73046874 1.417969,0 1.957031,-1.28906254 1.957031,-1.53515624 0,-0.082031 -0.05859,-0.1289063 -0.128906,-0.1289063 -0.09375,0 -0.117188,0.070312 -0.140625,0.1289063 -0.316406,0.99609374 -1.113281,1.27734374 -1.617188,1.27734374 -0.503906,0 -1.710937,-0.33984375 -1.710937,-2.40234374 v -0.234375 z m -3.304687,-0.2226563 c 0.09375,-1.875 1.148437,-2.0976562 1.488281,-2.0976562 1.277344,0 1.347656,1.6875 1.359375,2.0976562 z m 5.917968,0.2109375 c 0,-1.1601562 0.480469,-2.2382812 1.40625,-2.2382812 0.09375,0 0.117188,0 0.164063,0.011719 -0.09375,0.046875 -0.292969,0.1171875 -0.292969,0.4335938 0,0.3515625 0.28125,0.4804687 0.46875,0.4804687 0.246094,0 0.480469,-0.1523437 0.480469,-0.4804687 0,-0.3515625 -0.316406,-0.6914063 -0.832031,-0.6914063 -1.019532,0 -1.371094,1.1015625 -1.441407,1.3242188 h -0.01172 v -1.3242188 l -1.59375,0.1289063 V -4.79157 c 0.808593,0 0.902343,0.082031 0.902343,0.6679687 v 3.24609379 c 0,0.52734375 -0.128906,0.52734375 -0.902343,0.52734375 v 0.3515625 c 0.328125,-0.0234375 0.984375,-0.0234375 1.347656,-0.0234375 0.316406,0 1.171875,0 1.441406,0.0234375 v -0.3515625 h -0.234375 c -0.878906,0 -0.902344,-0.12890625 -0.902344,-0.5625 z m 0,0"
       style="fill:#000000;fill-opacity:1;fill-rule:nonzero;stroke:none"
       aria-label="Observer"
       transform="matrix(1.3333333,0,0,1.3333333,266.15467,199.14267)" />
    <path
       id="path9"
       d="m 147.25229,0 c 0,3.04764 -2.47055,5.51819 -5.5182,5.51819 -3.04764,0 -5.51819,-2.47055 -5.51819,-5.51819 0,-3.04764 2.47055,-5.51819 5.51819,-5.51819 3.04765,0 5.5182,2.47055 5.5182,5.51819 z"
       style="fill:none;stroke:#000000;stroke-width:0.3985;stroke-linecap:butt;stroke-linejoin:miter;stroke-miterlimit:10;stroke-dasharray:none;stroke-opacity:1"
       transform="matrix(1.3333333,0,0,-1.3333333,239.85467,61.324)" />
    <path
       id="path10"
       d="m -136.2159,0 c 0,3.04764 -2.47055,5.51819 -5.51819,5.51819 -3.04765,0 -5.5182,-2.47055 -5.5182,-5.51819 0,-3.04764 2.47055,-5.51819 5.5182,-5.51819 3.04764,0 5.51819,2.47055 5.51819,5.51819 z"
       style="fill:none;stroke:#000000;stroke-width:0.3985;stroke-linecap:butt;stroke-linejoin:miter;stroke-miterlimit:10;stroke-dasharray:none;stroke-opacity:1"
       transform="matrix(1.3333333,0,0,-1.3333333,239.85467,61.324)" />
    <path
       id="path11"
       d="m -79.52223,-141.73409 c 0,3.04764 -2.47054,5.51819 -5.51819,5.51819 -3.04765,0 -5.5182,-2.47055 -5.5182,-5.51819 0,-3.04765 2.47055,-5.5182 5.5182,-5.5182 3.04765,0 5.51819,2.47055 5.51819,5.5182 z"
       style="fill:none;stroke:#000000;stroke-width:0.3985;stroke-linecap:butt;stroke-linejoin:miter;stroke-miterlimit:10;stroke-dasharray:none;stroke-opacity:1"
       transform="matrix(1.3333333,0,0,-1.3333333,239.85467,61.324)" />
    <path
       id="path12"
       d="m -54.92194,0 c 0,0.97847 -0.79319,1.77167 -1.77168,1.77167 -0.97847,0 -1.77167,-0.7932 -1.77167,-1.77167 0,-0.97847 0.7932,-1.77167 1.77167,-1.77167 0.97849,0 1.77168,0.7932 1.77168,1.77167 z"
       style="fill:#000000;fill-opacity:1;fill-rule:nonzero;stroke:#000000;stroke-width:0.3985;stroke-linecap:butt;stroke-linejoin:miter;stroke-miterlimit:10;stroke-dasharray:none;stroke-opacity:1"
       transform="matrix(1.3333333,0,0,-1.3333333,239.85467,61.324)" />
    <path
       id="path13"
       d="m 44.73373,0 c 0,0.97847 -0.79319,1.77167 -1.77166,1.77167 -0.97849,0 -1.77169,-0.7932 -1.77169,-1.77167 0,-0.97847 0.7932,-1.77167 1.77169,-1.77167 0.97847,0 1.77166,0.7932 1.77166,1.77167 z"
       style="fill:#000000;fill-opacity:1;fill-rule:nonzero;stroke:#000000;stroke-width:0.3985;stroke-linecap:butt;stroke-linejoin:miter;stroke-miterlimit:10;stroke-dasharray:none;stroke-opacity:1"
       transform="matrix(1.3333333,0,0,-1.3333333,239.85467,61.324)" />
    <path
       id="path14"
       d="m 73.08054,0 c 0,0.97847 -0.7932,1.77167 -1.77167,1.77167 -0.97847,0 -1.77167,-0.7932 -1.77167,-1.77167 0,-0.97847 0.7932,-1.77167 1.77167,-1.77167 0.97847,0 1.77167,0.7932 1.77167,1.77167 z"
       style="fill:#000000;fill-opacity:1;fill-rule:nonzero;stroke:#000000;stroke-width:0.3985;stroke-linecap:butt;stroke-linejoin:miter;stroke-miterlimit:10;stroke-dasharray:none;stroke-opacity:1"
       transform="matrix(1.3333333,0,0,-1.3333333,239.85467,61.324)" />
    <path
       id="path15"
       d="m -83.26875,0 c 0,0.97847 -0.7932,1.77167 -1.77167,1.77167 -0.97847,0 -1.77167,-0.7932 -1.77167,-1.77167 0,-0.97847 0.7932,-1.77167 1.77167,-1.77167 0.97847,0 1.77167,0.7932 1.77167,1.77167 z"
       style="fill:#000000;fill-opacity:1;fill-rule:nonzero;stroke:#000000;stroke-width:0.3985;stroke-linecap:butt;stroke-linejoin:miter;stroke-miterlimit:10;stroke-dasharray:none;stroke-opacity:1"
       transform="matrix(1.3333333,0,0,-1.3333333,239.85467,61.324)" />
    <path
       id="path16"
       d="m 9.3503125,-4.066875 c 0,-2.53125 -1.6523437,-4.2773437 -4.3125,-4.2773437 -2.6601562,0 -4.30078125,1.7578125 -4.30078125,4.2773437 0,2.5195313 1.67578125,4.20703125 4.30078125,4.20703125 2.6367188,0 4.3125,-1.68749995 4.3125,-4.20703125 z m -4.3125,3.75 c -0.7734375,0 -1.5234375,-0.36328125 -1.9804687,-1.0429687 C 2.483125,-2.23875 2.4245313,-3.36375 2.4245313,-4.2309375 c 0,-0.7265625 0.035156,-1.734375 0.5273437,-2.5429687 0.5273438,-0.84375 1.3828125,-1.1367188 2.0859375,-1.1367188 0.9726563,0 1.6875,0.515625 2.0390625,1.0546875 0.4453125,0.6914063 0.5859375,1.4296875 0.5859375,2.625 0,1.1835938 -0.1289062,2.1796875 -0.7265625,3 -0.3046875,0.41015625 -0.9609375,0.9140625 -1.8984375,0.9140625 z m 8.4375005,2.1210938 h -0.832032 v -2.29687505 c 0.304688,0.26953125 0.832032,0.5625 1.546875,0.5625 1.640625,0 2.917969,-0.99609375 2.917969,-2.73046875 0,-1.6523437 -1.113281,-2.71875 -2.730469,-2.71875 -0.703125,0 -1.3125,0.234375 -1.792968,0.6210938 V -5.379375 l -2.0625,0.09375 V -4.77 c 0.738281,0 0.820312,0 0.820312,0.46875 v 6.1054688 h -0.820312 v 0.515625 c 0.269531,-0.023437 1.136718,-0.023437 1.464843,-0.023437 0.339844,0 1.207032,0 1.488282,0.023437 z m -0.832032,-5.9882813 c 0.445313,-0.5742187 1.078125,-0.7617187 1.546875,-0.7617187 0.773438,0 1.476563,0.703125 1.476563,2.2851562 0,1.72265625 -0.855469,2.33203125 -1.617188,2.33203125 -0.515625,0 -1.03125,-0.2578125 -1.40625,-0.82031245 z m 7.450196,-0.609375 h 1.722656 v -0.515625 H 20.093477 V -7.5942187 H 19.58957 c -0.01172,1.1835937 -0.585937,2.3671875 -1.769531,2.4023437 v 0.3984375 h 0.972656 v 3.328125 c 0,1.265625 0.984375,1.53515625 1.839844,1.53515625 0.890625,0 1.40625,-0.66796875 1.40625,-1.54687495 v -0.6445313 h -0.492187 v 0.6210938 c 0,0.79687495 -0.363282,1.1367187 -0.738282,1.1367187 -0.714843,0 -0.714843,-0.796875 -0.714843,-1.0664062 z m 5.370117,-2.6484375 c 0,-0.4921875 -0.386719,-0.8671875 -0.855469,-0.8671875 -0.492188,0 -0.855469,0.4101563 -0.855469,0.8671875 0,0.4453125 0.363281,0.8554688 0.855469,0.8554688 0.46875,0 0.855469,-0.375 0.855469,-0.8554688 z m -2.097657,2.15625 V -4.77 c 0.703125,0 0.785157,0 0.785157,0.46875 v 3.78515625 h -0.820313 v 0.515625 c 0.269531,-0.0234375 1.101563,-0.0234375 1.417969,-0.0234375 0.339844,0 1.101562,0 1.394531,0.0234375 v -0.515625 h -0.75 V -5.379375 Z m 13.262696,1.6289063 c 0,-1.1015625 -0.46875,-1.7226563 -1.804688,-1.7226563 -1.207031,0 -1.769531,0.8085938 -1.957031,1.1953125 -0.199219,-1.0195312 -1.007812,-1.1953125 -1.769531,-1.1953125 -1.148438,0 -1.769531,0.7382813 -2.027344,1.3125 h -0.01172 v -1.3125 l -2.015625,0.09375 V -4.77 c 0.738282,0 0.820313,0 0.820313,0.46875 v 3.78515625 h -0.820313 v 0.515625 c 0.269532,-0.0234375 1.136719,-0.0234375 1.464844,-0.0234375 0.339844,0 1.207031,0 1.488281,0.0234375 v -0.515625 h -0.83203 V -3.0590625 c 0,-1.3007812 0.972656,-1.921875 1.722656,-1.921875 0.445313,0 0.703125,0.2578125 0.703125,1.1953125 v 3.26953125 h -0.820312 v 0.515625 c 0.28125,-0.0234375 1.136719,-0.0234375 1.476562,-0.0234375 0.328125,0 1.207032,0 1.476563,0.0234375 v -0.515625 H 32.90207 V -3.0590625 c 0,-1.3007812 0.960938,-1.921875 1.722657,-1.921875 0.433593,0 0.703125,0.2578125 0.703125,1.1953125 v 3.26953125 H 34.49582 v 0.515625 c 0.28125,-0.0234375 1.136719,-0.0234375 1.476563,-0.0234375 0.328125,0 1.207031,0 1.476562,0.0234375 v -0.515625 h -0.820312 z m 6.615234,0.082031 c 0,-1.1015625 -0.867187,-1.8398437 -2.554687,-1.8398437 -0.667969,0 -2.085938,0.058594 -2.085938,1.0664062 0,0.5039063 0.386719,0.7148438 0.714844,0.7148438 0.351562,0 0.703125,-0.2578125 0.703125,-0.703125 0,-0.234375 -0.08203,-0.4453125 -0.292969,-0.5742188 0.398438,-0.1054687 0.679688,-0.1054687 0.914063,-0.1054687 0.808593,0 1.300781,0.4453125 1.300781,1.4296875 v 0.4804687 c -1.886719,0 -3.785156,0.5273438 -3.785156,1.8515625 0,1.08984375 1.382812,1.32421875 2.203125,1.32421875 0.925781,0 1.511718,-0.50390625 1.746093,-1.03125 0,0.4453125 0,0.9609375 1.207032,0.9609375 h 0.609375 c 0.257812,0 0.351562,0 0.351562,-0.2578125 0,-0.2578125 -0.105469,-0.2578125 -0.28125,-0.2578125 -0.75,-0.0117188 -0.75,-0.19921875 -0.75,-0.48046875 z m -1.300781,1.9101563 c 0,1.12499995 -1.007813,1.33593745 -1.382813,1.33593745 -0.585937,0 -1.078125,-0.38671875 -1.078125,-0.93749995 0,-1.0898438 1.289063,-1.4648438 2.460938,-1.5234375 z m 4.933594,-6.6328125 -2.0625,0.09375 v 0.515625 c 0.738281,0 0.820312,0 0.820312,0.46875 v 6.70312495 H 44.81418 v 0.515625 c 0.269531,-0.0234375 1.125,-0.0234375 1.441406,-0.0234375 0.328125,0 1.171875,0 1.453125,0.0234375 v -0.515625 H 46.87668 Z m 11.956054,4.2304687 c 1.605469,-0.4335937 2.003907,-1.2890625 2.003907,-1.9335937 0,-1.1953125 -1.253907,-2.203125 -3.46875,-2.203125 h -4.40625 v 0.515625 h 1.265625 v 7.17187495 h -1.265625 v 0.515625 c 0.339843,-0.0234375 1.582031,-0.0234375 2.015625,-0.0234375 0.433593,0 1.6875,0 2.039062,0.0234375 v -0.515625 H 55.738984 V -3.9145312 h 1.429688 c 0.480469,0 0.855469,0.1523437 1.125,0.4570312 0.351562,0.4101563 0.351562,0.6679688 0.351562,1.4765625 0,0.796875 0,1.2890625 0.609375,1.69921875 0.621094,0.41015625 1.605469,0.421875 1.863282,0.421875 1.21875,0 1.371093,-1.078125 1.371093,-1.24218745 0,-0.1992188 -0.09375,-0.234375 -0.257812,-0.234375 -0.222656,0 -0.234375,0.082031 -0.246094,0.234375 -0.05859,0.5976562 -0.433594,0.8554687 -0.761719,0.8554687 -0.773437,0 -0.855468,-0.8085937 -0.949218,-1.9101562 -0.07031,-0.6328125 -0.152344,-1.5117188 -1.441407,-1.9101565 z m -1.6875,-0.234375 h -1.40625 v -3.3867187 h 1.429688 c 1.945312,0 1.980469,0.984375 1.980469,1.6875 0,0.65625 -0.01172,1.6992187 -2.003907,1.6992187 z m 10.792969,1.6640625 c 0.28125,0 0.351563,0 0.351563,-0.3046875 0,-0.3632812 -0.09375,-1.2539062 -0.632813,-1.8164062 -0.503906,-0.5039063 -1.171875,-0.65625 -1.875,-0.65625 -1.863281,0 -2.871094,1.21875 -2.871094,2.71875 0,1.6757812 1.230469,2.76562495 3.035157,2.76562495 1.804687,0 2.34375,-1.26562495 2.34375,-1.46484375 0,-0.1875 -0.1875,-0.1875 -0.257813,-0.1875 -0.1875,0 -0.199219,0.035156 -0.269531,0.1992188 -0.316406,0.77343745 -1.101563,1.0195312 -1.675781,1.0195312 -1.734375,0 -1.746094,-1.6054687 -1.746094,-2.2734375 z M 64.340547,-2.98875 c 0.02344,-0.4921875 0.03516,-0.9609375 0.292969,-1.3828125 0.222656,-0.3867187 0.644531,-0.6445312 1.148437,-0.6445312 1.289063,0 1.394531,1.4296875 1.40625,2.0273437 z m 5.891601,0.8085938 c 0.574219,0.3164062 1.242188,0.3164062 1.417969,0.3164062 1.652344,0 2.308594,-0.9257812 2.308594,-1.7578125 0,-0.609375 -0.351563,-1.0429687 -0.492188,-1.1601562 0.351563,-0.1875 0.632813,-0.234375 0.832032,-0.2578125 -0.03516,0.058594 -0.07031,0.1054687 -0.07031,0.2578125 0,0.2460937 0.175781,0.4804687 0.480469,0.4804687 0.316406,0 0.480469,-0.234375 0.480469,-0.4804687 0,-0.28125 -0.210938,-0.6679688 -0.714844,-0.6679688 -0.515625,0 -1.007813,0.2460938 -1.253906,0.46875 -0.492188,-0.2929687 -0.960938,-0.3984375 -1.570313,-0.3984375 -1.652344,0 -2.308594,0.9257813 -2.308594,1.7578125 0,0.375 0.117188,0.8554688 0.621094,1.265625 -0.199219,0.2226563 -0.421875,0.6445313 -0.421875,1.078125 0,0.515625 0.28125,0.94921875 0.527344,1.1484375 -0.28125,0.0703125 -1.019531,0.33984375 -1.019531,1.03125 0,0.703125 0.773437,1.5 2.976562,1.5 1.980469,0 2.988281,-0.6445312 2.988281,-1.546875 0,-1.04296875 -0.703125,-1.39453125 -0.996093,-1.53515625 C 73.443086,-0.973125 72.681367,-0.973125 71.62668,-0.973125 c -0.304688,0 -0.820313,0 -0.890625,-0.0117188 -0.503907,-0.0820313 -0.65625,-0.5390624 -0.65625,-0.7617188 0,-0.09375 0.01172,-0.2695312 0.152343,-0.4335936 z m 1.417969,-0.070312 c -1.042969,0 -1.042969,-0.8203125 -1.042969,-1.3710938 0,-0.5507812 0,-1.3710937 1.042969,-1.3710937 1.042969,0 1.042969,0.8203125 1.042969,1.3710937 0,0.5507813 0,1.3710938 -1.042969,1.3710938 z m 0.667969,2.3789062 c 0.878906,0 1.710937,0.15234375 1.710937,0.78515625 0,0.41015625 -0.421875,1.10156255 -1.992187,1.10156255 -1.582031,0 -2.015625,-0.6679688 -2.015625,-1.1132813 0,-0.7734375 0.761719,-0.7734375 0.9375,-0.7734375 z m 7.297851,-5.414063 V -4.77 c 0.738282,0 0.820313,0 0.820313,0.46875 v 2.34375 c 0,0.9023438 -0.527344,1.62890625 -1.464844,1.62890625 -0.902344,0 -0.949219,-0.29296875 -0.949219,-0.94921875 V -5.379375 l -2.121093,0.09375 V -4.77 c 0.738281,0 0.820312,0 0.820312,0.46875 v 2.8359375 c 0,1.1953125 0.808594,1.53515625 2.085938,1.53515625 0.28125,0 1.171875,0 1.6875,-0.97265625 h 0.01172 v 0.97265625 l 2.0625,-0.0703125 v -0.515625 c -0.738281,0 -0.820312,0 -0.820312,-0.46875 V -5.379375 Z m 5.844727,-3.0117187 -2.0625,0.09375 v 0.515625 c 0.738281,0 0.820313,0 0.820313,0.46875 v 6.70312495 h -0.820313 v 0.515625 c 0.269531,-0.0234375 1.125,-0.0234375 1.441406,-0.0234375 0.328125,0 1.171875,0 1.453125,0.0234375 v -0.515625 h -0.832031 z m 6.641602,4.7226562 c 0,-1.1015625 -0.867188,-1.8398437 -2.554688,-1.8398437 -0.667969,0 -2.085937,0.058594 -2.085937,1.0664062 0,0.5039063 0.386718,0.7148438 0.714843,0.7148438 0.351563,0 0.703125,-0.2578125 0.703125,-0.703125 0,-0.234375 -0.08203,-0.4453125 -0.292968,-0.5742188 0.398437,-0.1054687 0.679687,-0.1054687 0.914062,-0.1054687 0.808594,0 1.300781,0.4453125 1.300781,1.4296875 v 0.4804687 c -1.886718,0 -3.785156,0.5273438 -3.785156,1.8515625 0,1.08984375 1.382813,1.32421875 2.203125,1.32421875 0.925781,0 1.511719,-0.50390625 1.746094,-1.03125 0,0.4453125 0,0.9609375 1.207031,0.9609375 h 0.609375 c 0.257813,0 0.351563,0 0.351563,-0.2578125 0,-0.2578125 -0.105469,-0.2578125 -0.28125,-0.2578125 -0.75,-0.0117188 -0.75,-0.19921875 -0.75,-0.48046875 z m -1.300782,1.9101563 c 0,1.12499995 -1.007812,1.33593745 -1.382812,1.33593745 -0.585938,0 -1.078125,-0.38671875 -1.078125,-0.93749995 0,-1.0898438 1.289062,-1.4648438 2.460937,-1.5234375 z m 4.863282,-3.1289063 h 1.722656 v -0.515625 h -1.722656 v -2.2851562 h -0.503907 c -0.01172,1.1835937 -0.585937,2.3671875 -1.769531,2.4023437 v 0.3984375 h 0.972656 v 3.328125 c 0,1.265625 0.984375,1.53515625 1.839844,1.53515625 0.890625,0 1.40625,-0.66796875 1.40625,-1.54687495 v -0.6445313 h -0.492187 v 0.6210938 c 0,0.79687495 -0.363282,1.1367187 -0.738282,1.1367187 -0.714843,0 -0.714843,-0.796875 -0.714843,-1.0664062 z m 9.049804,2.1796875 c 0,-1.6171875 -1.10156,-2.8007812 -2.97656,-2.8007812 -1.957033,0 -2.988283,1.2421875 -2.988283,2.8007812 0,1.5585938 1.089843,2.68359375 2.976563,2.68359375 1.94531,0 2.98828,-1.18359375 2.98828,-2.68359375 z m -2.97656,2.25 c -1.5586,0 -1.5586,-1.3945312 -1.5586,-2.3789062 0,-0.5625 0,-1.1601563 0.22266,-1.5820313 0.26953,-0.4804687 0.80859,-0.6914062 1.32422,-0.6914062 0.67969,0 1.10156,0.3164062 1.3125,0.65625 0.23437,0.421875 0.23437,1.0429687 0.23437,1.6171875 0,0.9960937 0,2.3789062 -1.53515,2.3789062 z m 5.84472,-2.3320312 c 0,-0.3867188 0.082,-2.2851563 1.48829,-2.2851563 -0.17579,0.1289063 -0.25782,0.328125 -0.25782,0.5507813 0,0.4804687 0.39844,0.6914062 0.69141,0.6914062 0.30469,0 0.70312,-0.2109375 0.70312,-0.6914062 0,-0.609375 -0.62109,-0.9492188 -1.19531,-0.9492188 -0.94922,0 -1.35937,0.8203125 -1.52344,1.3242188 h -0.0117 V -5.379375 l -1.95704,0.09375 V -4.77 c 0.73829,0 0.82032,0 0.82032,0.46875 v 3.78515625 h -0.82032 v 0.515625 c 0.26954,-0.0234375 1.17188,-0.0234375 1.5,-0.0234375 0.35157,0 1.3125,0 1.60547,0.0234375 v -0.515625 h -1.04297 z m 0,0"
       style="fill:#000000;fill-opacity:1;fill-rule:nonzero;stroke:none"
       aria-label="OptimalRegulator"
       transform="matrix(1.3333333,0,0,1.3333333,166.12667,295.86)" />
    <path
       id="path17"
       d="M -56.69362,14.17339 V -18.42525"
       style="fill:none;stroke:#000000;stroke-width:0.79701;stroke-linecap:butt;stroke-linejoin:miter;stroke-miterlimit:10;stroke-dasharray:0.79701, 1.99255;stroke-dashoffset:0;stroke-opacity:1"
       transform="matrix(1.3333333,0,0,-1.3333333,239.85467,61.324)" />
    <g
       id="g17"
       aria-label="ζ=0"
       transform="matrix(1.3333333,0,0,1.3333333,145.85333,98.913333)">
      <path
         id="path18"
         d="M 2.2603906,-0.58539062 C 1.5572656,-0.85492187 1.1471094,-1.3939844 1.1471094,-2.2963281 c 0,-1.640625 1.2070312,-3.8203125 2.671875,-4.6757813 0.2226562,0.2109375 0.4921875,0.2109375 0.7265625,0.2109375 0.2929687,0 1.0195312,0 1.0195312,-0.3515625 0,-0.28125 -0.5390625,-0.2929687 -0.9140625,-0.2929687 -0.2460937,0 -0.4453125,0 -0.75,0.1289062 -0.082031,-0.1523437 -0.1171875,-0.328125 -0.1171875,-0.5039062 0,-0.2109375 0.046875,-0.3867188 0.046875,-0.421875 0,-0.070312 -0.058594,-0.1171875 -0.1171875,-0.1171875 -0.1875,0 -0.1875,0.4453125 -0.1875,0.5390625 0,0.1054687 0,0.3632812 0.140625,0.609375 -1.3828125,0.7148437 -3.12890623,2.953125 -3.12890623,5.1914062 0,1.62890628 1.08984373,2.01562503 1.71093753,2.22656253 0.1523437,0.0585938 0.5390625,0.1875 0.6914062,0.24609375 0.4921875,0.1640625 0.9609375,0.31640625 0.9609375,0.89062502 0,0.3515625 -0.2578125,0.8203125 -0.703125,0.8203125 -0.234375,0 -0.5625,-0.082031 -0.8554687,-0.3867188 -0.046875,-0.046875 -0.070312,-0.070312 -0.1289063,-0.070312 -0.09375,0 -0.1171875,0.09375 -0.1171875,0.1171875 0,0.1171875 0.5039063,0.5742188 1.1015625,0.5742188 0.7734375,0 1.3007813,-0.796875 1.3007813,-1.4179688 0,-0.84374997 -0.703125,-1.07812497 -1.1367188,-1.21874997 z m 1.828125,-6.50390628 c 0.1757813,-0.082031 0.3398438,-0.082031 0.5507813,-0.082031 0.375,0 0.4101562,0.011719 0.65625,0.070312 -0.140625,0.058594 -0.2460938,0.09375 -0.7382813,0.09375 -0.2578125,0 -0.3398437,0 -0.46875,-0.082031 z m 0,0"
         style="fill:#000000;fill-opacity:1;fill-rule:nonzero;stroke:none" />
      <path
         id="path19"
         d="m 17.409805,-3.8666406 c 0.164062,0 0.375,0 0.375,-0.2226563 0,-0.2226562 -0.199219,-0.2226562 -0.375,-0.2226562 h -7.042969 c -0.175781,0 -0.3867188,0 -0.3867188,0.2109375 0,0.234375 0.1992188,0.234375 0.3867188,0.234375 z m 0,2.2148437 c 0.164062,0 0.375,0 0.375,-0.2109375 0,-0.234375 -0.199219,-0.234375 -0.375,-0.234375 h -7.042969 c -0.175781,0 -0.3867188,0 -0.3867188,0.2226563 0,0.2226562 0.1992188,0.2226562 0.3867188,0.2226562 z m 9.711914,-2.1679687 c 0,-0.9960938 -0.05859,-1.96875 -0.492188,-2.8710938 -0.492187,-0.9960937 -1.347656,-1.2539062 -1.933594,-1.2539062 -0.691406,0 -1.546875,0.3398437 -1.980468,1.3359375 -0.339844,0.75 -0.457032,1.4882812 -0.457032,2.7890625 0,1.1601562 0.08203,2.0273437 0.515625,2.87109373 0.457032,0.9140625 1.289063,1.1953125 1.910157,1.1953125 1.042968,0 1.640625,-0.62109375 1.980468,-1.31250003 0.433594,-0.890625 0.457032,-2.0625 0.457032,-2.7539062 z m -2.4375,3.83203123 c -0.386719,0 -1.160157,-0.2109375 -1.382813,-1.52343753 -0.140625,-0.7148437 -0.140625,-1.6171875 -0.140625,-2.4609375 0,-0.9726562 0,-1.8632812 0.199219,-2.5664062 0.199219,-0.796875 0.808594,-1.171875 1.324219,-1.171875 0.457031,0 1.148437,0.28125 1.371093,1.3007812 0.152344,0.6796875 0.152344,1.6289063 0.152344,2.4375 0,0.8085938 0,1.7109375 -0.128906,2.4375 -0.222656,1.32421878 -0.972656,1.54687503 -1.394531,1.54687503 z m 0,0"
         style="fill:#000000;fill-opacity:1;fill-rule:nonzero;stroke:none" />
    </g>
    <path
       id="path20"
       d="M 42.96207,14.17339 V -18.42525"
       style="fill:none;stroke:#000000;stroke-width:0.79701;stroke-linecap:butt;stroke-linejoin:miter;stroke-miterlimit:10;stroke-dasharray:0.79701, 1.99255;stroke-dashoffset:0;stroke-opacity:1"
       transform="matrix(1.3333333,0,0,-1.3333333,239.85467,61.324)" />
    <g
       id="g20"
       aria-label="ζ=1"
       transform="matrix(1.3333333,0,0,1.3333333,278.72667,98.913333)">
      <path
         id="path21"
         d="M 2.2616406,-0.58539062 C 1.5585156,-0.85492187 1.1483594,-1.3939844 1.1483594,-2.2963281 c 0,-1.640625 1.2070312,-3.8203125 2.671875,-4.6757813 0.2226562,0.2109375 0.4921875,0.2109375 0.7265625,0.2109375 0.2929687,0 1.0195312,0 1.0195312,-0.3515625 0,-0.28125 -0.5390625,-0.2929687 -0.9140625,-0.2929687 -0.2460937,0 -0.4453125,0 -0.75,0.1289062 -0.082031,-0.1523437 -0.1171875,-0.328125 -0.1171875,-0.5039062 0,-0.2109375 0.046875,-0.3867188 0.046875,-0.421875 0,-0.070312 -0.058594,-0.1171875 -0.1171875,-0.1171875 -0.1875,0 -0.1875,0.4453125 -0.1875,0.5390625 0,0.1054687 0,0.3632812 0.140625,0.609375 -1.3828125,0.7148437 -3.12890623,2.953125 -3.12890623,5.1914062 0,1.62890628 1.08984373,2.01562503 1.71093753,2.22656253 0.1523437,0.0585938 0.5390625,0.1875 0.6914062,0.24609375 0.4921875,0.1640625 0.9609375,0.31640625 0.9609375,0.89062502 0,0.3515625 -0.2578125,0.8203125 -0.703125,0.8203125 -0.234375,0 -0.5625,-0.082031 -0.8554687,-0.3867188 -0.046875,-0.046875 -0.070312,-0.070312 -0.1289063,-0.070312 -0.09375,0 -0.1171875,0.09375 -0.1171875,0.1171875 0,0.1171875 0.5039063,0.5742188 1.1015625,0.5742188 0.7734375,0 1.3007813,-0.796875 1.3007813,-1.4179688 0,-0.84374997 -0.703125,-1.07812497 -1.1367188,-1.21874997 z m 1.828125,-6.50390628 c 0.1757813,-0.082031 0.3398438,-0.082031 0.5507813,-0.082031 0.375,0 0.4101562,0.011719 0.65625,0.070312 -0.140625,0.058594 -0.2460938,0.09375 -0.7382813,0.09375 -0.2578125,0 -0.3398437,0 -0.46875,-0.082031 z m 0,0"
         style="fill:#000000;fill-opacity:1;fill-rule:nonzero;stroke:none" />
      <path
         id="path22"
         d="m 17.411055,-3.8666406 c 0.164062,0 0.375,0 0.375,-0.2226563 0,-0.2226562 -0.199219,-0.2226562 -0.375,-0.2226562 h -7.042969 c -0.175781,0 -0.3867188,0 -0.3867188,0.2109375 0,0.234375 0.1992188,0.234375 0.3867188,0.234375 z m 0,2.2148437 c 0.164062,0 0.375,0 0.375,-0.2109375 0,-0.234375 -0.199219,-0.234375 -0.375,-0.234375 h -7.042969 c -0.175781,0 -0.3867188,0 -0.3867188,0.2226563 0,0.2226562 0.1992188,0.2226562 0.3867188,0.2226562 z m 7.798828,-6.0117187 c 0,-0.2695313 0,-0.28125 -0.246094,-0.28125 -0.28125,0.3164062 -0.878906,0.7617187 -2.109375,0.7617187 v 0.3515625 c 0.269531,0 0.867188,0 1.523438,-0.3164062 v 6.22265623 c 0,0.43359375 -0.03516,0.57421875 -1.078125,0.57421875 h -0.375 V 5.46875e-4 c 0.316406,-0.023437495 1.476562,-0.023437495 1.875,-0.023437495 0.398437,0 1.546875,0 1.863281,0.023437495 V -0.35101562 h -0.363281 c -1.054688,0 -1.089844,-0.140625 -1.089844,-0.57421875 z m 0,0"
         style="fill:#000000;fill-opacity:1;fill-rule:nonzero;stroke:none" />
    </g>
    <g
       id="g22"
       aria-label="Rx(1,t−"
       transform="matrix(1.3333333,0,0,1.3333333,124.37733,127.88133)">
      <path
         id="path23"
         d="m 4.3957109,-7.3465469 c 0.1171875,-0.4453125 0.1640625,-0.46875 0.6210938,-0.46875 h 0.8671875 c 1.03125,0 1.7929687,0.3046875 1.7929687,1.2421875 0,0.609375 -0.3164062,2.3671875 -2.71875,2.3671875 H 3.6105547 Z m 1.6640625,3.28125 c 1.4882813,-0.3164062 2.6484375,-1.2773437 2.6484375,-2.3085937 0,-0.9257813 -0.9492187,-1.7929688 -2.6132812,-1.7929688 h -3.234375 c -0.2460938,0 -0.3515625,0 -0.3515625,0.234375 0,0.1171875 0.082031,0.1171875 0.3164062,0.1171875 0.7148438,0 0.7148438,0.09375 0.7148438,0.2226563 0,0.023437 0,0.09375 -0.046875,0.28125 l -1.6171875,6.43359373 c -0.1054688,0.41015625 -0.1289063,0.52734375 -0.94921876,0.52734375 -0.28125,0 -0.36328125,0 -0.36328125,0.234375 0,0.1171875 0.12890625,0.1171875 0.1640625,0.1171875 0.22265625,0 0.46875001,-0.0234375 0.69140621,-0.0234375 h 1.4179688 c 0.2109375,0 0.46875,0.0234375 0.6796875,0.0234375 0.09375,0 0.2226562,0 0.2226562,-0.22265625 0,-0.12890625 -0.1054687,-0.12890625 -0.28125,-0.12890625 -0.7265625,0 -0.7265625,-0.09375 -0.7265625,-0.2109375 0,-0.0117188 0,-0.09375 0.023437,-0.1875 l 0.796875,-3.22265628 h 1.4296875 c 1.1367188,0 1.359375,0.7265625 1.359375,1.1132813 0,0.1875 -0.1289062,0.6445312 -0.2109375,0.9609375 -0.1289062,0.5507812 -0.1640625,0.6796875 -0.1640625,0.90234373 0,0.85546875 0.6914063,1.2421875 1.4882813,1.2421875 0.9726562,0 1.3945312,-1.18359375 1.3945312,-1.34765623 0,-0.082031 -0.058594,-0.1171875 -0.1289062,-0.1171875 -0.1054688,0 -0.1289063,0.070312 -0.1523438,0.1640625 -0.28125,0.85546873 -0.7734375,1.06640623 -1.0664062,1.06640623 -0.3046875,0 -0.4921875,-0.12890625 -0.4921875,-0.66796875 0,-0.29296875 0.140625,-1.37109378 0.1523437,-1.44140628 0.058594,-0.4335937 0.058594,-0.4804687 0.058594,-0.5742187 0,-0.8789063 -0.703125,-1.2539063 -1.160156,-1.3945313 z M 16.662312,-4.8738906 c -0.375,0.070312 -0.515625,0.3515625 -0.515625,0.5859375 0,0.28125 0.222657,0.375 0.386719,0.375 0.363281,0 0.609375,-0.3046875 0.609375,-0.6328125 0,-0.4921875 -0.574219,-0.7265625 -1.078125,-0.7265625 -0.726562,0 -1.125,0.7148437 -1.242187,0.9492187 -0.269532,-0.9023437 -1.007813,-0.9492187 -1.230469,-0.9492187 -1.21875,0 -1.863281,1.5703125 -1.863281,1.828125 0,0.046875 0.04687,0.1054687 0.128906,0.1054687 0.105469,0 0.128906,-0.070312 0.152344,-0.1171875 0.398437,-1.3242187 1.207031,-1.5703125 1.546875,-1.5703125 0.539062,0 0.644531,0.4921875 0.644531,0.7851563 0,0.2578125 -0.07031,0.5390625 -0.210938,1.1132812 l -0.410156,1.6289063 c -0.175781,0.72656248 -0.527344,1.38281248 -1.160156,1.38281248 -0.05859,0 -0.351563,0 -0.609375,-0.15234375 0.433594,-0.09375 0.527344,-0.4453125 0.527344,-0.5859375 0,-0.24609373 -0.175782,-0.38671873 -0.398438,-0.38671873 -0.292969,0 -0.597656,0.24609373 -0.597656,0.63281248 0,0.50390625 0.5625,0.7265625 1.066406,0.7265625 0.574219,0 0.984375,-0.45703125 1.230469,-0.9375 0.199219,0.703125 0.796875,0.9375 1.230469,0.9375 1.230468,0 1.875,-1.55859378 1.875,-1.82812498 0,-0.058594 -0.04687,-0.1054688 -0.128907,-0.1054688 -0.105468,0 -0.117187,0.058594 -0.152343,0.1523438 -0.316407,1.05468748 -1.019532,1.54687498 -1.546875,1.54687498 -0.421875,0 -0.65625,-0.31640625 -0.65625,-0.80859375 0,-0.25781253 0.05859,-0.44531253 0.246093,-1.24218753 l 0.421875,-1.6171875 c 0.175782,-0.7265625 0.585938,-1.2421875 1.125,-1.2421875 0.03516,0 0.363282,0 0.609375,0.1523438 z m 0,0"
         style="fill:#000000;fill-opacity:1;fill-rule:nonzero;stroke:none" />
      <path
         id="path24"
         d="m 21.543172,2.9073594 c 0,-0.035156 0,-0.058594 -0.210938,-0.2695313 -1.195312,-1.2070312 -1.863281,-3.17578122 -1.863281,-5.6132812 0,-2.3203125 0.5625,-4.3125 1.945313,-5.7304688 0.128906,-0.1054687 0.128906,-0.1289062 0.128906,-0.1640625 0,-0.070312 -0.07031,-0.09375 -0.117188,-0.09375 -0.152343,0 -1.136718,0.8554688 -1.722656,2.0273438 -0.609375,1.2070312 -0.878906,2.4960937 -0.878906,3.9609375 0,1.0664062 0.164062,2.48437498 0.785156,3.76171873 0.703125,1.44140627 1.6875,2.21484377 1.816406,2.21484377 0.04687,0 0.117188,-0.023437 0.117188,-0.09375 z m 4.107422,-10.5703125 c 0,-0.2695313 0,-0.28125 -0.246094,-0.28125 -0.28125,0.3164062 -0.878906,0.7617187 -2.109375,0.7617187 v 0.3515625 c 0.269531,0 0.867187,0 1.523437,-0.3164062 v 6.22265623 c 0,0.43359375 -0.03516,0.57421875 -1.078125,0.57421875 h -0.375 v 0.3515625 c 0.316407,-0.0234375 1.476563,-0.0234375 1.875,-0.0234375 0.398438,0 1.546875,0 1.863282,0.0234375 v -0.3515625 h -0.363282 c -1.054687,0 -1.089843,-0.140625 -1.089843,-0.57421875 z m 0,0"
         style="fill:#000000;fill-opacity:1;fill-rule:nonzero;stroke:none" />
      <path
         id="path25"
         d="m 30.390828,0.04798438 c 0,-0.69140625 -0.222656,-1.20703128 -0.714844,-1.20703128 -0.386718,0 -0.574218,0.31640628 -0.574218,0.57421878 0,0.2578125 0.175781,0.5859375 0.585937,0.5859375 0.152344,0 0.28125,-0.046875 0.386719,-0.15234375 0.02344,-0.0234375 0.03516,-0.0234375 0.04687,-0.0234375 0.03516,0 0.03516,0.1640625 0.03516,0.22265625 0,0.3984375 -0.08203,1.17187502 -0.773437,1.94531252 -0.128907,0.1523437 -0.128907,0.1757812 -0.128907,0.1992187 0,0.058594 0.05859,0.1171875 0.117188,0.1171875 0.09375,0 1.019531,-0.890625 1.019531,-2.26171872 z m 5.317383,-4.85156248 h 1.101562 c 0.222657,0 0.339844,0 0.339844,-0.2109375 0,-0.140625 -0.07031,-0.140625 -0.304687,-0.140625 h -1.054688 l 0.445313,-1.7460938 c 0.04687,-0.1640625 0.04687,-0.1875 0.04687,-0.2695312 0,-0.1875 -0.152344,-0.3046875 -0.316407,-0.3046875 -0.09375,0 -0.363281,0.046875 -0.457031,0.421875 l -0.46875,1.8984375 h -1.125 c -0.234375,0 -0.351562,0 -0.351562,0.234375 0,0.1171875 0.09375,0.1171875 0.316406,0.1171875 h 1.066406 l -0.796875,3.1523437 c -0.09375,0.421875 -0.128906,0.5390625 -0.128906,0.69140628 0,0.5625 0.398437,1.078125 1.066406,1.078125 1.207031,0 1.851563,-1.74609378 1.851563,-1.82812498 0,-0.070312 -0.04687,-0.1054688 -0.117188,-0.1054688 -0.02344,0 -0.07031,0 -0.09375,0.046875 -0.01172,0.011719 -0.02344,0.023437 -0.105469,0.2109375 -0.257812,0.59765628 -0.808593,1.44140628 -1.5,1.44140628 -0.363281,0 -0.386718,-0.3046875 -0.386718,-0.5625 0,-0.0117188 0,-0.24609375 0.03516,-0.38671878 z m 0,0"
         style="fill:#000000;fill-opacity:1;fill-rule:nonzero;stroke:none" />
      <path
         id="path26"
         d="m 48.059773,-2.7527969 c 0.210938,0 0.421875,0 0.421875,-0.234375 0,-0.234375 -0.210937,-0.234375 -0.421875,-0.234375 h -6.46875 c -0.199218,0 -0.410156,0 -0.410156,0.234375 0,0.234375 0.210938,0.234375 0.410156,0.234375 z m 0,0"
         style="fill:#000000;fill-opacity:1;fill-rule:nonzero;stroke:none" />
    </g>
    <path
       id="path27"
       d="m 4.1707031,-4.1590469 h 2.2148438 c 0.2460937,0 0.3984375,0 0.5976562,-0.1757812 0.234375,-0.2109375 0.234375,-0.4804688 0.234375,-0.5039063 0,-0.46875 -0.4335937,-0.46875 -0.6328125,-0.46875 h -3.9375 c -0.2460937,0 -0.7617187,0 -1.3945312,0.5742188 -0.42187503,0.3867187 -0.87890628,0.9960937 -0.87890628,1.1132812 0,0.1640625 0.140625,0.1640625 0.26953125,0.1640625 0.17578125,0 0.1875,-0.011719 0.3046875,-0.140625 0.44531253,-0.5625 1.24218753,-0.5625 1.46484373,-0.5625 h 1.078125 l -0.4335937,1.265625 c -0.1054688,0.3046875 -0.3632813,1.0664063 -0.46875,1.3710938 -0.1289063,0.375 -0.3515625,1.00781248 -0.3515625,1.13671873 0,0.33984375 0.2578125,0.52734375 0.5625,0.52734375 0.082031,0 0.6914062,0 0.8085937,-0.78515625 z m 0,0"
       style="fill:#804d5a;fill-opacity:1;fill-rule:nonzero;stroke:none"
       aria-label="τ"
       transform="matrix(1.3333333,0,0,1.3333333,193.9,127.88133)" />
    <path
       id="path28"
       d="m 3.3737422,-2.9754531 c 0,-0.9140625 -0.1289063,-2.390625 -0.796875,-3.7734375 -0.703125,-1.4414063 -1.67578126,-2.2148438 -1.81640626,-2.2148438 -0.046875,0 -0.10546875,0.023437 -0.10546875,0.09375 0,0.035156 0,0.058594 0.19921875,0.2695313 1.19531246,1.2070312 1.87499996,3.1757812 1.87499996,5.6132812 0,2.32031253 -0.5625,4.3125 -1.95703121,5.7304688 -0.1171875,0.1054687 -0.1171875,0.1289062 -0.1171875,0.1640625 0,0.070312 0.0585938,0.09375 0.10546875,0.09375 0.1640625,0 1.13671876,-0.8554688 1.72265626,-2.02734377 0.609375,-1.21875 0.890625,-2.51953123 0.890625,-3.94921873 z m 0,0"
       style="fill:#000000;fill-opacity:1;fill-rule:nonzero;stroke:none"
       aria-label=")"
       transform="matrix(1.3333333,0,0,1.3333333,204.34933,127.88133)" />
    <g
       id="g28"
       aria-label="x(0,t)"
       transform="matrix(1.3333333,0,0,1.3333333,143.54267,36.962667)">
      <path
         id="path29"
         d="m 5.6603828,-4.8762969 c -0.375,0.070312 -0.515625,0.3515625 -0.515625,0.5859375 0,0.28125 0.2226563,0.375 0.3867188,0.375 0.3632812,0 0.609375,-0.3046875 0.609375,-0.6328125 0,-0.4921875 -0.5742188,-0.7265625 -1.078125,-0.7265625 -0.7265625,0 -1.125,0.7148438 -1.2421875,0.9492188 -0.2695313,-0.9023438 -1.0078125,-0.9492188 -1.2304688,-0.9492188 -1.21875,0 -1.86328124,1.5703125 -1.86328124,1.828125 0,0.046875 0.046875,0.1054688 0.12890625,0.1054688 0.10546875,0 0.12890625,-0.070312 0.15234379,-0.1171875 0.3984375,-1.3242188 1.2070312,-1.5703125 1.546875,-1.5703125 0.5390625,0 0.6445312,0.4921875 0.6445312,0.7851562 0,0.2578125 -0.070312,0.5390625 -0.2109375,1.1132813 l -0.4101562,1.6289062 c -0.1757813,0.72656253 -0.5273438,1.38281253 -1.1601563,1.38281253 -0.058594,0 -0.3515625,0 -0.60937499,-0.15234375 0.43359379,-0.09375 0.52734379,-0.4453125 0.52734379,-0.5859375 0,-0.24609378 -0.1757813,-0.38671878 -0.39843754,-0.38671878 -0.29296875,0 -0.59765625,0.24609378 -0.59765625,0.63281253 0,0.50390625 0.5625,0.7265625 1.06640629,0.7265625 0.5742187,0 0.984375,-0.45703125 1.2304687,-0.9375 0.1992188,0.703125 0.796875,0.9375 1.2304688,0.9375 1.2304687,0 1.875,-1.55859373 1.875,-1.82812503 0,-0.058594 -0.046875,-0.1054687 -0.1289063,-0.1054687 -0.1054687,0 -0.1171875,0.058594 -0.1523437,0.1523437 -0.3164063,1.05468753 -1.0195313,1.54687503 -1.546875,1.54687503 -0.421875,0 -0.65625,-0.31640625 -0.65625,-0.80859375 0,-0.25781248 0.058594,-0.44531248 0.2460937,-1.24218748 l 0.421875,-1.6171875 c 0.1757813,-0.7265625 0.5859375,-1.2421875 1.125,-1.2421875 0.035156,0 0.3632813,0 0.609375,0.1523437 z m 0,0"
         style="fill:#000000;fill-opacity:1;fill-rule:nonzero;stroke:none" />
      <path
         id="path30"
         d="m 10.541242,2.9049531 c 0,-0.035156 0,-0.058594 -0.210937,-0.2695312 -1.1953128,-1.2070313 -1.8632816,-3.17578127 -1.8632816,-5.6132813 0,-2.3203125 0.5625,-4.3125 1.9453126,-5.7304687 0.128906,-0.1054688 0.128906,-0.1289063 0.128906,-0.1640625 0,-0.070312 -0.07031,-0.09375 -0.117187,-0.09375 -0.152344,0 -1.1367191,0.8554687 -1.7226566,2.0273437 -0.609375,1.2070313 -0.8789062,2.4960938 -0.8789062,3.9609375 0,1.0664063 0.1640625,2.48437503 0.7851562,3.76171878 0.703125,1.44140622 1.6874996,2.21484372 1.8164066,2.21484372 0.04687,0 0.117187,-0.023437 0.117187,-0.09375 z m 6.017578,-6.7265625 c 0,-0.9960937 -0.05859,-1.96875 -0.492187,-2.8710937 -0.492188,-0.9960938 -1.347656,-1.2539063 -1.933594,-1.2539063 -0.691406,0 -1.546875,0.3398438 -1.980469,1.3359375 -0.339843,0.75 -0.457031,1.4882813 -0.457031,2.7890625 0,1.1601563 0.08203,2.0273438 0.515625,2.87109378 0.457031,0.9140625 1.289063,1.1953125 1.910156,1.1953125 1.042969,0 1.640625,-0.62109375 1.980469,-1.31249998 0.433594,-0.890625 0.457031,-2.0625 0.457031,-2.7539063 z m -2.4375,3.83203128 c -0.386718,0 -1.160156,-0.2109375 -1.382812,-1.52343748 -0.140625,-0.7148438 -0.140625,-1.6171875 -0.140625,-2.4609375 0,-0.9726563 0,-1.8632813 0.199219,-2.5664063 0.199218,-0.796875 0.808593,-1.171875 1.324218,-1.171875 0.457032,0 1.148438,0.28125 1.371094,1.3007813 0.152344,0.6796875 0.152344,1.6289062 0.152344,2.4375 0,0.8085937 0,1.7109375 -0.128906,2.4375 -0.222657,1.32421873 -0.972657,1.54687498 -1.394532,1.54687498 z m 0,0"
         style="fill:#000000;fill-opacity:1;fill-rule:nonzero;stroke:none" />
      <path
         id="path31"
         d="m 19.388898,0.04557813 c 0,-0.69140625 -0.222656,-1.20703123 -0.714843,-1.20703123 -0.386719,0 -0.574219,0.31640623 -0.574219,0.57421873 0,0.2578125 0.175781,0.5859375 0.585937,0.5859375 0.152344,0 0.28125,-0.046875 0.386719,-0.15234375 0.02344,-0.0234375 0.03516,-0.0234375 0.04687,-0.0234375 0.03516,0 0.03516,0.1640625 0.03516,0.22265625 0,0.3984375 -0.08203,1.17187497 -0.773437,1.94531247 -0.128906,0.1523438 -0.128906,0.1757813 -0.128906,0.1992188 0,0.058594 0.05859,0.1171875 0.117187,0.1171875 0.09375,0 1.019531,-0.890625 1.019532,-2.26171877 z m 5.320313,-4.85156253 h 1.101562 c 0.222657,0 0.339844,0 0.339844,-0.2109375 0,-0.140625 -0.07031,-0.140625 -0.304687,-0.140625 h -1.054688 l 0.445313,-1.7460937 c 0.04687,-0.1640625 0.04687,-0.1875 0.04687,-0.2695313 0,-0.1875 -0.152344,-0.3046875 -0.316407,-0.3046875 -0.09375,0 -0.363281,0.046875 -0.457031,0.421875 l -0.46875,1.8984375 h -1.125 c -0.234375,0 -0.351562,0 -0.351562,0.234375 0,0.1171875 0.09375,0.1171875 0.316406,0.1171875 h 1.066406 l -0.796875,3.1523438 c -0.09375,0.421875 -0.128906,0.5390625 -0.128906,0.69140623 0,0.5625 0.398437,1.078125 1.066406,1.078125 1.207031,0 1.851563,-1.74609373 1.851563,-1.82812503 0,-0.070312 -0.04687,-0.1054687 -0.117188,-0.1054687 -0.02344,0 -0.07031,0 -0.09375,0.046875 -0.01172,0.011719 -0.02344,0.023437 -0.105469,0.2109375 -0.257812,0.59765623 -0.808593,1.44140623 -1.5,1.44140623 -0.363281,0 -0.386718,-0.3046875 -0.386718,-0.5625 0,-0.0117188 0,-0.24609375 0.03516,-0.38671873 z m 0,0"
         style="fill:#000000;fill-opacity:1;fill-rule:nonzero;stroke:none" />
      <path
         id="path32"
         d="m 29.903547,-2.9778594 c 0,-0.9140625 -0.128906,-2.390625 -0.796875,-3.7734375 -0.703125,-1.4414062 -1.675781,-2.2148437 -1.816406,-2.2148437 -0.04687,0 -0.105469,0.023437 -0.105469,0.09375 0,0.035156 0,0.058594 0.199219,0.2695312 1.195312,1.2070313 1.875,3.1757813 1.875,5.6132813 0,2.32031248 -0.5625,4.3125 -1.957032,5.7304687 -0.117187,0.1054688 -0.117187,0.1289063 -0.117187,0.1640625 0,0.070312 0.05859,0.09375 0.105469,0.09375 0.164062,0 1.136718,-0.8554687 1.722656,-2.02734372 0.609375,-1.21875 0.890625,-2.51953128 0.890625,-3.94921878 z m 0,0"
         style="fill:#000000;fill-opacity:1;fill-rule:nonzero;stroke:none" />
    </g>
    <g
       id="g32"
       aria-label="x(1,t)"
       transform="matrix(1.3333333,0,0,1.3333333,276.416,36.962667)">
      <path
         id="path33"
         d="m 5.6587031,-4.8762969 c -0.375,0.070312 -0.515625,0.3515625 -0.515625,0.5859375 0,0.28125 0.2226563,0.375 0.3867188,0.375 0.3632812,0 0.609375,-0.3046875 0.609375,-0.6328125 0,-0.4921875 -0.5742188,-0.7265625 -1.078125,-0.7265625 -0.7265625,0 -1.125,0.7148438 -1.2421875,0.9492188 -0.2695313,-0.9023438 -1.0078125,-0.9492188 -1.2304688,-0.9492188 -1.21875,0 -1.86328123,1.5703125 -1.86328123,1.828125 0,0.046875 0.046875,0.1054688 0.12890625,0.1054688 0.10546875,0 0.12890625,-0.070312 0.15234378,-0.1171875 0.3984375,-1.3242188 1.2070312,-1.5703125 1.546875,-1.5703125 0.5390625,0 0.6445312,0.4921875 0.6445312,0.7851562 0,0.2578125 -0.070312,0.5390625 -0.2109375,1.1132813 l -0.4101562,1.6289062 c -0.1757813,0.72656253 -0.5273438,1.38281253 -1.1601563,1.38281253 -0.058594,0 -0.3515625,0 -0.60937498,-0.15234375 0.43359378,-0.09375 0.52734378,-0.4453125 0.52734378,-0.5859375 0,-0.24609378 -0.1757813,-0.38671878 -0.39843753,-0.38671878 -0.29296875,0 -0.59765625,0.24609378 -0.59765625,0.63281253 0,0.50390625 0.5625,0.7265625 1.06640628,0.7265625 0.5742187,0 0.984375,-0.45703125 1.2304687,-0.9375 0.1992188,0.703125 0.796875,0.9375 1.2304688,0.9375 1.2304687,0 1.875,-1.55859373 1.875,-1.82812503 0,-0.058594 -0.046875,-0.1054687 -0.1289063,-0.1054687 -0.1054687,0 -0.1171875,0.058594 -0.1523437,0.1523437 -0.3164063,1.05468753 -1.0195313,1.54687503 -1.546875,1.54687503 -0.421875,0 -0.65625,-0.31640625 -0.65625,-0.80859375 0,-0.25781248 0.058594,-0.44531248 0.2460937,-1.24218748 l 0.421875,-1.6171875 c 0.1757813,-0.7265625 0.5859375,-1.2421875 1.125,-1.2421875 0.035156,0 0.3632813,0 0.609375,0.1523437 z m 0,0"
         style="fill:#000000;fill-opacity:1;fill-rule:nonzero;stroke:none" />
      <path
         id="path34"
         d="m 10.542492,2.9049531 c 0,-0.035156 0,-0.058594 -0.210937,-0.2695312 -1.1953128,-1.2070313 -1.8632816,-3.17578127 -1.8632816,-5.6132813 0,-2.3203125 0.5625,-4.3125 1.9453126,-5.7304687 0.128906,-0.1054688 0.128906,-0.1289063 0.128906,-0.1640625 0,-0.070312 -0.07031,-0.09375 -0.117187,-0.09375 -0.152344,0 -1.1367191,0.8554687 -1.7226566,2.0273437 -0.609375,1.2070313 -0.8789062,2.4960938 -0.8789062,3.9609375 0,1.0664063 0.1640625,2.48437503 0.7851562,3.76171878 0.703125,1.44140622 1.6874996,2.21484372 1.8164066,2.21484372 0.04687,0 0.117187,-0.023437 0.117187,-0.09375 z m 4.107422,-10.5703125 c 0,-0.2695312 0,-0.28125 -0.246094,-0.28125 -0.28125,0.3164063 -0.878906,0.7617188 -2.109375,0.7617188 v 0.3515625 c 0.269532,0 0.867188,0 1.523438,-0.3164063 v 6.22265628 c 0,0.43359375 -0.03516,0.57421875 -1.078125,0.57421875 h -0.375 v 0.3515625 c 0.316406,-0.0234375 1.476562,-0.0234375 1.875,-0.0234375 0.398437,0 1.546875,0 1.863281,0.0234375 v -0.3515625 h -0.363281 c -1.054688,0 -1.089844,-0.140625 -1.089844,-0.57421875 z m 0,0"
         style="fill:#000000;fill-opacity:1;fill-rule:nonzero;stroke:none" />
      <path
         id="path35"
         d="m 19.390148,0.04557813 c 0,-0.69140625 -0.222656,-1.20703123 -0.714843,-1.20703123 -0.386719,0 -0.574219,0.31640623 -0.574219,0.57421873 0,0.2578125 0.175781,0.5859375 0.585937,0.5859375 0.152344,0 0.28125,-0.046875 0.386719,-0.15234375 0.02344,-0.0234375 0.03516,-0.0234375 0.04687,-0.0234375 0.03516,0 0.03516,0.1640625 0.03516,0.22265625 0,0.3984375 -0.08203,1.17187497 -0.773437,1.94531247 -0.128906,0.1523438 -0.128906,0.1757813 -0.128906,0.1992188 0,0.058594 0.05859,0.1171875 0.117187,0.1171875 0.09375,0 1.019531,-0.890625 1.019532,-2.26171877 z m 5.317383,-4.85156253 h 1.101563 c 0.222656,0 0.339843,0 0.339843,-0.2109375 0,-0.140625 -0.07031,-0.140625 -0.304687,-0.140625 h -1.054688 l 0.445313,-1.7460937 c 0.04687,-0.1640625 0.04687,-0.1875 0.04687,-0.2695313 0,-0.1875 -0.152344,-0.3046875 -0.316406,-0.3046875 -0.09375,0 -0.363282,0.046875 -0.457032,0.421875 l -0.46875,1.8984375 h -1.125 c -0.234375,0 -0.351562,0 -0.351562,0.234375 0,0.1171875 0.09375,0.1171875 0.316406,0.1171875 h 1.066406 l -0.796875,3.1523438 c -0.09375,0.421875 -0.128906,0.5390625 -0.128906,0.69140623 0,0.5625 0.398438,1.078125 1.066406,1.078125 1.207032,0 1.851563,-1.74609373 1.851563,-1.82812503 0,-0.070312 -0.04687,-0.1054687 -0.117188,-0.1054687 -0.02344,0 -0.07031,0 -0.09375,0.046875 -0.01172,0.011719 -0.02344,0.023437 -0.105468,0.2109375 -0.257813,0.59765623 -0.808594,1.44140623 -1.5,1.44140623 -0.363282,0 -0.386719,-0.3046875 -0.386719,-0.5625 0,-0.0117188 0,-0.24609375 0.03516,-0.38671873 z m 0,0"
         style="fill:#000000;fill-opacity:1;fill-rule:nonzero;stroke:none" />
      <path
         id="path36"
         d="m 29.901867,-2.9778594 c 0,-0.9140625 -0.128906,-2.390625 -0.796875,-3.7734375 -0.703125,-1.4414062 -1.675781,-2.2148437 -1.816406,-2.2148437 -0.04687,0 -0.105469,0.023437 -0.105469,0.09375 0,0.035156 0,0.058594 0.199219,0.2695312 1.195312,1.2070313 1.875,3.1757813 1.875,5.6132813 0,2.32031248 -0.5625,4.3125 -1.957031,5.7304687 -0.117188,0.1054688 -0.117188,0.1289063 -0.117188,0.1640625 0,0.070312 0.05859,0.09375 0.105469,0.09375 0.164062,0 1.136719,-0.8554687 1.722656,-2.02734372 0.609375,-1.21875 0.890625,-2.51953128 0.890625,-3.94921878 z m 0,0"
         style="fill:#000000;fill-opacity:1;fill-rule:nonzero;stroke:none" />
    </g>
    <path
       id="path37"
       d="m 44.83334,0 h 87.99521"
       style="fill:none;stroke:#000000;stroke-width:1.19553;stroke-linecap:butt;stroke-linejoin:miter;stroke-miterlimit:10;stroke-dasharray:none;stroke-opacity:1"
       transform="matrix(1.3333333,0,0,-1.3333333,239.85467,61.324)" />
    <path
       id="path38"
       d="M 3.18808,0 -1.91284,2.55046 0,0 -1.91284,-2.55046"
       style="fill:#000000;fill-opacity:1;fill-rule:nonzero;stroke:none"
       transform="matrix(1.3333333,0,0,-1.3333333,416.9594,61.324)" />
    <g
       id="g38"
       aria-label="y(t)"
       transform="matrix(1.3333333,0,0,1.3333333,396.732,51.34)">
      <path
         id="path39"
         d="M 3.1394766,1.3358203 C 2.8230703,1.7928516 2.3543203,2.2030078 1.7683828,2.2030078 c -0.140625,0 -0.7148437,-0.023437 -0.90234374,-0.5742187 0.046875,0.011719 0.10546875,0.011719 0.12890625,0.011719 0.35156249,0 0.59765629,-0.3164062 0.59765629,-0.5859375 0,-0.28124999 -0.234375,-0.37499999 -0.4101563,-0.37499999 -0.18749999,0 -0.60937499,0.140625 -0.60937499,0.72656249 0,0.609375 0.51562499,1.03125 1.19531249,1.03125 1.1953125,0 2.4023438,-1.1015625 2.7421875,-2.42578124 l 1.171875,-4.66406246 c 0.011719,-0.058594 0.035156,-0.1289063 0.035156,-0.1992188 0,-0.1757812 -0.1523438,-0.3046875 -0.328125,-0.3046875 -0.1054688,0 -0.3632813,0.046875 -0.4570313,0.4101563 l -0.8789062,3.515625 c -0.058594,0.2109375 -0.058594,0.23437496 -0.1523438,0.37499996 -0.2460937,0.328125 -0.6445312,0.73828125 -1.2070312,0.73828125 -0.6796875,0 -0.7382813,-0.65625 -0.7382813,-0.98437501 0,-0.6796875 0.328125,-1.6054687 0.6445313,-2.4609375 0.140625,-0.3515625 0.2109375,-0.515625 0.2109375,-0.75 0,-0.5039062 -0.3632813,-0.9609375 -0.9492188,-0.9609375 -1.10156249,0 -1.53515624,1.734375 -1.53515624,1.828125 0,0.046875 0.046875,0.1054688 0.12890625,0.1054688 0.10546875,0 0.1171875,-0.046875 0.1640625,-0.2109375 0.29296875,-1.0078125 0.73828129,-1.4765625 1.20703129,-1.4765625 0.1054687,0 0.3164062,0 0.3164062,0.3867187 0,0.3164063 -0.140625,0.65625 -0.3164062,1.1132813 -0.5859375,1.5703125 -0.5859375,1.9570312 -0.5859375,2.25 0,1.13671871 0.8085937,1.39453121 1.40625,1.39453121 0.3515625,0 0.7851562,-0.10546875 1.1953125,-0.55078125 l 0.011719,0.0117188 c -0.1757812,0.703125 -0.2929687,1.171875 -0.7148437,1.75781214 z m 0,0"
         style="fill:#000000;fill-opacity:1;fill-rule:nonzero;stroke:none" />
      <path
         id="path40"
         d="m 10.027172,2.9061328 c 0,-0.035156 0,-0.058594 -0.2109376,-0.2695312 -1.1953125,-1.2070313 -1.8632813,-3.17578129 -1.8632813,-5.6132813 0,-2.3203125 0.5625,-4.3125 1.9453125,-5.7304687 0.1289064,-0.1054688 0.1289064,-0.1289063 0.1289064,-0.1640625 0,-0.070312 -0.070313,-0.09375 -0.1171876,-0.09375 -0.1523438,0 -1.1367188,0.8554687 -1.7226563,2.0273437 -0.609375,1.2070313 -0.8789062,2.4960938 -0.8789062,3.9609375 0,1.0664063 0.1640625,2.48437501 0.7851562,3.76171876 0.703125,1.44140624 1.6875,2.21484374 1.8164063,2.21484374 0.046875,0 0.1171876,-0.023437 0.1171876,-0.09375 z m 0,0"
         style="fill:#000000;fill-opacity:1;fill-rule:nonzero;stroke:none" />
      <path
         id="path41"
         d="m 13.091625,-4.8048047 h 1.101563 c 0.222656,0 0.339843,0 0.339843,-0.2109375 0,-0.140625 -0.07031,-0.140625 -0.304687,-0.140625 h -1.054688 l 0.445313,-1.7460937 c 0.04687,-0.1640625 0.04687,-0.1875 0.04687,-0.2695313 0,-0.1875 -0.152344,-0.3046875 -0.316406,-0.3046875 -0.09375,0 -0.363282,0.046875 -0.457032,0.421875 l -0.46875,1.8984375 h -1.125 c -0.234375,0 -0.351562,0 -0.351562,0.234375 0,0.1171875 0.09375,0.1171875 0.316406,0.1171875 h 1.066406 l -0.796875,3.1523438 c -0.09375,0.421875 -0.128906,0.5390625 -0.128906,0.69140621 0,0.5625 0.398438,1.078125 1.066406,1.078125 1.207032,0 1.851563,-1.74609371 1.851563,-1.82812501 0,-0.070312 -0.04687,-0.1054687 -0.117188,-0.1054687 -0.02344,0 -0.07031,0 -0.09375,0.046875 -0.01172,0.011719 -0.02344,0.023437 -0.105468,0.2109375 -0.257813,0.59765621 -0.808594,1.44140621 -1.5,1.44140621 -0.363282,0 -0.386719,-0.3046875 -0.386719,-0.5625 0,-0.0117188 0,-0.24609375 0.03516,-0.38671871 z m 0,0"
         style="fill:#000000;fill-opacity:1;fill-rule:nonzero;stroke:none" />
      <path
         id="path42"
         d="m 18.29182,-2.9766797 c 0,-0.9140625 -0.128906,-2.390625 -0.796875,-3.7734375 -0.703125,-1.4414062 -1.675781,-2.2148437 -1.816406,-2.2148437 -0.04687,0 -0.105469,0.023437 -0.105469,0.09375 0,0.035156 0,0.058594 0.199219,0.2695312 1.195313,1.2070313 1.875,3.1757813 1.875,5.6132813 0,2.32031246 -0.5625,4.3125 -1.957031,5.7304687 -0.117188,0.1054688 -0.117188,0.1289063 -0.117188,0.1640625 0,0.070312 0.05859,0.09375 0.105469,0.09375 0.164063,0 1.136719,-0.8554687 1.722656,-2.02734374 0.609375,-1.21875 0.890625,-2.51953126 0.890625,-3.94921876 z m 0,0"
         style="fill:#000000;fill-opacity:1;fill-rule:nonzero;stroke:none" />
    </g>
    <path
       id="path43"
       d="m -136.01663,0 h 74.26365"
       style="fill:none;stroke:#000000;stroke-width:1.19553;stroke-linecap:butt;stroke-linejoin:miter;stroke-miterlimit:10;stroke-dasharray:none;stroke-opacity:1"
       transform="matrix(1.3333333,0,0,-1.3333333,239.85467,61.324)" />
    <path
       id="path44"
       d="M 3.18808,0 -1.91284,2.55046 0,0 -1.91284,-2.55046"
       style="fill:#000000;fill-opacity:1;fill-rule:nonzero;stroke:none"
       transform="matrix(1.3333333,0,0,-1.3333333,157.51736,61.324)" />
    <path
       id="path45"
       d="M 71.30887,-1.87128 V -35.43349 H -85.04042 v 30.37413"
       style="fill:none;stroke:#000000;stroke-width:1.19553;stroke-linecap:butt;stroke-linejoin:miter;stroke-miterlimit:10;stroke-dasharray:none;stroke-opacity:1"
       transform="matrix(1.3333333,0,0,-1.3333333,239.85467,61.324)" />
    <path
       id="path46"
       d="M 3.18808,0 -1.91284,2.55046 0,0 -1.91284,-2.55046"
       style="fill:#000000;fill-opacity:1;fill-rule:nonzero;stroke:none"
       transform="matrix(0,-1.3333333,-1.3333333,0,126.46744,68.069813)" />
    <path
       id="path47"
       d="M 141.73409,-5.71744 V -99.21385 H 73.65654"
       style="fill:none;stroke:#000000;stroke-width:0.79701;stroke-linecap:butt;stroke-linejoin:miter;stroke-miterlimit:10;stroke-dasharray:2.98883, 2.98883;stroke-dashoffset:0;stroke-opacity:1"
       transform="matrix(1.3333333,0,0,-1.3333333,239.85467,61.324)" />
    <path
       id="path48"
       d="M 2.59026,0 -1.55415,2.0722 0,0 -1.55415,-2.0722"
       style="fill:#000000;fill-opacity:1;fill-rule:nonzero;stroke:none"
       transform="matrix(-1.3333333,0,0,1.3333333,338.06339,193.60913)" />
    <path
       id="path49"
       d="m 42.52022,-113.5865 v -28.3468 l -25.5575,0.18087"
       style="fill:none;stroke:#000000;stroke-width:0.79701;stroke-linecap:butt;stroke-linejoin:miter;stroke-miterlimit:10;stroke-dasharray:2.98883, 2.98883;stroke-dashoffset:0;stroke-opacity:1"
       transform="matrix(1.3333333,0,0,-1.3333333,239.85467,61.324)" />
    <path
       id="path50"
       d="M 2.59026,0 -1.55415,2.0722 0,0 -1.55415,-2.0722"
       style="fill:#000000;fill-opacity:1;fill-rule:nonzero;stroke:none"
       transform="matrix(-1.3332267,-0.00944,-0.00944,1.3332267,262.47163,250.32725)" />
    <g
       id="g50"
       aria-label="ˆx(ζ,t)"
       transform="matrix(1.3333333,0,0,1.3333333,303.24667,235.65333)">
      <path
         id="path51"
         d="m 2.9292578,-8.2976172 -1.5703125,1.6289063 0.1992188,0.1757812 1.359375,-1.2304687 1.3710937,1.2304687 0.1992188,-0.1757812 z m 0,0"
         style="fill:#000000;fill-opacity:1;fill-rule:nonzero;stroke:none" />
      <path
         id="path52"
         d="m 4.9360937,-4.8757422 c -0.375,0.070312 -0.515625,0.3515625 -0.515625,0.5859375 0,0.28125 0.2226563,0.375 0.3867188,0.375 0.3632812,0 0.609375,-0.3046875 0.609375,-0.6328125 0,-0.4921875 -0.5742188,-0.7265625 -1.078125,-0.7265625 -0.7265625,0 -1.125,0.7148438 -1.2421875,0.9492188 -0.2695313,-0.9023438 -1.0078125,-0.9492188 -1.2304688,-0.9492188 -1.21874995,0 -1.8632812,1.5703125 -1.8632812,1.828125 0,0.046875 0.046875,0.1054688 0.12890625,0.1054688 0.10546875,0 0.12890625,-0.070312 0.15234375,-0.1171875 0.3984375,-1.3242188 1.2070312,-1.5703125 1.546875,-1.5703125 0.5390625,0 0.6445312,0.4921875 0.6445312,0.7851562 0,0.2578125 -0.070312,0.5390625 -0.2109375,1.1132813 l -0.4101562,1.6289062 c -0.1757813,0.72656251 -0.5273438,1.38281251 -1.16015625,1.38281251 -0.0585938,0 -0.3515625,0 -0.609375,-0.15234375 0.43359375,-0.09375 0.52734375,-0.4453125 0.52734375,-0.5859375 0,-0.24609376 -0.17578125,-0.38671876 -0.3984375,-0.38671876 -0.29296875,0 -0.59765625,0.24609376 -0.59765625,0.63281251 0,0.50390625 0.5625,0.7265625 1.06640625,0.7265625 0.5742187,0 0.984375,-0.45703125 1.2304687,-0.9375 0.1992188,0.703125 0.796875,0.9375 1.2304688,0.9375 1.2304687,0 1.875,-1.55859371 1.875,-1.82812501 0,-0.058594 -0.046875,-0.1054687 -0.1289063,-0.1054687 -0.1054687,0 -0.1171875,0.058594 -0.1523437,0.1523437 -0.3164063,1.05468751 -1.0195313,1.54687501 -1.546875,1.54687501 -0.421875,0 -0.65625,-0.31640625 -0.65625,-0.80859375 0,-0.25781246 0.058594,-0.44531246 0.2460937,-1.24218746 l 0.421875,-1.6171875 c 0.1757813,-0.7265625 0.5859375,-1.2421875 1.125,-1.2421875 0.035156,0 0.3632813,0 0.609375,0.1523437 z m 0,0"
         style="fill:#000000;fill-opacity:1;fill-rule:nonzero;stroke:none" />
      <path
         id="path53"
         d="m 9.8198828,2.9055078 c 0,-0.035156 0,-0.058594 -0.2109375,-0.2695312 -1.1953125,-1.2070313 -1.8632812,-3.17578129 -1.8632812,-5.6132813 0,-2.3203125 0.5625,-4.3125 1.9453125,-5.7304687 0.1289062,-0.1054688 0.1289062,-0.1289063 0.1289062,-0.1640625 0,-0.070312 -0.070312,-0.09375 -0.1171875,-0.09375 -0.1523437,0 -1.1367187,0.8554687 -1.7226562,2.0273437 -0.609375,1.2070313 -0.8789063,2.4960938 -0.8789063,3.9609375 0,1.0664063 0.1640625,2.48437501 0.7851563,3.76171876 0.703125,1.44140624 1.6875,2.21484374 1.8164062,2.21484374 0.046875,0 0.1171875,-0.023437 0.1171875,-0.09375 z m 0,0"
         style="fill:#000000;fill-opacity:1;fill-rule:nonzero;stroke:none" />
      <path
         id="path54"
         d="M 12.740781,-0.58667969 C 12.037656,-0.85621094 11.6275,-1.3952734 11.6275,-2.2976172 c 0,-1.640625 1.207031,-3.8203125 2.671875,-4.6757812 0.222656,0.2109375 0.492187,0.2109375 0.726562,0.2109375 0.292969,0 1.019532,0 1.019532,-0.3515625 0,-0.28125 -0.539063,-0.2929688 -0.914063,-0.2929688 -0.246094,0 -0.445312,0 -0.75,0.1289063 -0.08203,-0.1523438 -0.117187,-0.328125 -0.117187,-0.5039063 0,-0.2109375 0.04687,-0.3867187 0.04687,-0.421875 0,-0.070312 -0.05859,-0.1171875 -0.117188,-0.1171875 -0.1875,0 -0.1875,0.4453125 -0.1875,0.5390625 0,0.1054688 0,0.3632813 0.140625,0.609375 -1.382812,0.7148438 -3.128906,2.953125 -3.128906,5.1914063 0,1.62890621 1.089844,2.01562496 1.710937,2.22656246 0.152344,0.0585938 0.539063,0.1875 0.691407,0.24609375 0.492187,0.1640625 0.960937,0.31640625 0.960937,0.89062499 0,0.3515625 -0.257812,0.8203125 -0.703125,0.8203125 -0.234375,0 -0.5625,-0.082031 -0.855469,-0.3867187 -0.04687,-0.046875 -0.07031,-0.070312 -0.128906,-0.070312 -0.09375,0 -0.117187,0.09375 -0.117187,0.1171875 0,0.1171875 0.503906,0.5742187 1.101562,0.5742187 0.773438,0 1.300781,-0.796875 1.300781,-1.4179687 0,-0.84375004 -0.703125,-1.07812504 -1.136718,-1.21875004 z m 1.828125,-6.50390621 c 0.175781,-0.082031 0.339844,-0.082031 0.550781,-0.082031 0.375,0 0.410157,0.011719 0.65625,0.070312 -0.140625,0.058594 -0.246093,0.09375 -0.738281,0.09375 -0.257812,0 -0.339844,0 -0.46875,-0.082031 z m 4.253906,7.13671871 c 0,-0.69140625 -0.222656,-1.20703121 -0.714843,-1.20703121 -0.386719,0 -0.574219,0.31640621 -0.574219,0.57421871 0,0.2578125 0.175781,0.5859375025 0.585937,0.5859375025 0.152344,0 0.28125,-0.0468750025 0.386719,-0.1523437525 0.02344,-0.0234375 0.03516,-0.0234375 0.04687,-0.0234375 0.03516,0 0.03516,0.1640625 0.03516,0.22265625 0,0.3984375 -0.08203,1.17187499 -0.773437,1.94531249 -0.128906,0.1523438 -0.128906,0.1757813 -0.128906,0.1992188 0,0.058594 0.05859,0.1171875 0.117187,0.1171875 0.09375,0 1.019531,-0.890625 1.019532,-2.26171879 z m 5.317383,-4.85156251 h 1.101563 c 0.222656,0 0.339844,0 0.339844,-0.2109375 0,-0.140625 -0.07031,-0.140625 -0.304688,-0.140625 h -1.054687 l 0.445312,-1.7460937 c 0.04687,-0.1640625 0.04687,-0.1875 0.04687,-0.2695313 0,-0.1875 -0.152344,-0.3046875 -0.316406,-0.3046875 -0.09375,0 -0.363281,0.046875 -0.457031,0.421875 l -0.46875,1.8984375 h -1.125 c -0.234375,0 -0.351563,0 -0.351563,0.234375 0,0.1171875 0.09375,0.1171875 0.316406,0.1171875 h 1.066407 l -0.796875,3.1523438 c -0.09375,0.421875 -0.128907,0.5390625 -0.128907,0.69140621 0,0.5625 0.398438,1.078125 1.066407,1.078125 1.207031,0 1.851562,-1.74609371 1.851562,-1.82812501 0,-0.070312 -0.04687,-0.1054687 -0.117187,-0.1054687 -0.02344,0 -0.07031,0 -0.09375,0.046875 -0.01172,0.011719 -0.02344,0.023437 -0.105469,0.2109375 -0.257813,0.59765621 -0.808594,1.44140621 -1.5,1.44140621 -0.363281,0 -0.386719,-0.3046875 -0.386719,-0.5625 0,-0.0117188 0,-0.24609375 0.03516,-0.38671871 z m 0,0"
         style="fill:#000000;fill-opacity:1;fill-rule:nonzero;stroke:none" />
      <path
         id="path55"
         d="m 29.34332,-2.9773047 c 0,-0.9140625 -0.128906,-2.390625 -0.796875,-3.7734375 -0.703125,-1.4414062 -1.675781,-2.2148437 -1.816406,-2.2148437 -0.04687,0 -0.105469,0.023437 -0.105469,0.09375 0,0.035156 0,0.058594 0.199219,0.2695312 1.195313,1.2070313 1.875,3.1757813 1.875,5.6132813 0,2.32031246 -0.5625,4.3125 -1.957031,5.7304687 -0.117188,0.1054688 -0.117188,0.1289063 -0.117188,0.1640625 0,0.070312 0.05859,0.09375 0.105469,0.09375 0.164063,0 1.136719,-0.8554687 1.722656,-2.02734374 0.609375,-1.21875 0.890625,-2.51953126 0.890625,-3.94921876 z m 0,0"
         style="fill:#000000;fill-opacity:1;fill-rule:nonzero;stroke:none" />
    </g>
    <path
       id="path56"
       d="M -42.71945,-141.73409 H -76.73271"
       style="fill:none;stroke:#000000;stroke-width:0.79701;stroke-linecap:butt;stroke-linejoin:miter;stroke-miterlimit:10;stroke-dasharray:2.98883, 2.98883;stroke-dashoffset:0;stroke-opacity:1"
       transform="matrix(1.3333333,0,0,-1.3333333,239.85467,61.324)" />
    <path
       id="path57"
       d="M 2.59026,0 -1.55415,2.0722 0,0 -1.55415,-2.0722"
       style="fill:#000000;fill-opacity:1;fill-rule:nonzero;stroke:none"
       transform="matrix(-1.3333333,0,0,1.3333333,137.54439,250.30279)" />
    <g
       id="g57"
       aria-label="u(t)"
       transform="matrix(1.3333333,0,0,1.3333333,145.164,240.58133)">
      <path
         id="path58"
         d="m 4.0781719,-0.69088281 c 0.1523437,0.66796875 0.7265625,0.80859375 1.0195312,0.80859375 0.375,0 0.6679688,-0.24609375 0.8554688,-0.65625 0.1992187,-0.43359375 0.3632812,-1.13671874 0.3632812,-1.17187504 0,-0.058594 -0.058594,-0.1054687 -0.1289062,-0.1054687 -0.1054688,0 -0.1171875,0.058594 -0.1640625,0.234375 -0.2109375,0.83203124 -0.4335938,1.46484374 -0.9023438,1.46484374 -0.3632812,0 -0.3632812,-0.3984375 -0.3632812,-0.55078125 0,-0.28125 0.035156,-0.39843749 0.1523437,-0.90234379 0.082031,-0.3164062 0.1757813,-0.6445312 0.2460938,-0.9726562 l 0.4804687,-1.9570313 c 0.09375,-0.2929687 0.09375,-0.3164062 0.09375,-0.3515625 0,-0.1757812 -0.1523437,-0.3046875 -0.328125,-0.3046875 -0.3515625,0 -0.4335937,0.3046875 -0.5039062,0.5976563 -0.1171875,0.46875 -0.7617188,3.0351562 -0.84375,3.4570312 -0.011719,0 -0.4804688,0.98437504 -1.3476563,0.98437504 -0.6328125,0 -0.75,-0.5390625 -0.75,-0.98437504 0,-0.6796875 0.3398438,-1.640625 0.6445313,-2.4375 0.1523437,-0.3867187 0.2109375,-0.5390625 0.2109375,-0.7734375 0,-0.515625 -0.375,-0.9609375 -0.9492188,-0.9609375 -1.10156248,0 -1.53515623,1.734375 -1.53515623,1.828125 0,0.046875 0.046875,0.1054688 0.12890625,0.1054688 0.10546875,0 0.1171875,-0.046875 0.1640625,-0.2109375 0.29296875,-1.03125 0.74999998,-1.4765625 1.20703128,-1.4765625 0.1171875,0 0.3164062,0.011719 0.3164062,0.3867187 0,0.3164063 -0.140625,0.65625 -0.3164062,1.1132813 -0.5273438,1.4179687 -0.5859375,1.875 -0.5859375,2.2382812 0,1.21875004 0.9257812,1.40625004 1.40625,1.40625004 0.7734375,0 1.1835937,-0.52734375 1.4296875,-0.80859375 z m 0,0"
         style="fill:#000000;fill-opacity:1;fill-rule:nonzero;stroke:none" />
      <path
         id="path59"
         d="m 10.552781,2.9067734 c 0,-0.035156 0,-0.058594 -0.210937,-0.2695312 -1.1953128,-1.2070313 -1.8632815,-3.17578126 -1.8632815,-5.6132813 0,-2.3203125 0.5625,-4.3125 1.9453125,-5.7304687 0.128906,-0.1054688 0.128906,-0.1289063 0.128906,-0.1640625 0,-0.070312 -0.07031,-0.09375 -0.117187,-0.09375 -0.152344,0 -1.136719,0.8554687 -1.7226565,2.0273437 -0.609375,1.2070313 -0.8789063,2.4960938 -0.8789063,3.9609375 0,1.0664063 0.1640625,2.48437504 0.7851563,3.76171879 0.703125,1.44140621 1.6874995,2.21484371 1.8164065,2.21484371 0.04687,0 0.117187,-0.023437 0.117187,-0.09375 z m 0,0"
         style="fill:#000000;fill-opacity:1;fill-rule:nonzero;stroke:none" />
      <path
         id="path60"
         d="m 13.617234,-4.8041641 h 1.101563 c 0.222656,0 0.339844,0 0.339844,-0.2109375 0,-0.140625 -0.07031,-0.140625 -0.304688,-0.140625 h -1.054687 l 0.445312,-1.7460937 c 0.04687,-0.1640625 0.04687,-0.1875 0.04687,-0.2695313 0,-0.1875 -0.152344,-0.3046875 -0.316406,-0.3046875 -0.09375,0 -0.363281,0.046875 -0.457031,0.421875 l -0.46875,1.8984375 h -1.125 c -0.234375,0 -0.351563,0 -0.351563,0.234375 0,0.1171875 0.09375,0.1171875 0.316406,0.1171875 h 1.066407 l -0.796875,3.1523438 c -0.09375,0.421875 -0.128907,0.5390625 -0.128907,0.69140624 0,0.5625 0.398438,1.078125 1.066407,1.078125 1.207031,0 1.851562,-1.74609374 1.851562,-1.82812504 0,-0.070312 -0.04687,-0.1054687 -0.117187,-0.1054687 -0.02344,0 -0.07031,0 -0.09375,0.046875 -0.01172,0.011719 -0.02344,0.023437 -0.105469,0.2109375 -0.257813,0.59765624 -0.808594,1.44140624 -1.5,1.44140624 -0.363281,0 -0.386719,-0.3046875 -0.386719,-0.5625 0,-0.0117188 0,-0.24609375 0.03516,-0.38671874 z m 0,0"
         style="fill:#000000;fill-opacity:1;fill-rule:nonzero;stroke:none" />
      <path
         id="path61"
         d="m 18.81743,-2.9760391 c 0,-0.9140625 -0.128907,-2.390625 -0.796875,-3.7734375 -0.703125,-1.4414062 -1.675782,-2.2148437 -1.816407,-2.2148437 -0.04687,0 -0.105468,0.023437 -0.105468,0.09375 0,0.035156 0,0.058594 0.199218,0.2695312 1.195313,1.2070313 1.875,3.1757813 1.875,5.6132813 0,2.32031249 -0.5625,4.3125 -1.957031,5.7304687 -0.117187,0.1054688 -0.117187,0.1289063 -0.117187,0.1640625 0,0.070312 0.05859,0.09375 0.105468,0.09375 0.164063,0 1.136719,-0.8554687 1.722657,-2.02734371 0.609375,-1.21875 0.890625,-2.51953129 0.890625,-3.94921879 z m 0,0"
         style="fill:#000000;fill-opacity:1;fill-rule:nonzero;stroke:none" />
    </g>
    <path
       id="path62"
       d="m -90.75787,-141.73409 h -50.97622 V -8.30771"
       style="fill:none;stroke:#000000;stroke-width:0.79701;stroke-linecap:butt;stroke-linejoin:miter;stroke-miterlimit:10;stroke-dasharray:2.98883, 2.98883;stroke-dashoffset:0;stroke-opacity:1"
       transform="matrix(1.3333333,0,0,-1.3333333,239.85467,61.324)" />
    <path
       id="path63"
       d="M 2.59026,0 -1.55415,2.0722 0,0 -1.55415,-2.0722"
       style="fill:#000000;fill-opacity:1;fill-rule:nonzero;stroke:none"
       transform="matrix(0,-1.3333333,-1.3333333,0,50.87588,72.400947)" />
    <g
       id="g63"
       aria-label="u(t)"
       transform="matrix(1.3333333,0,0,1.3333333,18.485333,86.636)">
      <path
         id="path64"
         d="m 4.0774063,-0.69086719 c 0.1523437,0.66796875 0.7265625,0.80859375 1.0195312,0.80859375 0.375,0 0.6679688,-0.24609375 0.8554688,-0.65625 0.1992187,-0.43359375 0.3632812,-1.13671876 0.3632812,-1.17187496 0,-0.058594 -0.058594,-0.1054688 -0.1289062,-0.1054688 -0.1054688,0 -0.1171875,0.058594 -0.1640625,0.234375 -0.2109375,0.83203126 -0.4335938,1.46484376 -0.9023438,1.46484376 -0.3632812,0 -0.3632812,-0.3984375 -0.3632812,-0.55078125 0,-0.28125 0.035156,-0.39843751 0.1523437,-0.90234371 0.082031,-0.3164063 0.1757813,-0.6445313 0.2460938,-0.9726563 L 5.636,-4.4994609 c 0.09375,-0.2929688 0.09375,-0.3164063 0.09375,-0.3515625 0,-0.1757813 -0.1523437,-0.3046875 -0.328125,-0.3046875 -0.3515625,0 -0.4335937,0.3046875 -0.5039062,0.5976562 -0.1171875,0.46875 -0.7617188,3.0351563 -0.84375,3.4570313 -0.011719,0 -0.4804688,0.98437496 -1.3476563,0.98437496 -0.6328125,0 -0.75,-0.5390625 -0.75,-0.98437496 0,-0.6796875 0.3398438,-1.640625 0.6445313,-2.4375 0.1523437,-0.3867188 0.2109375,-0.5390625 0.2109375,-0.7734375 0,-0.515625 -0.375,-0.9609375 -0.9492188,-0.9609375 -1.1015625,0 -1.53515625,1.734375 -1.53515625,1.828125 0,0.046875 0.046875,0.1054687 0.12890625,0.1054687 0.10546875,0 0.1171875,-0.046875 0.1640625,-0.2109375 0.29296875,-1.03125 0.75,-1.4765625 1.2070313,-1.4765625 0.1171875,0 0.3164062,0.011719 0.3164062,0.3867188 0,0.3164062 -0.140625,0.65625 -0.3164062,1.1132812 -0.5273438,1.4179688 -0.5859375,1.875 -0.5859375,2.2382813 0,1.21874996 0.9257812,1.40624996 1.40625,1.40624996 0.7734375,0 1.1835937,-0.52734375 1.4296875,-0.80859375 z m 0,0"
         style="fill:#000000;fill-opacity:1;fill-rule:nonzero;stroke:none" />
      <path
         id="path65"
         d="m 10.554945,2.9067891 c 0,-0.035156 0,-0.058594 -0.210937,-0.2695313 -1.1953127,-1.2070312 -1.8632814,-3.17578124 -1.8632814,-5.6132812 0,-2.3203125 0.5625,-4.3125 1.9453124,-5.7304688 0.128906,-0.1054687 0.128906,-0.1289062 0.128906,-0.1640625 0,-0.070312 -0.07031,-0.09375 -0.117187,-0.09375 -0.152344,0 -1.1367189,0.8554688 -1.7226564,2.0273438 -0.609375,1.2070312 -0.8789063,2.4960937 -0.8789063,3.9609375 0,1.0664062 0.1640625,2.48437496 0.7851563,3.76171871 0.703125,1.44140629 1.6875004,2.21484379 1.8164064,2.21484379 0.04687,0 0.117187,-0.023437 0.117187,-0.09375 z m 0,0"
         style="fill:#000000;fill-opacity:1;fill-rule:nonzero;stroke:none" />
      <path
         id="path66"
         d="m 13.616469,-4.8041484 h 1.101562 c 0.222657,0 0.339844,0 0.339844,-0.2109375 0,-0.140625 -0.07031,-0.140625 -0.304687,-0.140625 H 13.6985 l 0.445313,-1.7460938 c 0.04687,-0.1640625 0.04687,-0.1875 0.04687,-0.2695312 0,-0.1875 -0.152344,-0.3046875 -0.316407,-0.3046875 -0.09375,0 -0.363281,0.046875 -0.457031,0.421875 l -0.46875,1.8984375 h -1.125 c -0.234375,0 -0.351562,0 -0.351562,0.234375 0,0.1171875 0.09375,0.1171875 0.316406,0.1171875 h 1.066406 l -0.796875,3.1523437 c -0.09375,0.421875 -0.128906,0.5390625 -0.128906,0.69140626 0,0.5625 0.398437,1.078125 1.066406,1.078125 1.207031,0 1.851563,-1.74609376 1.851563,-1.82812496 0,-0.070312 -0.04687,-0.1054688 -0.117188,-0.1054688 -0.02344,0 -0.07031,0 -0.09375,0.046875 -0.01172,0.011719 -0.02344,0.023437 -0.105469,0.2109375 -0.257812,0.59765626 -0.808593,1.44140626 -1.5,1.44140626 -0.363281,0 -0.386718,-0.3046875 -0.386718,-0.5625 0,-0.0117188 0,-0.24609375 0.03516,-0.38671876 z m 0,0"
         style="fill:#000000;fill-opacity:1;fill-rule:nonzero;stroke:none" />
      <path
         id="path67"
         d="m 18.816664,-2.9760234 c 0,-0.9140625 -0.128906,-2.390625 -0.796875,-3.7734375 -0.703125,-1.4414063 -1.675781,-2.2148438 -1.816406,-2.2148438 -0.04687,0 -0.105469,0.023437 -0.105469,0.09375 0,0.035156 0,0.058594 0.199219,0.2695313 1.195312,1.2070312 1.875,3.1757812 1.875,5.6132812 0,2.32031251 -0.5625,4.3125 -1.957031,5.7304688 -0.117188,0.1054687 -0.117188,0.1289062 -0.117188,0.1640625 0,0.070312 0.05859,0.09375 0.105469,0.09375 0.164062,0 1.136719,-0.8554688 1.722656,-2.02734379 0.609375,-1.21875 0.890625,-2.51953121 0.890625,-3.94921871 z m 0,0"
         style="fill:#000000;fill-opacity:1;fill-rule:nonzero;stroke:none" />
    </g>
    <path
       id="path68"
       d="m -85.04042,-136.01663 v 36.80278 h 96.4243"
       style="fill:none;stroke:#000000;stroke-width:0.79701;stroke-linecap:butt;stroke-linejoin:miter;stroke-miterlimit:10;stroke-dasharray:2.98883, 2.98883;stroke-dashoffset:0;stroke-opacity:1"
       transform="matrix(1.3333333,0,0,-1.3333333,239.85467,61.324)" />
    <path
       id="path69"
       d="M 2.59026,0 -1.55415,2.0722 0,0 -1.55415,-2.0722"
       style="fill:#000000;fill-opacity:1;fill-rule:nonzero;stroke:none"
       transform="matrix(1.3333333,0,0,-1.3333333,255.03317,193.60913)" />
  </g>
</svg>
